SplineFontDB: 1.0
FontName: URWGothicL-DemiObli
FullName: URW Gothic L Demi Oblique
FamilyName: URW Gothic L
Weight: DemiBold
Copyright: Copyright (URW)++,Copyright 1999 by (URW)++ Design & Development; Cyrillic glyphs added by Valek Filippov (C) 2001-2004
Version: 1.06
ItalicAngle: -10.5
UnderlinePosition: -93
UnderlineWidth: 90
Ascent: 800
Descent: 200
NeedsXUIDChange: 1
UniqueID: 4017787
FSType: 0
OS2WinAscent: 0
OS2WinAOffset: 1
OS2WinDescent: 0
OS2WinDOffset: 1
HheadAscent: 0
HheadAOffset: 1
HheadDescent: 0
HheadDOffset: 1
ScriptLang: 2
 1 latn 1 dflt 
 1 DFLT 1 dflt 
Encoding: adobestandard
UnicodeInterp: none
DisplaySize: -36
AntiAlias: 1
FitToEm: 1
WinInfo: 420 21 14
BeginPrivate: 7
BlueValues 23 [-20 0 554 574 739 759]
BlueScale 8 0.039625
StdHW 5 [123]
StdVW 5 [138]
StemSnapH 196 [113 123 133] 
systemdict /internaldict known
{1183615869 systemdict /internaldict get exec
/StemSnapLength 2 copy known { get 3 lt } { pop pop true } ifelse }
{ true } ifelse { pop [123 133] } if
StemSnapV 2 []
ForceBold 5 false
EndPrivate
BeginChars: 767 660
StartChar: exclam
Encoding: 33 33 2
Width: 280
Flags: W
HStem: 0 21G<72 205> 719 20G<209 342>
DStem: 209 739 342 739 107 188 240 188
Fore
107 188 m 1
 209 739 l 1
 342 739 l 1
 240 188 l 1
 107 188 l 1
72 0 m 1
 96 128 l 1
 229 128 l 1
 205 0 l 1
 72 0 l 1
EndSplineSet
EndChar
StartChar: quotedbl
Encoding: 34 34 3
Width: 360
Flags: W
HStem: 719 20G<211 287 344 420>
DStem: 211 739 287 739 169 513 245 513 344 739 420 739 302 513 378 513
Fore
245 513 m 1
 169 513 l 1
 211 739 l 1
 287 739 l 1
 245 513 l 1
378 513 m 1
 302 513 l 1
 344 739 l 1
 420 739 l 1
 378 513 l 1
EndSplineSet
EndChar
StartChar: numbersign
Encoding: 35 35 4
Width: 560
Flags: W
HStem: 0 21G<101 192 275 366> 233 100<95 176 298 351 474 543> 233 289<159 351 359 543> 422 100<158 236 359 411 533 605> 719 20G<338 429 513 602>
DStem: 176 233 267 233 101 0 192 0 236 422 327 422 207 333 298 333 338 739 429 739 268 522 359 522 351 233 441 233 275 0 366 0 411 422 502 422 383 333 474 333 513 739 602 739 443 522 533 522
Fore
338 739 m 1xa8
 429 739 l 1
 359 522 l 1
 443 522 l 1
 513 739 l 1
 602 739 l 1
 533 522 l 1xa8
 623 522 l 1
 605 422 l 1
 502 422 l 1
 474 333 l 1
 562 333 l 1
 543 233 l 1xd8
 441 233 l 1xa8
 366 0 l 1
 275 0 l 1
 351 233 l 1xc8
 267 233 l 1xa8
 192 0 l 1
 101 0 l 1
 176 233 l 1xc8
 77 233 l 1xa8
 96 333 l 1
 207 333 l 1
 236 422 l 1
 141 422 l 1xd8
 159 522 l 1
 268 522 l 1
 338 739 l 1xa8
327 422 m 1xd8
 298 333 l 1
 383 333 l 1
 411 422 l 1
 327 422 l 1xd8
EndSplineSet
EndChar
StartChar: dollar
Encoding: 36 36 5
Width: 560
Flags: W
HStem: -86 249<293.179 308> 613 243<378 405>
VStem: 100 137<207 228> 184 137<498 535> 408 137<265 308> 446 129<551 589>
DStem: 228 46 355 46 204 -86 331 -86 378 856 505 856 354 723 481 723
Fore
105 249 m 1xe8
 239 249 l 1
 238 240 237 233 237 228 c 0
 237 192 268 163 305 163 c 0
 361 163 408 209 408 265 c 0xe8
 408 288 402 298 380 316 c 0
 363 329 363 329 284 361 c 0
 216 388 184 432 184 498 c 0
 184 557 206 616 247 661 c 1
 277 696 305 712 354 723 c 1
 378 856 l 1
 505 856 l 1
 481 723 l 1
 508 716 523 707 539 688 c 0
 561 661 575 623 575 589 c 0
 575 580 574 567 572 551 c 1
 446 551 l 1
 446 589 427 613 395 613 c 0
 354 613 321 578 321 535 c 0xd4
 321 516 328 499 339 489 c 0
 356 474 367 469 457 433 c 0
 515 410 545 367 545 308 c 0
 545 241 520 169 480 124 c 0
 447 86 410 63 355 46 c 1
 331 -86 l 1
 204 -86 l 1
 228 46 l 1
 147 68 100 128 100 207 c 0
 100 221 101 231 105 249 c 1xe8
EndSplineSet
EndChar
StartChar: percent
Encoding: 37 37 6
Width: 860
Flags: W
HStem: -13 107<647 669> 242 106<697 718> 391 107<272 295> 646 106<321 342>
VStem: 124 108<540 562> 384 108<585 605> 500 108<133 154> 760 108<181 201>
DStem: 665 739 768 739 223 0 325 0
Fore
665 739 m 1
 768 739 l 1
 325 0 l 1
 223 0 l 1
 665 739 l 1
718 348 m 0
 804 348 868 285 868 201 c 0
 868 88 763 -13 647 -13 c 0
 564 -13 500 51 500 133 c 0
 500 247 603 348 718 348 c 0
697 242 m 0
 650 242 608 200 608 154 c 0
 608 120 634 94 669 94 c 0
 716 94 760 137 760 183 c 0
 760 215 732 242 697 242 c 0
342 752 m 0
 428 752 492 689 492 605 c 0
 492 493 387 391 272 391 c 0
 187 391 124 454 124 540 c 0
 124 651 229 752 342 752 c 0
321 646 m 0
 277 646 232 604 232 562 c 0
 232 523 257 498 295 498 c 0
 340 498 384 541 384 585 c 0
 384 620 357 646 321 646 c 0
EndSplineSet
EndChar
StartChar: ampersand
Encoding: 38 38 7
Width: 680
Flags: W
HStem: -13 132<274 296> 627 125<417 437>
VStem: 71 134<179 200> 214 128<534 554> 468 130<584 611>
DStem: 592 433 741 433 499 313 572 213
Fore
592 433 m 1
 741 433 l 1
 572 213 l 1
 678 72 l 1
 567 -13 l 1
 483 98 l 1
 405 14 354 -13 275 -13 c 0
 155 -13 71 66 71 179 c 0
 71 235 93 295 128 338 c 0
 157 374 197 403 255 433 c 1
 222 478 214 498 214 534 c 0
 214 648 320 752 437 752 c 0
 530 752 598 693 598 611 c 0
 598 563 586 523 560 485 c 0
 533 445 517 431 445 389 c 1
 499 313 l 1
 592 433 l 1
379 481 m 1
 387 485 l 2
 402 491 415 499 429 509 c 0
 457 530 468 550 468 584 c 0
 468 608 446 627 417 627 c 0
 377 627 342 592 342 552 c 0
 342 531 352 512 379 481 c 1
409 198 m 1
 317 322 l 1
 271 302 260 296 240 275 c 0
 215 249 205 227 205 198 c 0
 205 150 238 119 290 119 c 0
 335 119 372 144 409 198 c 1
EndSplineSet
EndChar
StartChar: quoteright
Encoding: 39 8217 8
Width: 280
Flags: W
HStem: 719 20G<210 342>
DStem: 210 739 342 739 186 611 316 599
Fore
186 611 m 1
 210 739 l 1
 342 739 l 1
 316 599 l 1
 310 525 239 464 159 466 c 1
 171 533 l 1
 217 539 240 563 244 611 c 1
 186 611 l 1
EndSplineSet
KernsSLIF: 119 1 1 0 118 3 1 0 116 7 1 0 115 -12 1 0 114 -4 1 0 46 -39 1 0 111 -34 1 0 100 -27 1 0 44 -39 1 0 262 -81 1 0 256 -81 1 0 257 -81 1 0 225 -153 1 0 65 -81 1 0
EndChar
StartChar: parenleft
Encoding: 40 40 9
Width: 380
Flags: W
VStem: 122 137<210 231>
Fore
350 8 m 1
 323 -137 l 1
 271 -119 235 -91 196 -38 c 0
 152 23 122 124 122 212 c 0
 122 351 195 516 304 623 c 0
 358 677 402 705 486 739 c 1
 459 595 l 1
 331 504 259 373 259 229 c 0
 259 138 296 47 350 8 c 1
EndSplineSet
EndChar
StartChar: parenright
Encoding: 41 41 10
Width: 380
Flags: W
VStem: 240 137<374 397>
Fore
148 594 m 1
 175 739 l 1
 230 720 264 694 303 639 c 0
 350 572 377 485 377 395 c 0
 377 246 308 88 195 -21 c 0
 140 -74 89 -106 13 -137 c 1
 40 7 l 1
 166 96 240 232 240 376 c 0
 240 462 201 556 148 594 c 1
EndSplineSet
EndChar
StartChar: asterisk
Encoding: 42 42 11
Width: 440
Flags: W
DStem: 250 719 319 739 287 623 347 646 276 564 324 521 206 484 264 442 324 521 381 543 354 425 419 452
Fore
250 719 m 1
 319 739 l 1
 347 646 l 1
 407 723 l 1
 461 676 l 1
 392 603 l 1
 490 591 l 1
 477 521 l 1
 381 543 l 1
 419 452 l 1
 354 425 l 1
 324 521 l 1
 264 442 l 1
 206 484 l 1
 276 564 l 1
 176 575 l 1
 189 646 l 1
 287 623 l 1
 250 719 l 1
EndSplineSet
EndChar
StartChar: plus
Encoding: 43 43 12
Width: 600
Flags: W
HStem: 312 118<121 287 433 603>
DStem: 287 312 411 312 253 129 377 129 342 609 466 609 309 430 433 430
Fore
309 430 m 1
 342 609 l 1
 466 609 l 1
 433 430 l 1
 625 430 l 1
 603 312 l 1
 411 312 l 1
 377 129 l 1
 253 129 l 1
 287 312 l 1
 100 312 l 1
 122 430 l 1
 309 430 l 1
EndSplineSet
EndChar
StartChar: comma
Encoding: 44 44 13
Width: 280
Flags: W
HStem: -20 20G<73 131>
Fore
73 0 m 1
 97 128 l 1
 230 128 l 1
 205 -7 l 2
 197 -51 186 -72 157 -99 c 0
 130 -123 90 -140 58 -140 c 2
 49 -140 l 1
 47 -140 l 1
 59 -73 l 1
 106 -67 130 -42 131 0 c 1
 73 0 l 1
EndSplineSet
KernsSLIF: 39 -33 1 0 186 -32 1 0 49 -83 1 0
EndChar
StartChar: hyphen
Encoding: 45 45 14
Width: 420
Flags: W
HStem: 229 118<143 399>
Fore
122 229 m 1
 144 347 l 1
 421 347 l 1
 399 229 l 1
 122 229 l 1
EndSplineSet
KernsSLIF: 89 -68 1 0 87 -23 1 0 86 -46 1 0 84 -24 1 0 262 -14 1 0 256 -14 1 0 257 -14 1 0 225 -53 1 0 65 -14 1 0
EndChar
StartChar: period
Encoding: 46 46 15
Width: 280
Flags: W
HStem: 0 21G<72 206>
Fore
72 0 m 1
 96 128 l 1
 230 128 l 1
 206 0 l 1
 72 0 l 1
EndSplineSet
KernsSLIF: 39 -33 1 0 186 -32 1 0 49 -83 1 0
EndChar
StartChar: slash
Encoding: 47 47 16
Width: 460
Flags: W
HStem: 719 20G<486 580>
DStem: 486 739 580 739 2 -128 97 -128
Fore
2 -128 m 1
 486 739 l 1
 580 739 l 1
 97 -128 l 1
 2 -128 l 1
EndSplineSet
EndChar
StartChar: zero
Encoding: 48 48 17
Width: 560
Flags: W
HStem: -13 122<281 303> 630 122<387 413>
VStem: 68 136<185 209> 487 136<540 567>
DStem: 121 498 254 498 74 247 208 251 483 498 617 505 436 247 569 247
Fore
617 505 m 2
 569 247 l 2
 555 171 533 124 491 78 c 0
 436 18 365 -13 281 -13 c 0
 147 -13 68 61 68 185 c 0
 68 205 70 226 74 247 c 2
 121 498 l 2
 150 654 263 752 413 752 c 0
 541 752 623 680 623 567 c 0
 623 547 621 526 617 505 c 2
254 498 m 1
 208 251 l 1
 205 237 204 222 204 207 c 0
 204 176 211 152 225 138 c 0
 241 120 271 109 301 109 c 0
 337 109 369 123 394 150 c 0
 418 175 426 195 436 247 c 1
 483 498 l 1
 486 512 487 526 487 540 c 0
 487 597 452 630 393 630 c 0
 322 630 269 580 254 498 c 1
EndSplineSet
KernsSLIF: 55 -34 1 0 49 -63 1 0 52 12 1 0
EndChar
StartChar: one
Encoding: 49 49 18
Width: 560
Flags: W
HStem: 0 21G<246 379> 719 20G<290 516>
DStem: 360 614 516 739 246 0 379 0
Fore
246 0 m 1
 360 614 l 1
 267 614 l 1
 290 739 l 1
 516 739 l 1
 379 0 l 1
 246 0 l 1
EndSplineSet
KernsSLIF: 48 -36 1 0 50 -54 1 0 51 -58 1 0 54 -60 1 0 55 -93 1 0 46 -49 1 0 49 -126 1 0 57 -55 1 0 52 -60 1 0 53 -45 1 0 56 -50 1 0 44 -50 1 0
EndChar
StartChar: two
Encoding: 50 50 19
Width: 560
Flags: W
HStem: 0 125<249 517> 630 122<396 419>
VStem: 482 137<537 561>
DStem: 370 366 426 262 64 117 249 125
Fore
42 0 m 1
 64 117 l 1
 370 366 l 2
 449 430 482 481 482 538 c 0
 482 593 448 630 398 630 c 0
 328 630 279 580 255 484 c 1
 124 484 l 1
 143 569 157 602 192 644 c 0
 249 713 332 752 419 752 c 0
 538 752 619 675 619 561 c 0
 619 500 599 439 561 389 c 0
 532 350 496 316 426 262 c 2
 249 125 l 1
 540 125 l 1
 517 0 l 1
 42 0 l 1
EndSplineSet
KernsSLIF: 55 -36 1 0 49 -74 1 0 52 8 1 0
EndChar
StartChar: three
Encoding: 51 51 20
Width: 560
Flags: W
HStem: -13 122<264 289> 356 128<306 326> 563 21G<174 309> 630 122<383 405>
VStem: 53 137<184 217> 428 137<255 286>
Fore
283 356 m 1
 307 484 l 1
 348 485 372 490 392 500 c 0
 417 514 434 543 434 575 c 0
 434 609 415 630 384 630 c 0
 347 630 320 606 309 563 c 1
 174 563 l 1
 189 621 208 655 245 689 c 0
 289 729 347 752 405 752 c 0
 505 752 571 688 571 591 c 0
 571 517 542 463 482 426 c 1
 541 393 565 352 565 286 c 0
 565 122 429 -13 264 -13 c 0
 206 -13 152 6 116 38 c 0
 78 72 53 131 53 184 c 0
 53 193 54 207 56 224 c 1
 190 224 l 1
 190 217 l 2
 190 151 227 109 287 109 c 0
 331 109 371 130 396 166 c 0
 414 192 428 230 428 255 c 0
 428 278 416 307 401 324 c 0
 381 345 350 356 306 356 c 2
 283 356 l 1
EndSplineSet
KernsSLIF: 55 -57 1 0 49 -81 1 0 52 9 1 0
EndChar
StartChar: four
Encoding: 52 52 21
Width: 560
Flags: W
HStem: 0 229<178 452> 111 118<178 340 495 551> 719 20G<477 589>
DStem: 415 515 589 739 362 229 495 229 477 739 415 515 40 218 178 229
Fore
40 218 m 1x60
 477 739 l 1
 589 739 l 1
 495 229 l 1
 573 229 l 1
 551 111 l 1
 473 111 l 1x60
 452 0 l 1
 319 0 l 1xa0
 340 111 l 1
 20 111 l 1
 40 218 l 1x60
362 229 m 1xa0
 415 515 l 1
 178 229 l 1
 362 229 l 1xa0
EndSplineSet
KernsSLIF: 55 -51 1 0 49 -78 1 0 52 15 1 0
EndChar
StartChar: five
Encoding: 53 53 22
Width: 560
Flags: W
HStem: -13 122<264 288> 377 122<335 380> 614 125<252 563>
VStem: 50 136<183 221> 433 137<274 298>
DStem: 252 739 329 614 111 353 279 478
Fore
111 353 m 1
 252 739 l 1
 586 739 l 1
 563 614 l 1
 329 614 l 1
 279 478 l 1
 325 494 347 499 380 499 c 0
 496 499 570 420 570 298 c 0
 570 228 544 158 495 98 c 0
 436 27 354 -13 264 -13 c 0
 203 -13 155 5 114 43 c 0
 73 81 50 132 50 183 c 0
 50 191 51 204 53 221 c 1
 186 221 l 1
 185 150 222 109 286 109 c 0
 333 109 372 131 401 173 c 1
 421 205 433 241 433 275 c 0
 433 336 393 377 335 377 c 0
 294 377 264 362 223 321 c 1
 111 353 l 1
EndSplineSet
KernsSLIF: 55 -58 1 0 49 -86 1 0 52 10 1 0
EndChar
StartChar: six
Encoding: 54 54 23
Width: 560
Flags: W
HStem: -13 122<276 301> 369 117<347 419> 719 20G<423 582>
VStem: 62 137<184 211> 447 137<267 302>
DStem: 423 739 582 739 176 449 356 476
Fore
423 739 m 1
 582 739 l 1
 356 476 l 1
 381 484 394 486 419 486 c 0
 471 486 509 471 538 438 c 0
 566 406 584 354 584 302 c 0
 584 236 556 161 510 102 c 0
 454 29 368 -13 276 -13 c 0
 205 -13 152 9 111 56 c 0
 78 94 62 135 62 184 c 0
 62 275 97 356 176 449 c 2
 423 739 l 1
347 369 m 0
 264 369 199 298 199 209 c 0
 199 148 238 109 301 109 c 0
 380 109 447 182 447 267 c 0
 447 328 407 369 347 369 c 0
EndSplineSet
KernsSLIF: 55 -60 1 0 49 -85 1 0 52 16 1 0
EndChar
StartChar: seven
Encoding: 55 55 24
Width: 560
Flags: W
HStem: 0 21G<85 234> 614 125<202 473>
DStem: 473 614 614 614 85 0 234 0
Fore
85 0 m 1
 473 614 l 1
 180 614 l 1
 203 739 l 1
 637 739 l 1
 614 614 l 1
 234 0 l 1
 85 0 l 1
EndSplineSet
KernsSLIF: 50 -28 1 0 51 -42 1 0 54 -60 1 0 55 -33 1 0 46 -97 1 0 49 -77 1 0 52 -67 1 0 53 -41 1 0 56 -46 1 0 44 -98 1 0 58 -63 1 0
EndChar
StartChar: eight
Encoding: 56 56 25
Width: 560
Flags: W
HStem: -13 122<274 298> 341 128<339 362> 630 122<393 418>
VStem: 69 137<188 205> 172 128<513 532> 430 137<247 274> 454 128<565 595>
Fore
210 411 m 1xf4
 181 451 172 476 172 513 c 0
 172 565 198 628 238 671 c 0
 285 722 351 752 418 752 c 0
 514 752 582 687 582 595 c 0xea
 582 556 573 518 554 481 c 0
 538 449 525 434 492 411 c 1
 512 398 522 391 531 381 c 0
 554 357 567 318 567 274 c 0
 567 123 428 -13 274 -13 c 0
 150 -13 69 67 69 190 c 0
 69 241 87 293 120 338 c 0
 145 372 166 390 210 411 c 1xf4
393 630 m 0
 345 630 300 583 300 532 c 0
 300 497 327 469 362 469 c 0
 410 469 454 515 454 565 c 0
 454 606 431 630 393 630 c 0
339 341 m 0
 270 341 206 275 206 203 c 0
 206 146 243 109 298 109 c 0
 367 109 430 175 430 247 c 0xf4
 430 302 392 341 339 341 c 0
EndSplineSet
KernsSLIF: 55 -52 1 0 49 -78 1 0 52 10 1 0
EndChar
StartChar: nine
Encoding: 57 57 26
Width: 560
Flags: W
HStem: 0 21G<108 267> 251 117<272 343> 630 122<388 414>
VStem: 108 137<437 469> 491 137<527 554>
DStem: 335 263 514 290 108 0 267 0
Fore
267 0 m 1
 108 0 l 1
 335 263 l 1
 309 254 294 251 272 251 c 0
 173 251 108 325 108 437 c 0
 108 503 136 578 182 637 c 0
 240 712 321 752 414 752 c 0
 539 752 628 669 628 554 c 0
 628 464 593 383 514 290 c 2
 267 0 l 1
390 630 m 0
 346 630 303 607 279 572 c 0
 260 545 245 499 245 469 c 0
 245 410 286 368 343 368 c 0
 426 368 491 439 491 530 c 0
 491 590 450 630 390 630 c 0
EndSplineSet
KernsSLIF: 55 -32 1 0 49 -76 1 0 52 -33 1 0
EndChar
StartChar: colon
Encoding: 58 58 27
Width: 280
Flags: W
HStem: 0 21G<72 206>
Fore
140 374 m 1
 164 502 l 1
 298 502 l 1
 274 374 l 1
 140 374 l 1
72 0 m 1
 96 128 l 1
 230 128 l 1
 206 0 l 1
 72 0 l 1
EndSplineSet
EndChar
StartChar: semicolon
Encoding: 59 59 28
Width: 280
Flags: W
HStem: -20 20G<73 131>
Fore
73 0 m 1
 97 128 l 1
 230 128 l 1
 205 -7 l 2
 197 -51 186 -72 157 -99 c 0
 130 -123 90 -140 58 -140 c 2
 49 -140 l 1
 47 -140 l 1
 59 -73 l 1
 106 -67 130 -42 131 0 c 1
 73 0 l 1
140 374 m 1
 164 502 l 1
 298 502 l 1
 274 374 l 1
 140 374 l 1
EndSplineSet
EndChar
StartChar: less
Encoding: 60 60 29
Width: 600
Flags: W
DStem: 98 258 275 304 566 33 587 145 668 582 646 461 116 356 275 304
Fore
668 582 m 1
 646 461 l 1
 275 304 l 1
 587 145 l 1
 566 33 l 1
 98 258 l 1
 116 356 l 1
 668 582 l 1
EndSplineSet
EndChar
StartChar: equal
Encoding: 61 61 30
Width: 600
Flags: W
HStem: 210 118<102 585> 406 118<138 621>
Fore
643 524 m 1
 621 406 l 1
 117 406 l 1
 139 524 l 1
 643 524 l 1
607 328 m 1
 585 210 l 1
 81 210 l 1
 103 328 l 1
 607 328 l 1
EndSplineSet
EndChar
StartChar: greater
Encoding: 62 62 31
Width: 600
Flags: W
DStem: 137 469 158 582 449 310 625 356 449 310 607 258 78 153 56 33
Fore
56 33 m 1
 78 153 l 1
 449 310 l 1
 137 469 l 1
 158 582 l 1
 625 356 l 1
 607 258 l 1
 56 33 l 1
EndSplineSet
EndChar
StartChar: question
Encoding: 63 63 32
Width: 560
Flags: W
HStem: 0 21G<186 319> 620 132<370 401>
VStem: 449 137<546 568>
Fore
353 187 m 1
 220 187 l 1
 244 317 273 361 387 442 c 0
 426 470 449 509 449 546 c 0
 449 590 417 620 370 620 c 0
 339 620 316 609 292 582 c 0
 279 567 272 554 262 520 c 1
 129 520 l 1
 163 661 270 752 401 752 c 0
 511 752 586 677 586 568 c 0
 586 522 571 474 546 437 c 0
 529 413 507 392 446 344 c 0
 382 295 367 269 353 187 c 1
186 0 m 1
 209 128 l 1
 342 128 l 1
 319 0 l 1
 186 0 l 1
EndSplineSet
EndChar
StartChar: at
Encoding: 64 64 33
Width: 740
Flags: W
HStem: -13 73<396 433> 154 83<565 619> 465 112<468 481> 693 73<511 545>
VStem: 64 68<290 324> 217 124<292 328> 528 67<253 398> 763 68<463 500>
Fore
688 573 m 1
 599 278 l 2
 598 274 595 256 595 253 c 0
 595 243 604 237 619 237 c 0
 648 237 679 258 708 298 c 0
 742 343 763 412 763 476 c 0
 763 608 668 693 522 693 c 0
 310 693 132 517 132 307 c 0
 132 229 170 152 231 110 c 0
 275 80 345 60 410 60 c 0
 470 60 517 74 572 107 c 1
 607 47 l 1
 532 2 481 -13 398 -13 c 0
 300 -13 224 12 165 64 c 0
 102 120 64 206 64 294 c 0
 64 548 279 766 530 766 c 0
 634 766 728 726 780 658 c 0
 815 613 831 558 831 483 c 0
 831 365 793 273 721 213 c 0
 676 176 617 154 565 154 c 0
 511 154 480 173 475 208 c 1
 443 171 405 154 350 154 c 0
 268 154 217 207 217 292 c 0
 217 445 333 577 468 577 c 0
 521 577 552 560 574 519 c 1
 591 573 l 1
 688 573 l 1
468 465 m 0
 401 465 341 400 341 328 c 0
 341 285 365 260 406 260 c 0
 470 260 528 326 528 398 c 0
 528 441 506 465 468 465 c 0
EndSplineSet
EndChar
StartChar: A
Encoding: 65 65 34
Width: 740
Flags: W
HStem: 0 21G<7 158 582 733> 191 132<350 538> 719 20G<452 560>
DStem: 452 739 275 191 7 0 158 0 538 191 560 739 582 0 733 0
Fore
7 0 m 1
 452 739 l 1
 560 739 l 1
 733 0 l 1
 582 0 l 1
 538 191 l 1
 275 191 l 1
 158 0 l 1
 7 0 l 1
350 323 m 1
 508 323 l 1
 470 546 l 1
 350 323 l 1
EndSplineSet
KernsSLIF: 121 -47 0 0 119 -43 0 0 118 -45 0 0 117 -16 0 0 116 -13 0 0 39 -79 0 0 186 -78 0 0 113 -23 0 0 46 16 0 0 111 -25 0 0 45 -24 0 0 172 -22 0 0 171 -22 0 0 103 -23 0 0 101 -25 0 0 100 -22 0 0 44 14 0 0 332 -25 0 0 99 -25 0 0 98 -8 0 0 97 -22 0 0 89 -86 0 0 87 -58 0 0 86 -78 0 0 300 -34 0 0 298 -34 0 0 301 -34 0 0 299 -34 0 0 85 -34 0 0 84 -47 0 0 81 -38 0 0 286 -38 0 0 79 -38 0 0 71 -38 0 0 264 -38 0 0 67 -39 0 0
EndChar
StartChar: B
Encoding: 66 66 35
Width: 580
Flags: W
HStem: 0 21G<68 265> 607 132<205 389>
VStem: 453 140<241 264> 467 140<549 580>
DStem: 205 739 317 607 68 0 289 454 205 739 264 320 68 0 229 132
Fore
68 0 m 1xe0
 205 739 l 1
 358 739 l 2
 470 739 510 732 549 704 c 0
 587 676 607 633 607 580 c 0xd0
 607 535 592 490 567 456 c 0
 549 432 532 419 497 403 c 1
 567 373 593 334 593 264 c 0
 593 194 561 123 507 75 c 0
 450 24 374 0 265 0 c 2
 68 0 l 1xe0
229 132 m 1
 297 132 l 2
 367 132 400 142 426 172 c 0
 444 192 453 216 453 241 c 0xe0
 453 297 416 320 329 320 c 2
 264 320 l 1
 229 132 l 1
289 454 m 1
 333 454 l 2
 387 454 426 465 444 485 c 0
 457 500 467 528 467 549 c 0xd0
 467 587 434 607 373 607 c 2
 317 607 l 1
 289 454 l 1
EndSplineSet
KernsSLIF: 89 -45 0 0 87 -16 0 0 86 -34 0 0 234 -3 0 0 261 -24 0 0 262 -24 0 0 256 -24 0 0 259 -24 0 0 257 -24 0 0 225 -42 0 0 65 -24 0 0
EndChar
StartChar: C
Encoding: 67 67 36
Width: 780
Flags: W
HStem: -13 132<415 439> 620 132<523 550>
VStem: 92 140<303 329>
Fore
637 206 m 1
 798 206 l 1
 718 73 567 -13 415 -13 c 0
 314 -13 229 22 171 88 c 0
 122 143 92 225 92 303 c 0
 92 535 313 752 548 752 c 0
 638 752 720 722 779 667 c 0
 820 629 840 593 858 527 c 1
 704 527 l 1
 687 556 677 568 661 581 c 0
 630 605 580 620 528 620 c 0
 434 620 349 575 290 495 c 0
 253 445 232 383 232 327 c 0
 232 206 318 119 437 119 c 0
 509 119 562 142 637 206 c 1
EndSplineSet
KernsSLIF: 286 -9 0 0 287 -9 0 0 79 -9 0 0 75 2 0 0 72 2 0 0 262 -21 0 0 256 -21 0 0 257 -21 0 0 225 -45 0 0 65 -21 0 0
EndChar
StartChar: D
Encoding: 68 68 37
Width: 700
Flags: W
HStem: 0 21G<68 240> 608 131<205 389>
VStem: 594 140<421 452>
DStem: 205 739 318 608 68 0 229 131
Fore
68 0 m 1
 205 739 l 1
 374 739 l 2
 487 739 572 721 624 686 c 0
 694 639 734 554 734 452 c 0
 734 304 658 153 545 74 c 0
 469 21 382 0 240 0 c 2
 68 0 l 1
229 131 m 1
 259 131 l 2
 382 131 453 154 509 212 c 0
 564 269 594 343 594 421 c 0
 594 493 566 548 515 578 c 0
 477 600 432 608 345 608 c 2
 318 608 l 1
 229 131 l 1
EndSplineSet
KernsSLIF: 89 -53 0 0 88 -38 0 0 87 -22 0 0 86 -41 0 0 84 -29 0 0 74 -22 0 0 261 -44 0 0 262 -44 0 0 258 -44 0 0 256 -44 0 0 259 -44 0 0 257 -44 0 0 65 -44 0 0
EndChar
StartChar: E
Encoding: 69 69 38
Width: 520
Flags: W
HStem: 0 132<229 465> 303 132<285 510> 607 132<205 578>
DStem: 205 739 318 607 68 0 285 435 205 739 261 303 68 0 229 132
Fore
68 0 m 1
 205 739 l 1
 602 739 l 1
 578 607 l 1
 318 607 l 1
 285 435 l 1
 534 435 l 1
 510 303 l 1
 261 303 l 1
 229 132 l 1
 489 132 l 1
 465 0 l 1
 68 0 l 1
EndSplineSet
EndChar
StartChar: F
Encoding: 70 70 39
Width: 480
Flags: W
HStem: 0 21G<68 205> 303 132<285 489> 607 132<205 557>
DStem: 205 739 318 607 68 0 285 435 205 739 261 303 68 0 205 0
Fore
68 0 m 1
 205 739 l 1
 581 739 l 1
 557 607 l 1
 318 607 l 1
 285 435 l 1
 513 435 l 1
 489 303 l 1
 261 303 l 1
 205 0 l 1
 68 0 l 1
EndSplineSet
KernsSLIF: 117 -21 0 0 114 -17 0 0 46 -63 0 0 249 -16 0 0 250 -14 0 0 351 -14 0 0 352 -14 0 0 111 -14 0 0 106 -27 0 0 105 -17 0 0 45 -3 0 0 335 -14 0 0 101 -14 0 0 44 -64 0 0 328 -14 0 0 241 -14 0 0 322 -14 0 0 323 -14 0 0 97 -14 0 0 286 -10 0 0 79 -10 0 0 74 -61 0 0 261 -57 0 0 262 -57 0 0 258 -57 0 0 256 -57 0 0 259 -57 0 0 257 -57 0 0 65 -57 0 0
EndChar
StartChar: G
Encoding: 71 71 40
Width: 840
Flags: W
HStem: -13 132<426 460> 249 128<405 688> 620 132<535 561>
VStem: 91 140<300 326>
Fore
382 249 m 1
 406 377 l 1
 888 377 l 1
 880 299 842 219 778 147 c 0
 687 44 564 -13 430 -13 c 0
 231 -13 91 117 91 300 c 0
 91 537 314 752 559 752 c 0
 658 752 748 716 808 653 c 0
 848 611 870 569 878 522 c 1
 717 522 l 1
 695 558 681 572 654 588 c 0
 617 610 582 620 537 620 c 0
 437 620 350 577 293 499 c 0
 254 446 231 380 231 324 c 0
 231 270 254 213 289 177 c 0
 327 139 382 119 448 119 c 0
 544 119 634 168 688 249 c 1
 382 249 l 1
EndSplineSet
KernsSLIF: 89 -50 0 0 87 -20 0 0 86 -38 0 0 84 -25 0 0 261 -38 0 0 262 -38 0 0 258 -38 0 0 256 -38 0 0 259 -38 0 0 257 -38 0 0 225 -65 0 0 65 -38 0 0
EndChar
StartChar: H
Encoding: 72 72 41
Width: 680
Flags: W
HStem: 0 21G<68 205 469 606> 310 132<287 526> 719 20G<205 342 606 743>
DStem: 205 739 342 739 68 0 287 442 205 739 262 310 68 0 205 0 526 310 743 739 469 0 606 0 606 739 743 739 551 442 606 0
Fore
68 0 m 1
 205 739 l 1
 342 739 l 1
 287 442 l 1
 551 442 l 1
 606 739 l 1
 743 739 l 1
 606 0 l 1
 469 0 l 1
 526 310 l 1
 262 310 l 1
 205 0 l 1
 68 0 l 1
EndSplineSet
EndChar
StartChar: I
Encoding: 73 73 42
Width: 280
Flags: W
HStem: 0 21G<68 205> 719 20G<205 342>
DStem: 205 739 342 739 68 0 205 0
Fore
68 0 m 1
 205 739 l 1
 342 739 l 1
 205 0 l 1
 68 0 l 1
EndSplineSet
EndChar
StartChar: J
Encoding: 74 74 43
Width: 480
Flags: W
HStem: -13 132<212 235> 719 20G<414 551>
DStem: 414 739 551 739 317 216 453 212
Fore
414 739 m 1
 551 739 l 1
 453 212 l 1
 440 145 420 100 383 62 c 0
 336 13 278 -13 212 -13 c 0
 110 -13 38 50 38 140 c 0
 38 149 39 161 40 175 c 1
 177 175 l 1
 178 168 l 2
 183 134 200 119 233 119 c 0
 278 119 305 150 317 216 c 1
 414 739 l 1
EndSplineSet
KernsSLIF: 262 -31 0 0 256 -31 0 0 225 -45 0 0 65 -31 0 0
EndChar
StartChar: K
Encoding: 75 75 44
Width: 620
Flags: W
HStem: 0 21G<68 205 435 599> 719 20G<205 342 572 736>
DStem: 205 739 342 739 68 0 283 420 205 739 265 325 68 0 205 0
Fore
68 0 m 1
 205 739 l 1
 342 739 l 1
 283 420 l 1
 572 739 l 1
 736 739 l 1
 392 376 l 1
 599 0 l 1
 435 0 l 1
 265 325 l 1
 205 0 l 1
 68 0 l 1
EndSplineSet
KernsSLIF: 121 -65 0 0 362 -48 0 0 117 -50 0 0 351 -60 0 0 352 -60 0 0 111 -60 0 0 45 -75 0 0 101 -60 0 0 328 -57 0 0 241 -59 0 0 322 -57 0 0 97 -57 0 0 84 16 0 0 83 -34 0 0 286 -49 0 0 287 -49 0 0 234 -52 0 0 79 -49 0 0 71 -50 0 0 67 -50 0 0
EndChar
StartChar: L
Encoding: 76 76 45
Width: 440
Flags: W
HStem: 0 132<229 432> 719 20G<205 342>
DStem: 205 739 342 739 68 0 229 132
Fore
68 0 m 1
 205 739 l 1
 342 739 l 1
 229 132 l 1
 456 132 l 1
 432 0 l 1
 68 0 l 1
EndSplineSet
KernsSLIF: 121 -50 0 0 362 -11 0 0 117 -11 0 0 39 -77 0 0 186 -76 0 0 45 -32 0 0 89 -84 0 0 87 -56 0 0 86 -76 0 0 298 -20 0 0 85 -20 0 0 84 -46 0 0 83 10 0 0 290 -29 0 0 288 -29 0 0 286 -29 0 0 289 -29 0 0 287 -29 0 0 79 -29 0 0 71 -29 0 0 264 -32 0 0 67 -29 0 0 262 19 0 0 256 19 0 0 257 19 0 0 225 14 0 0 65 19 0 0
EndChar
StartChar: M
Encoding: 77 77 46
Width: 900
Flags: W
HStem: 0 21G<68 205 398 510 703 840> 719 20G<205 393 789 977>
DStem: 205 739 308 554 68 0 205 0 308 554 393 739 398 0 488 179 789 739 806 554 488 179 510 0 806 554 977 739 703 0 840 0
Fore
68 0 m 1
 205 739 l 1
 393 739 l 1
 488 179 l 1
 789 739 l 1
 977 739 l 1
 840 0 l 1
 703 0 l 1
 806 554 l 1
 510 0 l 1
 398 0 l 1
 308 554 l 1
 205 0 l 1
 68 0 l 1
EndSplineSet
EndChar
StartChar: N
Encoding: 78 78 47
Width: 740
Flags: W
HStem: 0 21G<68 205 514 667> 719 20G<205 361 667 804>
DStem: 205 739 305 537 68 0 205 0 305 537 361 739 514 0 567 201 667 739 804 739 567 201 667 0
Fore
68 0 m 1
 205 739 l 1
 361 739 l 1
 567 201 l 1
 667 739 l 1
 804 739 l 1
 667 0 l 1
 514 0 l 1
 305 537 l 1
 205 0 l 1
 68 0 l 1
EndSplineSet
KernsSLIF: 362 3 0 0 117 3 0 0 46 4 0 0 249 -4 0 0 351 -5 0 0 352 -5 0 0 111 -5 0 0 335 -5 0 0 101 -5 0 0 44 3 0 0 328 -3 0 0 241 -4 0 0 322 -3 0 0 323 -3 0 0 97 -3 0 0 286 -1 0 0 287 -1 0 0 79 -1 0 0 71 -1 0 0 264 -1 0 0 67 -2 0 0 262 -13 0 0 256 -13 0 0 257 -13 0 0 225 -18 0 0 65 -13 0 0
EndChar
StartChar: O
Encoding: 79 79 48
Width: 840
Flags: W
HStem: -13 132<416 444> 620 132<530 559>
VStem: 91 140<300 325> 735 140<417 441>
Fore
559 752 m 0
 743 752 875 622 875 439 c 0
 875 201 658 -13 416 -13 c 0
 227 -13 91 118 91 300 c 0
 91 401 137 513 212 595 c 0
 305 696 429 752 559 752 c 0
532 620 m 0
 439 620 356 578 297 501 c 0
 256 448 231 381 231 323 c 0
 231 204 318 119 440 119 c 0
 531 119 615 162 672 238 c 0
 711 290 735 359 735 419 c 0
 735 536 650 620 532 620 c 0
EndSplineSet
KernsSLIF: 89 -54 0 0 88 -39 0 0 87 -23 0 0 86 -42 0 0 84 -30 0 0 262 -44 0 0 256 -44 0 0 257 -44 0 0 225 -75 0 0 65 -44 0 0
EndChar
StartChar: P
Encoding: 80 80 49
Width: 560
Flags: W
HStem: 0 21G<68 205> 607 132<205 405>
VStem: 499 140<529 562>
DStem: 205 739 318 607 68 0 281 412 205 739 257 281 68 0 205 0
Fore
68 0 m 1
 205 739 l 1
 388 739 l 2
 484 739 535 730 570 705 c 0
 615 674 639 624 639 562 c 0
 639 486 604 403 551 352 c 0
 512 315 466 294 407 285 c 0
 384 282 357 281 301 281 c 2
 257 281 l 1
 205 0 l 1
 68 0 l 1
281 412 m 1
 321 412 l 2
 358 412 394 416 418 422 c 0
 466 435 499 478 499 529 c 0
 499 562 486 585 459 597 c 0
 442 604 413 607 364 607 c 2
 318 607 l 1
 281 412 l 1
EndSplineSet
KernsSLIF: 46 -98 0 0 249 -27 0 0 250 -24 0 0 351 -26 0 0 352 -26 0 0 111 -26 0 0 45 -28 0 0 335 -25 0 0 101 -25 0 0 44 -98 0 0 328 -24 0 0 241 -25 0 0 322 -24 0 0 323 -24 0 0 97 -24 0 0 74 -71 0 0 262 -64 0 0 256 -64 0 0 257 -64 0 0 225 -112 0 0 65 -64 0 0
EndChar
StartChar: Q
Encoding: 81 81 50
Width: 840
Flags: W
HStem: -15 122<801 825> -13 132<423 450> 235 112<314 353> 620 132<534 561>
VStem: 749 140<416 445>
Fore
848 110 m 1xb8
 825 -14 l 1
 815 -15 807 -15 801 -15 c 0xb8
 770 -15 726 -6 701 6 c 0
 685 13 673 22 643 45 c 1
 570 5 502 -13 425 -13 c 0x78
 233 -13 91 120 91 299 c 0
 91 539 313 752 561 752 c 0
 756 752 889 628 889 445 c 0
 889 319 840 208 749 129 c 1
 772 114 795 107 818 107 c 0
 828 107 835 108 848 110 c 1xb8
544 138 m 1
 511 171 484 189 437 211 c 0
 401 228 370 235 325 235 c 0
 299 235 284 233 252 227 c 1
 294 154 358 119 448 119 c 0x78
 485 119 508 124 544 138 c 1
654 204 m 1
 713 252 749 332 749 418 c 0
 749 538 663 620 536 620 c 0
 433 620 332 564 276 476 c 0
 248 432 235 393 230 334 c 1
 264 343 300 347 353 347 c 0
 428 347 492 327 569 279 c 0
 599 260 621 241 654 204 c 1
EndSplineSet
EndChar
StartChar: R
Encoding: 82 82 51
Width: 580
Flags: W
HStem: 0 21G<68 205 399 568> 607 132<205 405>
VStem: 517 140<521 553>
DStem: 205 739 318 607 68 0 277 386 205 739 257 283 68 0 205 0
Fore
68 0 m 1
 205 739 l 1
 418 739 l 2
 517 739 570 724 608 683 c 0
 641 649 657 605 657 553 c 0
 657 480 629 409 581 359 c 0
 540 316 493 291 419 273 c 1
 568 0 l 1
 399 0 l 1
 257 283 l 1
 205 0 l 1
 68 0 l 1
277 386 m 1
 344 386 l 2
 419 386 455 398 483 431 c 0
 503 454 517 491 517 521 c 0
 517 551 504 577 483 590 c 0
 464 601 430 607 379 607 c 2
 318 607 l 1
 277 386 l 1
EndSplineSet
KernsSLIF: 121 7 0 0 362 1 0 0 363 1 0 0 117 1 0 0 250 -9 0 0 351 -10 0 0 352 -10 0 0 111 -10 0 0 45 -22 0 0 335 -9 0 0 101 -9 0 0 328 -7 0 0 241 -8 0 0 322 -7 0 0 323 -7 0 0 97 -7 0 0 89 -26 0 0 87 -9 0 0 86 -21 0 0 298 2 0 0 85 2 0 0 84 4 0 0 234 -4 0 0 71 -1 0 0 67 -1 0 0
EndChar
StartChar: S
Encoding: 83 83 52
Width: 520
Flags: W
HStem: -13 132<256 278> 620 132<368 392>
VStem: 49 144<171 196> 137 140<506 529> 398 140<227 265> 434 145<542 589>
Fore
51 211 m 1xe8
 194 211 l 1
 193 203 193 196 193 190 c 0
 193 146 225 119 278 119 c 0
 344 119 398 167 398 227 c 0xe8
 398 250 390 271 376 284 c 0
 357 300 352 303 258 341 c 0
 175 374 137 426 137 506 c 0
 137 635 258 752 392 752 c 0
 499 752 579 682 579 589 c 0
 579 577 578 561 575 542 c 1
 434 542 l 1
 434 573 433 579 427 591 c 0
 418 609 395 620 368 620 c 0
 318 620 277 579 277 529 c 0xd4
 277 511 289 491 307 478 c 0
 320 469 326 466 383 445 c 0
 493 404 538 352 538 265 c 0
 538 120 403 -13 256 -13 c 0
 199 -13 139 7 105 38 c 0
 71 69 49 122 49 171 c 0
 49 182 50 195 51 211 c 1xe8
EndSplineSet
KernsSLIF: 116 10 0 0 89 -33 0 0 87 -10 0 0 86 -28 0 0 84 -3 0 0 262 -19 0 0 256 -19 0 0 257 -19 0 0 225 -35 0 0 65 -19 0 0
EndChar
StartChar: T
Encoding: 84 84 53
Width: 420
Flags: W
HStem: 0 21G<142 279> 607 132<142 255 143 531>
DStem: 255 607 392 607 142 0 279 0
Fore
142 0 m 1
 255 607 l 1
 119 607 l 1
 143 739 l 1
 555 739 l 1
 531 607 l 1
 392 607 l 1
 279 0 l 1
 142 0 l 1
EndSplineSet
KernsSLIF: 121 -50 0 0 119 -51 0 0 118 -48 0 0 117 -30 0 0 59 -37 0 0 115 -30 0 0 114 -25 0 0 46 -29 0 0 249 -39 0 0 111 -40 0 0 106 -11 0 0 105 -2 0 0 45 -33 0 0 172 -33 0 0 171 -33 0 0 103 -36 0 0 101 -40 0 0 44 -30 0 0 58 -37 0 0 99 -41 0 0 241 -39 0 0 97 -38 0 0 89 24 0 0 87 23 0 0 86 22 0 0 83 1 0 0 290 -27 0 0 233 -25 0 0 288 -27 0 0 286 -27 0 0 289 -27 0 0 287 -27 0 0 234 -30 0 0 79 -27 0 0 74 -46 0 0 71 -27 0 0 67 -27 0 0 261 -47 0 0 262 -47 0 0 258 -47 0 0 256 -47 0 0 259 -47 0 0 257 -47 0 0 225 -52 0 0 65 -47 0 0
EndChar
StartChar: U
Encoding: 85 85 54
Width: 640
Flags: W
HStem: -13 132<315 339> 719 20G<205 342 567 704>
VStem: 109 138<176 203>
DStem: 205 739 342 739 119 271 256 271 567 739 704 739 481 271 618 271
Fore
205 739 m 1
 342 739 l 1
 256 271 l 2
 250 239 247 215 247 201 c 0
 247 156 289 119 339 119 c 0
 379 119 418 138 443 169 c 0
 461 192 472 220 481 271 c 1
 567 739 l 1
 704 739 l 1
 618 271 l 1
 603 188 576 128 533 82 c 0
 478 24 394 -13 315 -13 c 0
 196 -13 109 67 109 176 c 0
 109 203 112 235 119 271 c 1
 205 739 l 1
EndSplineSet
KernsSLIF: 114 2 0 0 46 -12 0 0 112 1 0 0 110 2 0 0 109 2 0 0 44 -15 0 0 261 -37 0 0 262 -37 0 0 256 -37 0 0 259 -37 0 0 257 -37 0 0 225 -59 0 0 65 -37 0 0
EndChar
StartChar: V
Encoding: 86 86 55
Width: 700
Flags: W
HStem: 0 21G<296 408> 719 20G<145 289 687 831>
Fore
296 0 m 1
 145 739 l 1
 289 739 l 1
 384 177 l 1
 687 739 l 1
 831 739 l 1
 408 0 l 1
 296 0 l 1
EndSplineSet
KernsSLIF: 121 -20 0 0 117 -44 0 0 59 -57 0 0 114 -41 0 0 46 -83 0 0 249 -61 0 0 111 -62 0 0 105 -4 0 0 45 -54 0 0 172 -54 0 0 171 -54 0 0 103 -58 0 0 101 -62 0 0 44 -83 0 0 58 -57 0 0 241 -61 0 0 97 -59 0 0 84 23 0 0 83 -25 0 0 290 -41 0 0 233 -39 0 0 288 -41 0 0 286 -41 0 0 289 -41 0 0 287 -41 0 0 79 -41 0 0 71 -41 0 0 67 -41 0 0 261 -76 0 0 262 -76 0 0 258 -76 0 0 256 -76 0 0 259 -76 0 0 257 -76 0 0 225 -123 0 0 65 -76 0 0
EndChar
StartChar: W
Encoding: 87 87 56
Width: 900
Flags: W
HStem: 0 21G<224 332 573 682> 719 20G<144 284 540 640 895 1035>
DStem: 540 739 545 489 318 223 332 0 545 489 640 739 573 0 668 223
Fore
224 0 m 1
 144 739 l 1
 284 739 l 1
 318 223 l 1
 540 739 l 1
 640 739 l 1
 668 223 l 1
 895 739 l 1
 1035 739 l 1
 682 0 l 1
 573 0 l 1
 545 489 l 1
 332 0 l 1
 224 0 l 1
EndSplineSet
KernsSLIF: 121 -9 0 0 117 -28 0 0 59 -39 0 0 114 -22 0 0 46 -51 0 0 249 -37 0 0 111 -38 0 0 105 -2 0 0 45 -31 0 0 172 -31 0 0 171 -31 0 0 103 -34 0 0 101 -38 0 0 44 -52 0 0 58 -38 0 0 241 -37 0 0 97 -36 0 0 84 25 0 0 83 -10 0 0 290 -21 0 0 233 -19 0 0 288 -21 0 0 286 -21 0 0 289 -21 0 0 287 -21 0 0 79 -21 0 0 71 -22 0 0 67 -22 0 0 261 -55 0 0 262 -55 0 0 258 -55 0 0 256 -55 0 0 259 -55 0 0 257 -55 0 0 225 -90 0 0 65 -55 0 0
EndChar
StartChar: X
Encoding: 88 88 57
Width: 680
Flags: W
HStem: 0 21G<5 168 517 676> 719 20G<142 305 654 813>
DStem: 142 739 305 739 327 368 429 481 327 368 387 255 5 0 168 0 387 255 488 368 517 0 676 0 654 739 813 739 429 481 488 368
Fore
5 0 m 1
 327 368 l 1
 142 739 l 1
 305 739 l 1
 429 481 l 1
 654 739 l 1
 813 739 l 1
 488 368 l 1
 676 0 l 1
 517 0 l 1
 387 255 l 1
 168 0 l 1
 5 0 l 1
EndSplineSet
KernsSLIF: 121 -49 0 0 117 -36 0 0 111 -46 0 0 45 -61 0 0 101 -46 0 0 97 -43 0 0 81 -35 0 0 286 -35 0 0 79 -35 0 0 67 -36 0 0
EndChar
StartChar: Y
Encoding: 89 89 58
Width: 620
Flags: W
HStem: 0 21G<246 383> 719 20G<140 288 615 763>
DStem: 297 273 434 273 246 0 383 0
Fore
246 0 m 1
 297 273 l 1
 140 739 l 1
 288 739 l 1
 388 399 l 1
 615 739 l 1
 763 739 l 1
 434 273 l 1
 383 0 l 1
 246 0 l 1
EndSplineSet
MinimumDistance: x2,6 
KernsSLIF: 118 -25 0 0 117 -52 0 0 59 -67 0 0 46 -77 0 0 112 -47 0 0 249 -69 0 0 111 -71 0 0 105 1 0 0 45 -73 0 0 172 -69 0 0 171 -69 0 0 103 -66 0 0 101 -70 0 0 44 -78 0 0 58 -67 0 0 241 -69 0 0 97 -68 0 0 84 29 0 0 83 -27 0 0 290 -48 0 0 233 -46 0 0 288 -48 0 0 286 -48 0 0 289 -48 0 0 287 -48 0 0 79 -48 0 0 71 -48 0 0 67 -49 0 0 261 -81 0 0 262 -81 0 0 258 -81 0 0 256 -81 0 0 259 -81 0 0 257 -81 0 0 225 -100 0 0 65 -81 0 0
EndChar
StartChar: Z
Encoding: 90 90 59
Width: 500
Flags: W
HStem: 0 132<207 480> 607 132<169 411>
DStem: 411 607 575 615 39 117 207 132
Fore
39 117 m 1
 411 607 l 1
 146 607 l 1
 170 739 l 1
 598 739 l 1
 575 615 l 1
 207 132 l 1
 504 132 l 1
 480 0 l 1
 18 0 l 1
 39 117 l 1
EndSplineSet
KernsSLIF: 121 -20 0 0 118 -17 0 0
EndChar
StartChar: bracketleft
Encoding: 91 91 60
Width: 320
Flags: W
DStem: 159 446 289 419 111 187 241 164
Fore
429 739 m 1
 402 592 l 1
 335 566 308 525 289 419 c 1
 241 164 l 1
 238 146 236 128 236 108 c 0
 236 55 250 31 294 10 c 1
 267 -137 l 1
 212 -124 184 -108 151 -70 c 0
 116 -29 100 16 100 73 c 0
 100 109 104 148 111 187 c 1
 159 446 l 1
 186 600 281 703 429 739 c 1
EndSplineSet
EndChar
StartChar: backslash
Encoding: 92 92 61
Width: 640
Flags: W
HStem: 0 21G<407 503> 719 20G<221 317>
DStem: 221 739 317 739 407 0 503 0
Fore
503 0 m 1
 407 0 l 1
 221 739 l 1
 317 739 l 1
 503 0 l 1
EndSplineSet
EndChar
StartChar: bracketright
Encoding: 93 93 62
Width: 320
Flags: W
DStem: 205 438 335 415 157 183 287 156
Fore
13 -137 m 1
 40 10 l 1
 110 33 137 74 157 183 c 1
 205 438 l 1
 208 456 210 474 210 494 c 0
 210 549 196 571 148 592 c 1
 175 739 l 1
 234 728 263 711 296 672 c 0
 330 632 346 585 346 529 c 0
 346 493 342 454 335 415 c 1
 287 156 l 1
 259 -1 163 -104 13 -137 c 1
EndSplineSet
EndChar
StartChar: asciicircum
Encoding: 94 94 63
Width: 600
Flags: W
HStem: 730 20G<375 496>
DStem: 375 750 412 595 130 379 228 324 412 595 496 750 495 325 610 358
Fore
375 750 m 1
 496 750 l 1
 610 358 l 1
 495 325 l 1
 412 595 l 1
 228 324 l 1
 130 379 l 1
 375 750 l 1
EndSplineSet
EndChar
StartChar: underscore
Encoding: 95 95 64
Width: 500
Flags: W
HStem: -138 90<-11 475>
Fore
-10 -48 m 1
 491 -48 l 1
 475 -138 l 1
 -26 -138 l 1
 -10 -48 l 1
EndSplineSet
EndChar
StartChar: quoteleft
Encoding: 96 8216 65
Width: 280
Flags: W
DStem: 187 606 316 594 161 466 292 466
Fore
316 594 m 1
 292 466 l 1
 161 466 l 1
 187 606 l 1
 196 684 260 738 343 739 c 1
 330 672 l 1
 280 661 263 642 258 594 c 1
 316 594 l 1
EndSplineSet
KernsSLIF: 89 -4 1 0 87 13 1 0 86 4 1 0 262 -78 1 0 256 -78 1 0 257 -78 1 0 225 -150 1 0 65 -78 1 0
EndChar
StartChar: a
Encoding: 97 97 66
Width: 660
Flags: W
HStem: -13 122<307 347> 445 122<394 428>
VStem: 75 137<213 240>
Fore
718 554 m 1
 616 0 l 1
 494 0 l 1
 507 72 l 1
 445 13 385 -13 307 -13 c 0
 167 -13 75 77 75 213 c 0
 75 406 232 567 420 567 c 0
 498 567 551 539 583 480 c 1
 596 554 l 1
 718 554 l 1
410 445 m 0
 304 445 212 350 212 240 c 0
 212 160 265 109 347 109 c 0
 416 109 469 137 507 191 c 0
 530 226 544 271 544 313 c 0
 544 394 492 445 410 445 c 0
EndSplineSet
KernsSLIF: 121 -7 0 0 119 -5 0 0 118 -4 0 0 39 7 0 0 106 8 0 0
EndChar
StartChar: b
Encoding: 98 98 67
Width: 660
Flags: W
HStem: -13 122<357 375> 452 122<425 470> 719 20G<191 324>
VStem: 558 137<314 343>
DStem: 191 739 324 739 54 0 280 503
Fore
54 0 m 1
 191 739 l 1
 324 739 l 1
 280 503 l 1
 307 525 319 534 334 542 c 0
 370 562 422 574 470 574 c 0
 601 574 695 478 695 343 c 0
 695 266 666 181 618 118 c 0
 552 33 465 -13 369 -13 c 0
 323 -13 275 -2 246 16 c 0
 227 27 214 40 189 71 c 1
 176 0 l 1
 54 0 l 1
425 452 m 0
 316 452 227 357 227 241 c 0
 227 163 282 109 362 109 c 0
 469 109 558 202 558 314 c 0
 558 398 506 452 425 452 c 0
EndSplineSet
KernsSLIF: 121 -23 0 0 119 -17 0 0 118 -18 0 0
EndChar
StartChar: c
Encoding: 99 99 68
Width: 640
Flags: W
HStem: -13 122<324 350> 445 122<405 427>
VStem: 77 137<223 247>
Fore
485 182 m 1
 635 182 l 1
 564 57 453 -13 324 -13 c 0
 182 -13 77 88 77 223 c 0
 77 404 243 567 427 567 c 0
 502 567 572 538 617 489 c 0
 647 457 660 428 670 369 c 1
 520 369 l 1
 505 418 465 445 407 445 c 0
 302 445 214 354 214 245 c 0
 214 163 266 109 345 109 c 0
 399 109 451 136 485 182 c 1
EndSplineSet
KernsSLIF: 107 -11 0 0 104 -11 0 0
EndChar
StartChar: d
Encoding: 100 100 69
Width: 660
Flags: W
HStem: -13 122<306 351> 452 122<395 429> 719 20G<617 750>
VStem: 76 137<220 248>
DStem: 617 739 750 739 574 505 613 0
Fore
750 739 m 1
 613 0 l 1
 491 0 l 1
 505 72 l 1
 443 14 380 -13 306 -13 c 0
 168 -13 76 80 76 220 c 0
 76 408 236 574 416 574 c 0
 484 574 544 548 574 505 c 1
 617 739 l 1
 750 739 l 1
413 452 m 0
 305 452 213 358 213 248 c 0
 213 166 269 109 351 109 c 0
 453 109 546 207 546 314 c 0
 546 397 493 452 413 452 c 0
EndSplineSet
EndChar
StartChar: e
Encoding: 101 101 70
Width: 640
Flags: W
HStem: -13 122<326 348> 218 118<234 645> 445 122<405 430>
VStem: 76 140<210 223>
CounterMasks: 1 00
Fore
645 218 m 1
 216 218 l 1
 216 154 270 109 346 109 c 0
 402 109 443 126 481 164 c 1
 626 164 l 1
 566 54 452 -13 327 -13 c 0
 179 -13 76 84 76 223 c 0
 76 404 243 567 428 567 c 0
 567 567 665 474 665 342 c 0
 665 294 658 249 645 218 c 1
234 336 m 1
 541 336 l 1
 537 408 492 445 407 445 c 0
 330 445 260 401 234 336 c 1
EndSplineSet
KernsSLIF: 121 -30 0 0 120 -27 0 0 119 -24 0 0 118 -25 0 0 116 -2 0 0 39 -17 0 0
EndChar
StartChar: f
Encoding: 102 102 71
Width: 280
Flags: W
HStem: 0 21G<57 190> 611 128<360 389>
DStem: 137 433 270 433 57 0 190 0
Fore
57 0 m 1
 137 433 l 1
 89 433 l 1
 110 544 l 1
 158 544 l 1
 175 609 193 643 226 676 c 0
 268 718 318 739 374 739 c 0
 383 739 391 739 413 737 c 1
 389 611 l 1
 382 611 l 1
 371 611 l 2
 322 611 297 590 291 544 c 1
 369 544 l 1
 348 433 l 1
 270 433 l 1
 190 0 l 1
 57 0 l 1
EndSplineSet
KernsSLIF: 116 11 0 0 115 -2 0 0 39 10 0 0 249 -11 0 0 250 -12 0 0 351 -13 0 0 352 -13 0 0 111 -13 0 0 108 3 0 0 106 -6 0 0 105 3 0 0 102 11 0 0 335 -12 0 0 101 -12 0 0 328 -10 0 0 241 -11 0 0 322 -10 0 0 323 -10 0 0 97 -10 0 0
EndChar
StartChar: g
Encoding: 103 103 72
Width: 660
Flags: W
HStem: -221 117<282 312> -13 122<301 341> 445 122<397 415>
VStem: 76 137<215 244>
Fore
587 554 m 1
 714 554 l 1
 631 105 l 1
 612 0 582 -68 532 -120 c 0
 467 -187 384 -221 282 -221 c 0
 146 -221 62 -162 30 -45 c 1
 181 -45 l 1
 211 -87 247 -104 310 -104 c 0
 373 -104 424 -78 458 -28 c 0
 476 -2 485 21 498 73 c 1
 434 11 379 -13 301 -13 c 0
 164 -13 76 77 76 217 c 0
 76 407 229 567 411 567 c 0
 488 567 536 543 574 484 c 1
 587 554 l 1
403 445 m 0
 293 445 213 356 213 233 c 0
 213 156 261 109 341 109 c 0
 403 109 458 137 492 185 c 0
 517 221 534 273 534 315 c 0
 534 393 482 445 403 445 c 0
EndSplineSet
KernsSLIF: 114 14 0 0 108 14 0 0 328 2 0 0 241 1 0 0 322 2 0 0 97 2 0 0
EndChar
StartChar: h
Encoding: 104 104 73
Width: 600
Flags: W
HStem: 0 21G<54 187 412 545> 446 122<386 432> 719 20G<191 324>
VStem: 473 140<364 408>
DStem: 191 739 324 739 54 0 283 516 191 739 239 281 54 0 187 0 464 283 603 313 412 0 545 0
Fore
54 0 m 1
 191 739 l 1
 324 739 l 1
 283 516 l 5
 325 551 375 568 432 568 c 4
 542 568 613 505 613 408 c 4
 613 381 610 349 603 313 c 5
 545 0 l 5
 412 0 l 5
 464 283 l 6
 470 315 473 343 473 364 c 4
 473 416 441 446 386 446 c 4
 342 446 304 427 278 393 c 4
 261 369 249 336 239 281 c 6
 187 0 l 1
 54 0 l 1
EndSplineSet
KernsSLIF: 121 -23 0 0 39 -11 0 0
EndChar
StartChar: i
Encoding: 105 105 74
Width: 240
Flags: W
HStem: 0 21G<54 187> 534 20G<157 290> 719 20G<191 324>
DStem: 157 554 290 554 54 0 187 0
Fore
54 0 m 1
 157 554 l 1
 290 554 l 1
 187 0 l 1
 54 0 l 1
168 614 m 1
 191 739 l 1
 324 739 l 1
 301 614 l 1
 168 614 l 1
EndSplineSet
KernsSLIF: 106 3 0 0 84 -3 0 0
EndChar
StartChar: j
Encoding: 106 106 75
Width: 260
Flags: W
HStem: 534 20G<175 308> 719 20G<209 342>
DStem: 175 554 308 554 80 40 212 37
Fore
175 554 m 1
 308 554 l 1
 212 37 l 1
 189 -101 105 -182 -17 -185 c 1
 7 -56 l 1
 57 -47 67 -34 80 40 c 1
 175 554 l 1
186 614 m 1
 209 739 l 1
 342 739 l 1
 319 614 l 1
 186 614 l 1
EndSplineSet
EndChar
StartChar: k
Encoding: 107 107 76
Width: 580
Flags: W
HStem: 0 21G<54 187 376 555> 534 20G<466 625> 719 20G<191 324>
DStem: 191 739 324 739 54 0 241 293 191 739 235 259 54 0 187 0
Fore
54 0 m 1
 191 739 l 1
 324 739 l 1
 241 293 l 1
 466 554 l 1
 625 554 l 1
 377 283 l 1
 555 0 l 1
 376 0 l 1
 235 259 l 1
 187 0 l 1
 54 0 l 1
EndSplineSet
KernsSLIF: 362 -34 0 0 117 -40 0 0 115 -38 0 0 46 -14 0 0 351 -51 0 0 352 -51 0 0 111 -51 0 0 45 -78 0 0 103 -47 0 0 335 -51 0 0 101 -51 0 0 44 -15 0 0 328 -48 0 0 241 -50 0 0 322 -48 0 0 323 -48 0 0 97 -48 0 0
EndChar
StartChar: l
Encoding: 108 108 77
Width: 240
Flags: W
HStem: 0 21G<54 187> 719 20G<191 324>
DStem: 191 739 324 739 54 0 187 0
Fore
54 0 m 1
 191 739 l 1
 324 739 l 1
 187 0 l 1
 54 0 l 1
EndSplineSet
KernsSLIF: 121 -10 0 0 118 -8 0 0
EndChar
StartChar: m
Encoding: 109 109 78
Width: 940
Flags: W
HStem: 0 21G<54 187 403 536 752 885> 445 122<378 427 732 767>
VStem: 815 137<371 402>
DStem: 157 554 238 273 54 0 187 0 459 304 587 273 403 0 536 0 808 304 944 320 752 0 885 0
Fore
54 0 m 1
 157 554 l 1
 279 554 l 1
 269 502 l 1
 315 548 360 567 427 567 c 0
 468 567 501 558 529 539 c 0
 549 525 559 512 572 481 c 1
 624 539 687 567 767 567 c 0
 884 567 952 506 952 402 c 0
 952 376 949 349 944 320 c 1
 885 0 l 1
 752 0 l 1
 808 304 l 1
 813 329 815 352 815 371 c 0
 815 414 781 445 732 445 c 0
 690 445 652 426 627 392 c 0
 609 368 599 339 587 273 c 1
 536 0 l 1
 403 0 l 1
 459 304 l 1
 463 327 466 349 466 359 c 0
 466 383 463 398 456 409 c 0
 442 432 413 445 378 445 c 0
 334 445 297 425 273 388 c 0
 259 364 249 334 238 273 c 1
 187 0 l 1
 54 0 l 1
EndSplineSet
KernsSLIF: 121 -24 0 0 119 -19 0 0 118 -20 0 0 112 5 0 0
EndChar
StartChar: n
Encoding: 110 110 79
Width: 600
Flags: W
HStem: 0 21G<54 187 413 546> 445 122<388 435>
VStem: 472 141<363 403>
DStem: 157 554 235 261 54 0 187 0 463 271 601 297 413 0 546 0
Fore
54 0 m 1
 157 554 l 1
 280 554 l 1
 270 501 l 1
 331 550 374 567 435 567 c 0
 549 567 613 509 613 403 c 0
 613 375 609 341 601 297 c 2
 546 0 l 1
 413 0 l 1
 463 271 l 2
 469 304 472 334 472 363 c 0
 472 417 443 445 388 445 c 0
 347 445 311 428 282 394 c 0
 261 368 248 333 235 261 c 1
 187 0 l 1
 54 0 l 1
EndSplineSet
KernsSLIF: 121 -23 0 0 119 -18 0 0 118 -20 0 0 39 -10 0 0 112 5 0 0 84 -31 0 0
EndChar
StartChar: o
Encoding: 111 111 80
Width: 640
Flags: W
HStem: -13 122<318 345> 445 122<406 431>
VStem: 76 137<221 246> 538 137<306 327>
Fore
431 567 m 0
 573 567 675 466 675 327 c 0
 675 148 506 -13 318 -13 c 0
 181 -13 76 88 76 221 c 0
 76 404 243 567 431 567 c 0
408 445 m 0
 306 445 213 349 213 244 c 0
 213 166 269 109 345 109 c 0
 445 109 538 206 538 309 c 0
 538 387 483 445 408 445 c 0
EndSplineSet
KernsSLIF: 121 -27 0 0 120 -24 0 0 119 -20 0 0 118 -22 0 0 116 1 0 0 39 -16 0 0 84 -33 0 0
EndChar
StartChar: p
Encoding: 112 112 81
Width: 660
Flags: W
HStem: -13 122<353 373> 445 122<423 462>
VStem: 554 137<309 344>
DStem: 157 554 197 52 20 -185 153 -185
Fore
20 -185 m 1
 157 554 l 1
 279 554 l 1
 267 489 l 1
 314 538 388 567 462 567 c 0
 544 567 603 541 647 484 c 0
 678 443 691 402 691 344 c 0
 691 148 540 -13 355 -13 c 0
 287 -13 238 7 197 52 c 1
 153 -185 l 1
 20 -185 l 1
423 445 m 0
 318 445 227 350 227 241 c 0
 227 165 284 109 363 109 c 0
 419 109 477 140 513 190 c 0
 536 224 554 274 554 309 c 0
 554 338 541 379 524 401 c 0
 504 427 462 445 423 445 c 0
EndSplineSet
KernsSLIF: 121 -26 0 0 116 1 0 0
EndChar
StartChar: q
Encoding: 113 113 82
Width: 660
Flags: W
HStem: -13 122<306 346> 445 122<396 418>
VStem: 77 137<223 248>
DStem: 488 53 714 554 444 -185 577 -185
Fore
592 554 m 1
 714 554 l 1
 577 -185 l 1
 444 -185 l 1
 488 53 l 1
 440 11 374 -13 306 -13 c 0
 170 -13 77 83 77 223 c 0
 77 404 237 567 416 567 c 0
 463 567 500 556 534 534 c 0
 556 519 565 509 578 483 c 1
 592 554 l 1
410 445 m 0
 304 445 214 353 214 243 c 0
 214 161 265 109 346 109 c 0
 449 109 540 202 540 307 c 0
 540 390 488 445 410 445 c 0
EndSplineSet
KernsSLIF: 117 9 0 0
EndChar
StartChar: r
Encoding: 114 114 83
Width: 320
Flags: W
HStem: 0 21G<54 187> 534 20G<157 279>
DStem: 157 554 244 308 54 0 187 0
Fore
54 0 m 1
 157 554 l 1
 279 554 l 1
 269 500 l 1
 312 552 347 569 412 567 c 1
 388 439 l 1
 310 438 255 388 244 308 c 1
 187 0 l 1
 54 0 l 1
EndSplineSet
KernsSLIF: 122 -9 0 0 121 10 0 0 120 -1 0 0 119 8 0 0 118 12 0 0 117 -12 0 0 116 11 0 0 59 -16 0 0 115 -8 0 0 114 -10 0 0 39 10 0 0 113 -20 0 0 46 -33 0 0 112 -11 0 0 249 -26 0 0 353 -25 0 0 250 -24 0 0 351 -25 0 0 354 -25 0 0 352 -25 0 0 111 -25 0 0 110 -10 0 0 109 -10 0 0 108 -10 0 0 107 -10 0 0 106 -19 0 0 105 -9 0 0 45 -37 0 0 104 -10 0 0 103 -18 0 0 102 11 0 0 336 -25 0 0 337 -25 0 0 335 -25 0 0 101 -25 0 0 100 -21 0 0 44 -33 0 0 58 -16 0 0 332 -21 0 0 99 -25 0 0 328 -23 0 0 324 -23 0 0 241 -24 0 0 322 -23 0 0 325 -23 0 0 323 -23 0 0 97 -23 0 0
EndChar
StartChar: s
Encoding: 115 115 84
Width: 440
Flags: W
HStem: -13 122<218 247> 445 122<305 330>
VStem: 49 136<137 176> 110 137<370 390> 318 137<173 209>
Fore
51 176 m 1xe8
 185 176 l 1xe8
 186 132 208 109 247 109 c 0
 285 109 318 138 318 173 c 0
 318 199 304 210 236 234 c 0
 139 268 110 300 110 370 c 0
 110 476 211 567 330 567 c 0
 412 567 482 508 482 439 c 0
 482 429 481 416 479 401 c 1
 349 401 l 1
 348 430 333 445 305 445 c 0
 274 445 247 419 247 390 c 0xd8
 247 379 255 368 267 361 c 0
 279 354 279 354 329 338 c 0
 424 307 455 275 455 209 c 0
 455 92 343 -13 218 -13 c 0
 118 -13 49 48 49 137 c 0
 49 148 50 161 51 176 c 1xe8
EndSplineSet
KernsSLIF: 116 6 0 0 39 -3 0 0
EndChar
StartChar: t
Encoding: 116 116 85
Width: 300
Flags: W
HStem: 0 21G<74 207> 534 20G<112 177> 719 20G<211 344>
DStem: 154 433 287 433 74 0 207 0 211 739 344 739 177 554 310 554
Fore
74 0 m 1
 154 433 l 1
 89 433 l 1
 112 554 l 1
 177 554 l 1
 211 739 l 1
 344 739 l 1
 310 554 l 1
 390 554 l 1
 367 433 l 1
 287 433 l 1
 207 0 l 1
 74 0 l 1
EndSplineSet
KernsSLIF: 59 -15 0 0 39 12 0 0 351 -13 0 0 352 -13 0 0 111 -13 0 0 104 2 0 0 335 -13 0 0 101 -13 0 0 58 -14 0 0 328 -11 0 0 241 -12 0 0 322 -11 0 0 323 -11 0 0 97 -11 0 0 83 3 0 0
EndChar
StartChar: u
Encoding: 117 117 86
Width: 600
Flags: W
HStem: -13 122<260 310> 534 20G<155 288 517 650>
VStem: 88 140<152 187>
DStem: 155 554 288 554 100 257 238 283 517 554 650 554 469 293 547 0
Fore
650 554 m 1
 547 0 l 1
 424 0 l 1
 434 53 l 1
 377 6 328 -13 260 -13 c 0
 207 -13 163 3 135 31 c 0
 108 59 88 109 88 152 c 0
 88 178 92 214 100 257 c 2
 155 554 l 1
 288 554 l 1
 238 283 l 1
 231 248 228 214 228 187 c 0
 228 138 259 109 310 109 c 0
 356 109 397 127 423 160 c 0
 443 184 456 224 469 293 c 1
 517 554 l 1
 650 554 l 1
EndSplineSet
KernsSLIF: 39 4 0 0
EndChar
StartChar: v
Encoding: 118 118 87
Width: 560
Flags: W
HStem: 0 21G<224 330> 534 20G<104 252 506 656>
Fore
224 0 m 1
 104 554 l 1
 252 554 l 1
 312 187 l 1
 506 554 l 1
 656 554 l 1
 330 0 l 1
 224 0 l 1
EndSplineSet
KernsSLIF: 59 -24 0 0 115 -23 0 0 46 -63 0 0 249 -33 0 0 353 -33 0 0 351 -33 0 0 352 -33 0 0 111 -33 0 0 108 -8 0 0 45 -29 0 0 103 -29 0 0 336 -33 0 0 337 -33 0 0 335 -33 0 0 101 -33 0 0 44 -63 0 0 58 -24 0 0 99 -34 0 0 327 -31 0 0 328 -31 0 0 324 -31 0 0 241 -32 0 0 322 -31 0 0 325 -31 0 0 323 -31 0 0 97 -31 0 0
EndChar
StartChar: w
Encoding: 119 119 88
Width: 800
Flags: W
HStem: 0 21G<208 290 502 585> 534 20G<113 256 448 554 746 888>
DStem: 448 554 464 359 292 216 290 0 464 359 554 554 502 0 582 216
Fore
208 0 m 1
 113 554 l 1
 256 554 l 1
 292 216 l 1
 448 554 l 1
 554 554 l 1
 582 216 l 1
 746 554 l 1
 888 554 l 1
 585 0 l 1
 502 0 l 1
 464 359 l 1
 290 0 l 1
 208 0 l 1
EndSplineSet
KernsSLIF: 59 -27 0 0 115 -21 0 0 46 -57 0 0 249 -31 0 0 353 -32 0 0 351 -32 0 0 352 -32 0 0 111 -32 0 0 108 -12 0 0 45 -27 0 0 103 -28 0 0 336 -31 0 0 337 -31 0 0 335 -31 0 0 101 -31 0 0 44 -58 0 0 58 -27 0 0 99 -32 0 0 327 -29 0 0 328 -29 0 0 324 -29 0 0 241 -30 0 0 322 -29 0 0 325 -29 0 0 323 -29 0 0 97 -29 0 0
EndChar
StartChar: x
Encoding: 120 120 89
Width: 560
Flags: W
HStem: 0 21G<1 161 394 554> 534 20G<131 281 479 629>
DStem: 131 554 281 554 251 286 350 387
Fore
1 0 m 1
 251 286 l 1
 131 554 l 1
 281 554 l 1
 350 387 l 1
 479 554 l 1
 629 554 l 1
 410 286 l 1
 554 0 l 1
 394 0 l 1
 313 190 l 1
 161 0 l 1
 1 0 l 1
EndSplineSet
KernsSLIF: 113 -30 0 0 111 -32 0 0 335 -32 0 0 101 -32 0 0 99 -33 0 0 97 -30 0 0
EndChar
StartChar: y
Encoding: 121 121 90
Width: 580
Flags: W
HStem: 534 20G<109 261 518 671>
DStem: 219 52 671 554 73 -185 216 -185
Fore
73 -185 m 1
 219 52 l 1
 109 554 l 1
 261 554 l 1
 317 195 l 1
 518 554 l 1
 671 554 l 1
 216 -185 l 1
 73 -185 l 1
EndSplineSet
KernsSLIF: 59 -27 0 0 115 -30 0 0 46 -70 0 0 249 -39 0 0 353 -41 0 0 351 -41 0 0 352 -41 0 0 111 -41 0 0 108 -10 0 0 45 -34 0 0 103 -37 0 0 336 -40 0 0 337 -40 0 0 335 -40 0 0 101 -40 0 0 44 -72 0 0 58 -27 0 0 99 -41 0 0 327 -38 0 0 328 -38 0 0 324 -38 0 0 241 -39 0 0 322 -38 0 0 325 -38 0 0 323 -38 0 0 97 -38 0 0
EndChar
StartChar: z
Encoding: 122 122 91
Width: 460
Flags: W
HStem: 0 118<202 443> 436 118<151 347>
DStem: 347 436 506 436 42 118 202 118
Fore
20 0 m 1
 42 118 l 1
 347 436 l 1
 130 436 l 1
 152 554 l 1
 528 554 l 1
 506 436 l 1
 202 118 l 1
 465 118 l 1
 443 0 l 1
 20 0 l 1
EndSplineSet
EndChar
StartChar: braceleft
Encoding: 123 123 92
Width: 340
Flags: W
HStem: 720 20G<355.5 411.5>
VStem: 157 107<199 223>
DStem: 153 167 260 177 124 10 237 54 233 601 330 557 204 444 307 434
Fore
330 557 m 1
 307 434 l 1
 296 363 260 319 203 308 c 0
 201 308 198 307 193 305 c 1
 244 294 264 271 264 223 c 0
 264 206 263 191 260 177 c 1
 237 54 l 2
 234 37 231 23 230 12 c 1
 227 -6 l 1
 230 -21 l 1
 232 -35 256 -45 293 -48 c 1
 278 -128 l 1
 264 -129 254 -129 246 -129 c 0
 158 -129 119 -100 119 -34 c 0
 119 -25 121 -4 124 10 c 1
 153 167 l 1
 156 181 157 193 157 201 c 0
 157 235 136 256 94 265 c 1
 109 346 l 1
 171 360 195 386 204 444 c 1
 233 601 l 2
 251 699 303 740 408 740 c 0
 415 740 425 740 439 739 c 1
 424 659 l 1
 383 654 372 650 356 635 c 0
 350 629 346 621 343 611 c 1
 330 557 l 1
EndSplineSet
EndChar
StartChar: bar
Encoding: 124 124 93
Width: 600
Flags: W
HStem: 0 21G<243 362> 719 20G<380 499>
DStem: 380 739 499 739 243 0 362 0
Fore
499 739 m 1
 362 0 l 1
 243 0 l 1
 380 739 l 1
 499 739 l 1
EndSplineSet
EndChar
StartChar: braceright
Encoding: 125 125 94
Width: 340
Flags: W
HStem: 720 20G<204 251.5>
VStem: 189 108<391 413> 226 108<613 645>
DStem: 146 177 249 167 123 54 220 10 216 557 329 601 193 434 300 444
Fore
123 54 m 1xc0
 146 177 l 1
 161 253 191 290 251 303 c 0
 252 303 255 304 260 306 c 1
 208 319 189 342 189 391 c 0xc0
 189 406 190 420 193 434 c 1
 216 557 l 1
 218 569 221 582 221 582 c 2
 224 596 226 607 226 613 c 0
 226 643 215 651 160 659 c 1
 175 739 l 1
 190 740 200 740 208 740 c 0
 295 740 334 710 334 645 c 0xa0
 334 636 332 615 329 601 c 1
 300 444 l 2
 298 433 297 422 297 411 c 0
 297 376 320 352 360 346 c 1
 345 265 l 1
 289 256 259 225 249 167 c 1
 220 10 l 1
 210 -47 191 -81 158 -102 c 0
 129 -121 95 -129 46 -129 c 0
 39 -129 28 -129 14 -128 c 1
 29 -48 l 1
 36 -47 l 2
 74 -42 91 -35 104 -17 c 0
 110 -7 110 -5 113 12 c 0
 116 23 119 37 123 54 c 1xc0
EndSplineSet
EndChar
StartChar: asciitilde
Encoding: 126 126 95
Width: 600
Flags: W
Fore
569 421 m 1
 619 347 l 1
 552 262 506 230 454 230 c 0
 432 230 400 239 366 254 c 2
 316 276 l 2
 277 294 271 296 256 296 c 0
 238 296 222 289 205 274 c 0
 198 268 198 268 163 224 c 1
 161 223 158 219 154 214 c 1
 105 289 l 1
 136 329 147 342 166 361 c 0
 199 394 238 412 277 412 c 0
 299 412 328 406 349 396 c 2
 412 369 l 2
 461 347 462 347 478 347 c 0
 501 347 534 374 569 421 c 1
EndSplineSet
EndChar
StartChar: exclamdown
Encoding: 161 161 96
Width: 280
Flags: W
HStem: 534 20G<175 308>
DStem: 140 366 273 366 38 -185 171 -185
Fore
273 366 m 1
 171 -185 l 1
 38 -185 l 1
 140 366 l 1
 273 366 l 1
308 554 m 1
 284 426 l 1
 151 426 l 1
 175 554 l 1
 308 554 l 1
EndSplineSet
EndChar
StartChar: cent
Encoding: 162 162 97
Width: 560
Flags: W
HStem: 39 231<317.344 350> 489 226<351 379>
VStem: 106 137<333 358>
Fore
350 39 m 1
 225 39 l 1
 246 148 l 1
 198 159 171 176 146 210 c 0
 120 244 106 288 106 333 c 0
 106 400 134 472 182 524 c 0
 224 570 269 596 331 611 c 1
 351 715 l 1
 476 715 l 1
 456 611 l 1
 537 592 591 525 593 443 c 1
 451 443 l 1
 440 468 403 489 370 489 c 0
 301 489 243 429 243 358 c 0
 243 305 279 270 333 270 c 0
 363 270 381 278 423 310 c 1
 569 310 l 1
 514 218 457 172 371 148 c 1
 350 39 l 1
EndSplineSet
EndChar
StartChar: sterling
Encoding: 163 163 98
Width: 560
Flags: W
HStem: 0 125<62 301> 310 125<80 199 282 465> 630 122<398 418>
VStem: 133 137<472 491> 237 136<222 236> 471 135<239 274> 479 137<541 572>
Fore
40 0 m 1xec
 63 125 l 1
 203 125 l 1
 225 155 237 189 237 224 c 0xec
 237 254 225 282 199 310 c 1
 57 310 l 1
 81 435 l 1
 139 435 l 1
 134 451 133 458 133 474 c 0
 133 620 269 752 418 752 c 0
 531 752 616 675 616 572 c 0
 616 565 615 555 614 541 c 1
 479 541 l 1
 479 565 478 572 470 586 c 0
 454 615 429 630 400 630 c 0
 332 630 270 563 270 489 c 0xf2
 270 470 274 451 282 435 c 1
 489 435 l 1
 465 310 l 1
 358 310 l 1
 369 280 373 261 373 234 c 0
 373 198 367 175 344 125 c 1
 347 125 l 1
 354 125 l 2
 405 125 448 156 465 207 c 0
 469 221 470 224 471 274 c 1
 603 274 l 1
 605 260 606 253 606 243 c 0
 606 192 569 118 520 73 c 0
 463 19 405 0 301 0 c 2
 40 0 l 1xec
EndSplineSet
EndChar
StartChar: fraction
Encoding: 164 8260 99
Width: 160
Flags: W
HStem: 0 21G<-121 -26> 719 20G<322 417>
DStem: 322 739 417 739 -121 0 -26 0
Fore
-121 0 m 1
 322 739 l 1
 417 739 l 1
 -26 0 l 1
 -121 0 l 1
EndSplineSet
EndChar
StartChar: yen
Encoding: 165 165 100
Width: 560
Flags: W
HStem: 0 21G<210 343> 187 87<66 245 394 570> 380 87<96 225 535 614> 719 20G<104 253 572 726>
DStem: 245 187 378 187 210 0 343 0
Fore
210 0 m 1
 245 187 l 1
 51 187 l 1
 67 274 l 1
 261 274 l 1
 225 380 l 1
 81 380 l 1
 97 467 l 1
 194 467 l 1
 104 739 l 1
 253 739 l 1
 350 398 l 1
 572 739 l 1
 726 739 l 1
 535 467 l 1
 630 467 l 1
 614 380 l 1
 470 380 l 1
 394 274 l 1
 586 274 l 1
 570 187 l 1
 378 187 l 1
 343 0 l 1
 210 0 l 1
EndSplineSet
EndChar
StartChar: florin
Encoding: 166 402 101
Width: 560
Flags: W
HStem: -149 123<-4 37> 700 120<595 608>
DStem: 305 470 431 470 182 128 301 106
Fore
472 582 m 1
 564 582 l 1
 524 470 l 1
 431 470 l 1
 301 106 l 2
 261 -7 236 -51 192 -87 c 0
 139 -129 82 -149 10 -149 c 0
 -13 -149 -26 -147 -44 -142 c 1
 -3 -26 l 1
 9 -26 l 2
 19 -27 27 -27 31 -27 c 0
 106 -27 138 6 182 128 c 2
 305 470 l 1
 211 470 l 1
 251 582 l 1
 346 582 l 1
 356 608 l 2
 387 688 399 709 435 744 c 0
 483 790 550 820 608 820 c 0
 619 820 628 819 646 817 c 1
 605 700 l 1
 544 700 507 672 483 608 c 0
 481 604 478 595 472 582 c 1
EndSplineSet
EndChar
StartChar: section
Encoding: 167 167 102
Width: 560
Flags: W
HStem: -157 122<261 288> 563 21G<481 607> 630 122<404 435>
VStem: 68 132<9 26> 198 128<555 573> 388 128<42 63> 462 128<286 321>
Fore
607 563 m 1xec
 481 563 l 1
 477 613 458 630 404 630 c 0
 356 630 326 608 326 571 c 0
 326 548 340 531 375 512 c 2
 524 431 l 2
 567 408 590 369 590 321 c 0xea
 590 286 576 246 552 212 c 0
 538 193 522 178 485 150 c 1
 505 128 516 97 516 63 c 0
 516 18 493 -39 457 -77 c 0
 411 -128 340 -157 261 -157 c 0
 200 -157 150 -140 117 -107 c 0
 86 -76 68 -33 68 9 c 0
 68 21 69 37 71 55 c 1
 204 55 l 1
 201 43 200 33 200 24 c 0xf4
 200 -9 239 -35 288 -35 c 0
 343 -35 388 -1 388 42 c 0
 388 64 378 73 326 103 c 2
 178 187 l 2
 123 218 102 253 102 310 c 0
 102 388 138 447 212 493 c 1
 201 515 198 530 198 555 c 0
 198 667 301 752 435 752 c 0
 544 752 608 693 608 592 c 0
 608 585 608 575 607 563 c 1xec
410 339 m 2
 275 413 l 1
 243 393 221 368 222 354 c 1
 223 342 l 2
 224 329 225 327 235 317 c 0
 243 310 259 299 273 291 c 2
 411 215 l 1
 446 240 462 262 462 286 c 0
 462 306 453 316 410 339 c 2
EndSplineSet
EndChar
StartChar: currency
Encoding: 168 164 103
Width: 560
Flags: W
HStem: 153 120<305 329> 525 121<379 399>
VStem: 102 123<346 371> 484 123<422 446>
Fore
133 574 m 1
 228 654 l 1
 265 610 l 1
 308 634 354 646 399 646 c 0
 445 646 488 634 525 610 c 1
 578 654 l 1
 640 572 l 1
 590 529 l 1
 603 495 607 473 607 446 c 0
 607 415 598 368 586 341 c 0
 578 322 567 305 542 272 c 1
 576 229 l 1
 484 148 l 1
 447 190 l 1
 408 168 350 153 305 153 c 0
 265 153 221 167 185 190 c 1
 134 148 l 1
 69 229 l 1
 120 272 l 1
 107 300 102 321 102 346 c 0
 102 411 126 477 168 529 c 1
 133 574 l 1
381 525 m 0
 337 525 290 502 258 465 c 0
 238 442 225 404 225 371 c 0
 225 319 274 273 329 273 c 0
 410 273 484 344 484 422 c 0
 484 480 439 525 381 525 c 0
EndSplineSet
EndChar
StartChar: quotesingle
Encoding: 169 39 104
Width: 220
Flags: W
HStem: 719 20G<211 287>
DStem: 211 739 287 739 169 513 245 513
Fore
245 513 m 1
 169 513 l 1
 211 739 l 1
 287 739 l 1
 245 513 l 1
EndSplineSet
EndChar
StartChar: quotedblleft
Encoding: 170 8220 105
Width: 480
Flags: W
DStem: 185 606 314 594 159 466 290 466 392 606 521 594 366 466 497 466
Fore
314 594 m 1
 290 466 l 1
 159 466 l 1
 185 606 l 1
 194 684 258 738 341 739 c 1
 328 672 l 1
 278 661 261 642 256 594 c 1
 314 594 l 1
521 594 m 1
 497 466 l 1
 366 466 l 1
 392 606 l 1
 401 684 465 738 548 739 c 1
 535 672 l 1
 485 661 468 642 463 594 c 1
 521 594 l 1
EndSplineSet
KernsSLIF: 89 -1 1 0 87 15 1 0 86 7 1 0 84 1 1 0 262 -76 1 0 256 -76 1 0 257 -76 1 0 225 -148 1 0 65 -76 1 0
EndChar
StartChar: guillemotleft
Encoding: 171 171 106
Width: 460
Flags: W
DStem: 267 469 244 346 104 339 166 289 480 469 457 346 317 339 379 289
Fore
200 108 m 1
 85 239 l 1
 104 339 l 1
 267 469 l 1
 244 346 l 1
 166 289 l 1
 223 231 l 1
 200 108 l 1
413 108 m 1
 298 239 l 1
 317 339 l 1
 480 469 l 1
 457 346 l 1
 379 289 l 1
 436 231 l 1
 413 108 l 1
EndSplineSet
EndChar
StartChar: guilsinglleft
Encoding: 172 8249 107
Width: 240
Flags: W
DStem: 267 469 244 346 104 339 166 289
Fore
200 108 m 1
 85 239 l 1
 104 339 l 1
 267 469 l 1
 244 346 l 1
 166 289 l 1
 223 231 l 1
 200 108 l 1
EndSplineSet
EndChar
StartChar: guilsinglright
Encoding: 173 8250 108
Width: 240
Flags: W
DStem: 200 289 261 239 121 231 98 108
Fore
98 108 m 1
 121 231 l 1
 200 289 l 1
 142 346 l 1
 165 469 l 1
 280 339 l 1
 261 239 l 1
 98 108 l 1
EndSplineSet
KernsSLIF: 89 -62 1 0 87 -21 1 0 86 -44 1 0 84 -22 1 0 262 -13 1 0 256 -13 1 0 257 -13 1 0 225 -51 1 0 65 -13 1 0
EndChar
StartChar: fi
Encoding: 174 64257 109
Width: 520
Flags: W
HStem: 0 21G<55 188 328 461> 534 20G<431 564> 611 128<358 387>
DStem: 135 433 268 433 55 0 188 0 431 554 564 554 328 0 461 0
Fore
55 0 m 1
 135 433 l 1
 87 433 l 1
 108 544 l 1
 156 544 l 1
 173 609 191 643 224 676 c 0
 266 718 316 739 372 739 c 0
 381 739 389 739 411 737 c 1
 387 611 l 1
 380 611 l 1
 369 611 l 2
 320 611 295 590 289 544 c 1
 367 544 l 1
 346 433 l 1
 268 433 l 1
 188 0 l 1
 55 0 l 1
328 0 m 1
 431 554 l 1
 564 554 l 1
 461 0 l 1
 328 0 l 1
442 614 m 1
 465 739 l 1
 598 739 l 1
 575 614 l 1
 442 614 l 1
EndSplineSet
Ligature: 0 0 'liga' f i
EndChar
StartChar: fl
Encoding: 175 64258 110
Width: 520
Flags: W
HStem: 0 21G<55 188 328 461> 611 128<358 387>
DStem: 135 433 268 433 55 0 188 0 465 739 598 739 328 0 461 0
Fore
55 0 m 1
 135 433 l 1
 87 433 l 1
 108 544 l 1
 156 544 l 1
 173 609 191 643 224 676 c 0
 266 718 316 739 372 739 c 0
 381 739 389 739 411 737 c 1
 387 611 l 1
 380 611 l 1
 369 611 l 2
 320 611 295 590 289 544 c 1
 367 544 l 1
 346 433 l 1
 268 433 l 1
 188 0 l 1
 55 0 l 1
328 0 m 1
 465 739 l 1
 598 739 l 1
 461 0 l 1
 328 0 l 1
EndSplineSet
Ligature: 0 0 'liga' f l
EndChar
StartChar: endash
Encoding: 177 8211 111
Width: 500
Flags: W
HStem: 229 118<69 548>
Fore
48 229 m 1
 70 347 l 1
 570 347 l 1
 548 229 l 1
 48 229 l 1
EndSplineSet
EndChar
StartChar: dagger
Encoding: 178 8224 112
Width: 560
Flags: W
HStem: 436 118<150 291 446 585> 719 20G<347 480>
DStem: 291 436 424 436 186 -128 319 -128 347 739 480 739 313 554 446 554
Fore
480 739 m 1
 446 554 l 1
 607 554 l 1
 585 436 l 1
 424 436 l 1
 319 -128 l 1
 186 -128 l 1
 291 436 l 1
 129 436 l 1
 151 554 l 1
 313 554 l 1
 347 739 l 1
 480 739 l 1
EndSplineSet
EndChar
StartChar: daggerdbl
Encoding: 179 8225 113
Width: 560
Flags: W
HStem: 260 118<117 258 413 554> 473 118<156 297 452 593> 719 20G<347 480>
DStem: 258 260 391 260 186 -128 319 -128 347 739 480 739 319 591 452 591
Fore
480 739 m 1
 452 591 l 1
 615 591 l 1
 593 473 l 1
 430 473 l 1
 413 378 l 1
 576 378 l 1
 554 260 l 1
 391 260 l 1
 319 -128 l 1
 186 -128 l 1
 258 260 l 1
 96 260 l 1
 118 378 l 1
 280 378 l 1
 297 473 l 1
 135 473 l 1
 157 591 l 1
 319 591 l 1
 347 739 l 1
 480 739 l 1
EndSplineSet
EndChar
StartChar: periodcentered
Encoding: 180 183 114
Width: 280
Flags: W
DStem: 144 432 276 432 119 300 251 300
Fore
119 300 m 1
 144 432 l 1
 276 432 l 1
 251 300 l 1
 119 300 l 1
EndSplineSet
EndChar
StartChar: paragraph
Encoding: 182 182 115
Width: 600
Flags: W
HStem: 719 20G<446 664>
DStem: 302 330 459 632 217 -128 318 -128 542 632 664 739 401 -128 503 -128
Fore
217 -128 m 1
 302 330 l 1
 192 336 133 392 133 489 c 0
 133 558 166 630 217 675 c 0
 270 721 334 739 446 739 c 2
 664 739 l 1
 503 -128 l 1
 401 -128 l 1
 542 632 l 1
 459 632 l 1
 318 -128 l 1
 217 -128 l 1
EndSplineSet
EndChar
StartChar: bullet
Encoding: 183 8226 116
Width: 600
Flags: W
Fore
362 487 m 0
 455 487 533 409 533 316 c 0
 533 220 456 144 360 144 c 0
 267 144 190 221 190 316 c 0
 190 410 267 487 362 487 c 0
EndSplineSet
EndChar
StartChar: quotesinglbase
Encoding: 184 8218 117
Width: 280
Flags: W
HStem: -20 20G<72 130>
DStem: 96 128 228 128 72 0 203 -7
Fore
72 0 m 1
 96 128 l 1
 228 128 l 1
 203 -7 l 1
 195 -52 183 -74 156 -99 c 0
 129 -123 89 -140 57 -140 c 2
 48 -140 l 1
 46 -140 l 1
 58 -73 l 1
 106 -66 128 -44 130 0 c 1
 72 0 l 1
EndSplineSet
EndChar
StartChar: quotedblbase
Encoding: 185 8222 118
Width: 480
Flags: W
HStem: -20 20G<72 130 279 337>
DStem: 96 128 228 128 72 0 202 -12 303 128 435 128 279 0 409 -12
Fore
72 0 m 1
 96 128 l 1
 228 128 l 1
 202 -12 l 1
 196 -86 125 -147 45 -145 c 1
 57 -78 l 1
 103 -72 126 -48 130 0 c 1
 72 0 l 1
279 0 m 1
 303 128 l 1
 435 128 l 1
 409 -12 l 1
 403 -86 332 -147 252 -145 c 1
 264 -78 l 1
 310 -72 333 -48 337 0 c 1
 279 0 l 1
EndSplineSet
KernsSLIF: 89 -80 1 0 87 -52 1 0 86 -82 1 0 84 -28 1 0 65 17 1 0
EndChar
StartChar: quotedblright
Encoding: 186 8221 119
Width: 480
Flags: W
HStem: 719 20G<208 340 415 547>
DStem: 208 739 340 739 184 611 314 599 415 739 547 739 391 611 521 599
Fore
184 611 m 1
 208 739 l 1
 340 739 l 1
 314 599 l 1
 308 525 237 464 157 466 c 1
 169 533 l 1
 215 539 238 563 242 611 c 1
 184 611 l 1
391 611 m 1
 415 739 l 1
 547 739 l 1
 521 599 l 1
 515 525 444 464 364 466 c 1
 376 533 l 1
 422 539 445 563 449 611 c 1
 391 611 l 1
EndSplineSet
KernsSLIF: 89 -3 1 0 87 14 1 0 86 5 1 0 262 -78 1 0 256 -78 1 0 257 -78 1 0 225 -150 1 0 65 -78 1 0
EndChar
StartChar: guillemotright
Encoding: 187 187 120
Width: 460
Flags: W
DStem: 200 289 261 239 121 231 98 108 413 289 474 239 334 231 311 108
Fore
98 108 m 1
 121 231 l 1
 200 289 l 1
 142 346 l 1
 165 469 l 1
 280 339 l 1
 261 239 l 1
 98 108 l 1
311 108 m 1
 334 231 l 1
 413 289 l 1
 355 346 l 1
 378 469 l 1
 493 339 l 1
 474 239 l 1
 311 108 l 1
EndSplineSet
KernsSLIF: 89 -66 1 0 87 -24 1 0 86 -47 1 0 84 -26 1 0 262 -16 1 0 256 -16 1 0 257 -16 1 0 225 -54 1 0 65 -16 1 0
EndChar
StartChar: ellipsis
Encoding: 188 8230 121
Width: 1000
Flags: W
HStem: 0 128<123 234 456 567 789 900>
Fore
100 0 m 1
 124 128 l 1
 258 128 l 1
 234 0 l 1
 100 0 l 1
433 0 m 1
 457 128 l 1
 591 128 l 1
 567 0 l 1
 433 0 l 1
766 0 m 1
 790 128 l 1
 924 128 l 1
 900 0 l 1
 766 0 l 1
EndSplineSet
Ligature: 0 1 'liga' period period period
EndChar
StartChar: perthousand
Encoding: 189 8240 122
Width: 1280
Flags: W
HStem: -13 107<648 670 1060 1082> 242 106<698 719 1110 1131> 391 107<272 295> 646 106<321 342>
VStem: 124 108<540 562> 384 108<585 605> 501 108<133 154> 761 108<181 201> 913 108<133 154> 1173 108<181 201>
DStem: 665 739 768 739 223 0 325 0
Fore
665 739 m 1
 768 739 l 1
 325 0 l 1
 223 0 l 1
 665 739 l 1
1131 348 m 0
 1217 348 1281 285 1281 201 c 0
 1281 88 1176 -13 1060 -13 c 0
 976 -13 913 50 913 133 c 0
 913 247 1016 348 1131 348 c 0
1110 242 m 0
 1063 242 1021 200 1021 154 c 0
 1021 120 1047 94 1082 94 c 0
 1129 94 1173 137 1173 183 c 0
 1173 215 1145 242 1110 242 c 0
719 348 m 0
 805 348 869 285 869 201 c 0
 869 88 764 -13 648 -13 c 0
 565 -13 501 51 501 133 c 0
 501 247 604 348 719 348 c 0
698 242 m 0
 651 242 609 200 609 154 c 0
 609 120 635 94 670 94 c 0
 717 94 761 137 761 183 c 0
 761 215 733 242 698 242 c 0
342 752 m 0
 428 752 492 689 492 605 c 0
 492 493 387 391 272 391 c 0
 187 391 124 454 124 540 c 0
 124 651 229 752 342 752 c 0
321 646 m 0
 277 646 232 604 232 562 c 0
 232 523 257 498 295 498 c 0
 340 498 384 541 384 585 c 0
 384 620 357 646 321 646 c 0
EndSplineSet
EndChar
StartChar: questiondown
Encoding: 191 191 123
Width: 560
Flags: W
HStem: -198 132<256 288> 534 20G<339 472>
VStem: 71 137<-14 10>
Fore
304 367 m 1
 437 367 l 1
 420 249 381 189 271 112 c 0
 229 82 208 46 208 8 c 0
 208 -36 240 -66 288 -66 c 0
 318 -66 342 -54 365 -28 c 0
 378 -13 385 0 395 34 c 1
 528 34 l 1
 494 -107 387 -198 256 -198 c 0
 146 -198 71 -123 71 -14 c 0
 71 74 106 129 211 210 c 1
 274 256 290 284 304 367 c 1
472 554 m 1
 448 426 l 1
 315 426 l 1
 339 554 l 1
 472 554 l 1
EndSplineSet
EndChar
StartChar: grave
Encoding: 193 96 124
Width: 420
Flags: W
DStem: 211 741 281 832 417 617 484 702
Fore
211 741 m 1
 281 832 l 1
 484 702 l 1
 417 617 l 1
 211 741 l 1
EndSplineSet
EndChar
StartChar: acute
Encoding: 194 180 125
Width: 420
Flags: W
Fore
245 617 m 1
 205 705 l 1
 441 832 l 1
 488 733 l 1
 245 617 l 1
EndSplineSet
Ligature: 0 1 'liga' space acutecomb
EndChar
StartChar: circumflex
Encoding: 195 710 126
Width: 540
Flags: W
HStem: 630 138<362 588>
DStem: 362 768 402 694 189 630 336 630
Fore
189 630 m 1
 362 768 l 1
 469 768 l 1
 588 630 l 1
 443 630 l 1
 402 694 l 1
 336 630 l 1
 189 630 l 1
EndSplineSet
EndChar
StartChar: tilde
Encoding: 196 732 127
Width: 480
Flags: W
Fore
244 632 m 1
 206 717 l 1
 233 745 273 765 303 765 c 0
 316 765 339 758 363 748 c 0
 390 736 396 734 413 734 c 0
 441 734 448 737 494 769 c 1
 528 687 l 1
 497 648 464 631 420 631 c 0
 403 631 394 633 358 646 c 0
 328 657 310 662 299 662 c 0
 284 662 271 655 244 632 c 1
EndSplineSet
Ligature: 0 1 'liga' space tildecomb
EndChar
StartChar: macron
Encoding: 197 175 128
Width: 420
Flags: W
HStem: 650 99<205 468>
Fore
189 650 m 1
 206 749 l 1
 486 749 l 1
 468 650 l 1
 189 650 l 1
EndSplineSet
Ligature: 0 1 'liga' space uni0304
EndChar
StartChar: breve
Encoding: 198 728 129
Width: 480
Flags: W
Fore
215 766 m 1
 313 766 l 1
 319 738 339 724 374 724 c 0
 406 724 429 738 445 766 c 1
 544 766 l 1
 525 685 448 630 357 630 c 0
 268 630 214 674 214 747 c 0
 214 751 214 758 215 766 c 1
EndSplineSet
Ligature: 0 1 'liga' space uni0306
EndChar
StartChar: dotaccent
Encoding: 199 729 130
Width: 280
Flags: W
DStem: 214 762 347 762 189 630 322 630
Fore
189 630 m 1
 214 762 l 1
 347 762 l 1
 322 630 l 1
 189 630 l 1
EndSplineSet
Ligature: 0 1 'liga' space uni0307
EndChar
StartChar: dieresis
Encoding: 200 168 131
Width: 500
Flags: W
HStem: 630 132<213 322 423 532>
DStem: 214 762 347 762 189 630 322 630 424 762 557 762 399 630 532 630
Fore
189 630 m 1
 214 762 l 1
 347 762 l 1
 322 630 l 1
 189 630 l 1
399 630 m 1
 424 762 l 1
 557 762 l 1
 532 630 l 1
 399 630 l 1
EndSplineSet
Ligature: 0 1 'liga' space uni0308
EndChar
StartChar: ring
Encoding: 202 730 132
Width: 360
Flags: W
HStem: 617 67<291 307> 756 67<316 331>
VStem: 206 68<700 714> 348 68<725 740>
Fore
331 823 m 0
 379 823 416 787 416 740 c 0
 416 675 357 617 291 617 c 0
 242 617 206 652 206 700 c 0
 206 765 265 823 331 823 c 0
318 756 m 0
 295 756 274 735 274 712 c 0
 274 697 288 684 305 684 c 0
 327 684 348 705 348 726 c 0
 348 742 334 756 318 756 c 0
EndSplineSet
Ligature: 0 1 'liga' space uni030A
EndChar
StartChar: cedilla
Encoding: 203 184 133
Width: 340
Flags: W
HStem: -251 56<131 138> -106 55<153 168> -20 20G<117 169>
VStem: 184 60<-140 -127>
DStem: 117 0 169 0 61 -107 137 -58
Fore
117 0 m 1
 169 0 l 1
 137 -58 l 1
 151 -53 158 -51 168 -51 c 0
 211 -51 244 -84 244 -127 c 0
 244 -154 234 -185 217 -209 c 0
 197 -238 170 -251 133 -251 c 0
 79 -251 42 -219 42 -172 c 2
 42 -166 l 1
 102 -166 l 1
 104 -172 l 2
 109 -188 119 -195 136 -195 c 0
 161 -195 184 -167 184 -137 c 0
 184 -120 170 -106 153 -106 c 0
 136 -106 123 -114 109 -133 c 1
 61 -107 l 1
 117 0 l 1
EndSplineSet
Ligature: 0 1 'liga' space uni0327
EndChar
StartChar: hungarumlaut
Encoding: 205 733 134
Width: 700
Flags: W
Fore
204 696 m 1
 434 838 l 1
 486 749 l 1
 242 617 l 1
 204 696 l 1
486 696 m 1
 717 838 l 1
 768 749 l 1
 525 617 l 1
 486 696 l 1
EndSplineSet
Ligature: 0 1 'liga' space uni030B
EndChar
StartChar: ogonek
Encoding: 206 731 135
Width: 340
Flags: W
HStem: -204 80<146 186> -20 20G<160 230>
Fore
160 0 m 1
 230 0 l 1
 171 -34 148 -60 148 -92 c 0
 148 -112 162 -124 186 -124 c 0
 201 -124 212 -122 235 -113 c 1
 220 -190 l 1
 188 -201 171 -204 146 -204 c 0
 88 -204 52 -172 52 -122 c 0
 52 -71 76 -45 160 0 c 1
EndSplineSet
Ligature: 0 1 'liga' space uni0328
EndChar
StartChar: caron
Encoding: 207 711 136
Width: 540
Flags: W
HStem: 630 138<214 442>
Fore
214 768 m 1
 361 768 l 1
 403 704 l 1
 468 768 l 1
 613 768 l 1
 442 630 l 1
 335 630 l 1
 214 768 l 1
EndSplineSet
EndChar
StartChar: emdash
Encoding: 208 8212 137
Width: 1000
Flags: W
HStem: 229 118<69 1048>
Fore
48 229 m 1
 70 347 l 1
 1070 347 l 1
 1048 229 l 1
 48 229 l 1
EndSplineSet
EndChar
StartChar: AE
Encoding: 225 198 138
Width: 900
Flags: W
HStem: 0 132<649 843> 303 132<705 888> 607 132<641 956>
Fore
17 0 m 1
 641 739 l 1
 980 739 l 1
 956 607 l 1
 738 607 l 1
 705 435 l 1
 912 435 l 1
 888 303 l 1
 681 303 l 1
 649 132 l 1
 867 132 l 1
 843 0 l 1
 488 0 l 1
 523 191 l 1
 329 191 l 1
 181 0 l 1
 17 0 l 1
433 323 m 1
 548 323 l 1
 583 513 l 1
 433 323 l 1
EndSplineSet
EndChar
StartChar: ordfeminine
Encoding: 227 170 139
Width: 360
Flags: W
HStem: 312 70<102 405> 433 73<254 282> 679 73<313 323>
VStem: 138 79<560 576>
Fore
480 741 m 1
 424 443 l 1
 358 443 l 1
 366 484 l 1
 336 452 293 433 254 433 c 0
 217 433 176 455 158 484 c 0
 147 502 138 536 138 560 c 0
 138 600 158 653 185 685 c 0
 220 727 271 752 321 752 c 0
 357 752 387 734 406 702 c 1
 414 741 l 1
 480 741 l 1
315 679 m 0
 265 679 217 628 217 576 c 0
 217 536 245 506 282 506 c 0
 335 506 382 556 382 613 c 0
 382 650 353 679 315 679 c 0
90 312 m 1
 103 382 l 1
 418 382 l 1
 405 312 l 1
 90 312 l 1
EndSplineSet
EndChar
StartChar: Lslash
Encoding: 232 321 140
Width: 480
Flags: W
HStem: 0 128<271 474> 719 20G<247 384>
DStem: 160 267 310 340 110 0 271 128 247 739 384 739 184 397 335 470
Fore
110 0 m 1
 160 267 l 1
 49 188 l 1
 73 318 l 1
 184 397 l 1
 247 739 l 1
 384 739 l 1
 335 470 l 1
 497 581 l 1
 473 451 l 1
 310 340 l 1
 271 128 l 1
 498 128 l 1
 474 0 l 1
 110 0 l 1
EndSplineSet
EndChar
StartChar: Oslash
Encoding: 233 216 141
Width: 840
Flags: W
HStem: -13 132<421 446> 620 132<532 558>
VStem: 96 140<297 324> 741 140<413 438>
DStem: 174 87 259 23 91 -11 171 -80 617 606 703 542 272 201 355 136 806 826 887 757 714 719 799 655
Fore
91 -11 m 1
 174 87 l 1
 121 149 96 217 96 297 c 0
 96 535 316 752 556 752 c 0
 612 752 660 742 714 719 c 1
 806 826 l 1
 887 757 l 1
 799 655 l 1
 853 603 881 529 881 438 c 0
 881 337 838 231 760 143 c 0
 673 45 549 -13 423 -13 c 0
 364 -13 316 -2 259 23 c 1
 171 -80 l 1
 91 -11 l 1
272 201 m 1
 617 606 l 1
 588 616 564 620 534 620 c 0
 378 620 236 478 236 322 c 0
 236 282 247 246 272 201 c 1
703 542 m 1
 355 136 l 1
 385 124 410 119 444 119 c 0
 602 119 741 257 741 415 c 0
 741 465 727 511 703 542 c 1
EndSplineSet
KernsSLIF: 65 -41 0 0
EndChar
StartChar: OE
Encoding: 234 338 142
Width: 1060
Flags: W
HStem: -13 133<416 441> 0 132<811 1004> 303 132<867 1049> 607 132<785 1117> 619 133<529 553>
VStem: 100 140<290 320>
Fore
1004 0 m 1x74
 648 0 l 1x74
 663 82 l 1
 601 23 508 -13 418 -13 c 0
 231 -13 100 112 100 290 c 0
 100 538 310 752 553 752 c 0xac
 652 752 729 718 770 656 c 1
 785 739 l 1
 1141 739 l 1
 1117 607 l 1
 900 607 l 1
 867 435 l 1
 1073 435 l 1
 1049 303 l 1
 843 303 l 1
 811 132 l 1
 1028 132 l 1
 1004 0 l 1x74
531 619 m 0xac
 442 619 365 580 309 508 c 0
 266 452 240 380 240 318 c 0
 240 275 253 233 276 199 c 0
 311 147 367 120 439 120 c 0
 595 120 725 257 725 421 c 0
 725 539 647 619 531 619 c 0xac
EndSplineSet
EndChar
StartChar: ordmasculine
Encoding: 235 186 143
Width: 360
Flags: W
HStem: 313 70<102 397> 444 73<266 282> 682 70<309 325>
VStem: 138 74<569 586> 377 74<610 625>
Fore
325 752 m 0
 401 752 451 701 451 625 c 0
 451 530 363 444 266 444 c 0
 195 444 138 499 138 569 c 0
 138 666 226 752 325 752 c 0
311 682 m 0
 259 682 212 634 212 582 c 0
 212 544 240 517 280 517 c 0
 331 517 377 562 377 612 c 0
 377 652 349 682 311 682 c 0
90 313 m 1
 103 383 l 1
 410 383 l 1
 397 313 l 1
 90 313 l 1
EndSplineSet
EndChar
StartChar: ae
Encoding: 241 230 144
Width: 1080
Flags: W
HStem: -13 122<318 345 771 797> 219 118<668 1081> 445 122<395 422 842 882>
VStem: 76 137<216 242>
Fore
916 164 m 1
 1061 164 l 1
 1003 58 888 -13 773 -13 c 0
 732 -13 693 -4 664 12 c 0
 646 22 634 34 617 60 c 1
 605 0 l 1
 483 0 l 1
 495 60 l 1
 436 5 392 -13 318 -13 c 0
 174 -13 76 80 76 216 c 0
 76 403 237 567 420 567 c 0
 493 567 538 547 576 499 c 1
 586 554 l 1
 708 554 l 1
 698 499 l 1
 752 547 806 567 882 567 c 0
 1011 567 1108 471 1108 342 c 0
 1108 301 1099 262 1081 219 c 1
 653 219 l 1
 661 152 714 109 788 109 c 0
 837 109 880 127 916 164 c 1
405 445 m 0
 300 445 213 352 213 240 c 0
 213 161 265 109 343 109 c 0
 446 109 534 203 534 312 c 0
 534 351 526 375 505 399 c 0
 479 429 444 445 405 445 c 0
668 337 m 1
 972 337 l 1
 965 377 959 393 946 408 c 1
 923 431 885 445 842 445 c 0
 765 445 705 408 668 337 c 1
EndSplineSet
KernsSLIF: 121 -30 0 0 119 -24 0 0 118 -25 0 0
EndChar
StartChar: dotlessi
Encoding: 245 305 145
Width: 240
Flags: W
HStem: 0 21G<54 187> 534 20G<157 290>
DStem: 157 554 290 554 54 0 187 0
Fore
54 0 m 1
 157 554 l 1
 290 554 l 1
 187 0 l 1
 54 0 l 1
EndSplineSet
EndChar
StartChar: lslash
Encoding: 248 322 146
Width: 320
Flags: W
HStem: 0 21G<98 231> 719 20G<235 368>
DStem: 156 308 300 370 98 0 231 0 235 739 368 739 178 425 321 487
Fore
98 0 m 1
 156 308 l 1
 59 241 l 1
 81 357 l 1
 178 425 l 1
 235 739 l 1
 368 739 l 1
 321 487 l 1
 420 552 l 1
 398 435 l 1
 300 370 l 1
 231 0 l 1
 98 0 l 1
EndSplineSet
EndChar
StartChar: oslash
Encoding: 249 248 147
Width: 660
Flags: W
HStem: -13 122<324 349> 445 122<407 433>
VStem: 79 137<221 245> 541 137<306 330>
DStem: 453 438 525 377 230 178 303 116
Fore
680 558 m 1
 620 487 l 1
 658 442 678 387 678 328 c 0
 678 152 508 -13 326 -13 c 0
 285 -13 252 -6 212 11 c 1
 149 -64 l 1
 76 -2 l 1
 136 68 l 1
 96 118 79 163 79 221 c 0
 79 404 246 567 433 567 c 0
 476 567 507 560 542 544 c 1
 607 620 l 1
 680 558 l 1
525 377 m 1
 303 116 l 1
 319 110 327 109 344 109 c 0
 403 109 457 136 497 187 c 0
 528 228 541 263 541 308 c 0
 541 342 537 360 525 377 c 1
230 178 m 1
 453 438 l 1
 433 443 422 445 408 445 c 0
 309 445 216 347 216 243 c 0
 216 219 219 204 230 178 c 1
EndSplineSet
EndChar
StartChar: oe
Encoding: 250 339 148
Width: 1080
Flags: W
HStem: -13 122<319 345 764 788> 218 118<669 1082> 445 122<405 424 840 863>
VStem: 76 137<222 245>
CounterMasks: 1 00
Fore
917 163 m 1
 1058 163 l 1
 1018 68 883 -13 764 -13 c 0
 671 -13 594 30 560 100 c 1
 495 25 414 -13 319 -13 c 0
 175 -13 76 82 76 222 c 0
 76 404 240 567 422 567 c 0
 484 567 544 547 581 514 c 0
 597 500 608 485 626 456 c 1
 709 536 775 567 863 567 c 0
 1006 567 1105 477 1105 347 c 0
 1105 306 1102 287 1082 218 c 1
 653 218 l 1
 657 187 664 171 680 153 c 0
 705 125 744 109 786 109 c 0
 833 109 886 131 917 163 c 1
407 445 m 0
 303 445 213 352 213 243 c 0
 213 166 269 109 345 109 c 0
 398 109 449 132 483 172 c 0
 519 213 538 262 538 311 c 0
 538 391 485 445 407 445 c 0
669 336 m 1
 971 336 l 1
 960 411 920 445 842 445 c 0
 765 445 710 410 669 336 c 1
EndSplineSet
EndChar
StartChar: germandbls
Encoding: 251 223 149
Width: 600
Flags: W
HStem: -13 122<349 381> 315 118<335 356> 630 122<388 412>
VStem: 458 137<563 585> 491 137<226 260>
DStem: 141 487 277 503 51 0 219 189
Fore
51 0 m 1xe8
 141 487 l 1
 152 548 174 602 202 643 c 0
 248 709 331 752 412 752 c 0
 520 752 595 683 595 585 c 0xf0
 595 547 584 507 563 472 c 0
 546 443 530 429 491 409 c 1
 536 397 557 387 582 364 c 0
 613 336 628 301 628 260 c 0
 628 208 608 148 575 102 c 0
 522 28 441 -13 349 -13 c 0
 266 -13 211 19 188 79 c 1
 173 0 l 1
 51 0 l 1xe8
219 189 m 1
 301 189 l 1
 308 137 336 109 381 109 c 0
 440 109 491 163 491 226 c 0xe8
 491 258 475 285 449 298 c 0
 422 312 397 315 324 315 c 2
 313 315 l 1
 335 433 l 1
 346 433 l 2
 407 433 458 492 458 563 c 0
 458 604 430 630 388 630 c 0
 330 630 293 588 277 503 c 1
 219 189 l 1
EndSplineSet
EndChar
StartChar: Adieresis
Encoding: 256 196 150
Width: 740
Flags: W
HStem: 0 21G<7 158 582 733> 191 132<350 538> 719 20G<452 560> 805 132<368 477 578 687>
DStem: 369 937 502 937 344 805 477 805 452 739 275 191 7 0 158 0 538 191 560 739 582 0 733 0 579 937 712 937 554 805 687 805
Fore
7 0 m 1
 452 739 l 1
 560 739 l 1
 733 0 l 1
 582 0 l 1
 538 191 l 1
 275 191 l 1
 158 0 l 1
 7 0 l 1
350 323 m 1
 508 323 l 1
 470 546 l 1
 350 323 l 1
344 805 m 1
 369 937 l 1
 502 937 l 1
 477 805 l 1
 344 805 l 1
554 805 m 1
 579 937 l 1
 712 937 l 1
 687 805 l 1
 554 805 l 1
EndSplineSet
KernsSLIF: 121 -47 0 0 119 -43 0 0 118 -45 0 0 117 -16 0 0 116 -13 0 0 39 -79 0 0 186 -78 0 0 113 -23 0 0 46 16 0 0 111 -25 0 0 45 -24 0 0 172 -22 0 0 171 -22 0 0 103 -23 0 0 100 -22 0 0 44 14 0 0 99 -25 0 0 98 -8 0 0 97 -22 0 0 89 -86 0 0 87 -58 0 0 86 -78 0 0 85 -34 0 0 84 -47 0 0 81 -38 0 0 79 -38 0 0 71 -38 0 0 67 -39 0 0
Ligature: 0 0 'liga' A uni0308
EndChar
StartChar: Aacute
Encoding: 257 193 151
Width: 740
Flags: W
HStem: 0 21G<7 158 582 733> 191 132<350 538> 719 20G<452 560>
DStem: 452 739 275 191 7 0 158 0 538 191 560 739 582 0 733 0
Fore
7 0 m 1
 452 739 l 1
 560 739 l 1
 733 0 l 1
 582 0 l 1
 538 191 l 1
 275 191 l 1
 158 0 l 1
 7 0 l 1
350 323 m 1
 508 323 l 1
 470 546 l 1
 350 323 l 1
452 792 m 1
 412 880 l 1
 648 1007 l 1
 695 908 l 1
 452 792 l 1
EndSplineSet
KernsSLIF: 121 -47 0 0 119 -43 0 0 118 -45 0 0 117 -16 0 0 116 -13 0 0 39 -79 0 0 113 -23 0 0 46 16 0 0 111 -25 0 0 45 -24 0 0 172 -22 0 0 171 -22 0 0 103 -23 0 0 101 -25 0 0 100 -22 0 0 44 14 0 0 99 -25 0 0 98 -8 0 0 97 -22 0 0 89 -86 0 0 87 -58 0 0 86 -78 0 0 85 -34 0 0 84 -47 0 0 81 -38 0 0 79 -38 0 0 71 -38 0 0 67 -39 0 0
Ligature: 0 0 'liga' A acutecomb
EndChar
StartChar: Agrave
Encoding: 258 192 152
Width: 740
Flags: W
HStem: 0 21G<7 158 582 733> 191 132<350 538> 719 20G<452 560>
DStem: 350 916 420 1007 556 792 623 877 452 739 275 191 7 0 158 0 538 191 560 739 582 0 733 0
Fore
7 0 m 1
 452 739 l 1
 560 739 l 1
 733 0 l 1
 582 0 l 1
 538 191 l 1
 275 191 l 1
 158 0 l 1
 7 0 l 1
350 323 m 1
 508 323 l 1
 470 546 l 1
 350 323 l 1
350 916 m 1
 420 1007 l 1
 623 877 l 1
 556 792 l 1
 350 916 l 1
EndSplineSet
KernsSLIF: 46 16 0 0 44 14 0 0 89 -86 0 0 87 -58 0 0 86 -78 0 0 85 -34 0 0 84 -47 0 0 81 -38 0 0 79 -38 0 0 71 -38 0 0 67 -39 0 0
Ligature: 0 0 'liga' A gravecomb
EndChar
StartChar: Acircumflex
Encoding: 259 194 153
Width: 740
Flags: W
HStem: 0 21G<7 158 582 733> 191 132<350 538> 719 20G<452 560> 805 138<486 712>
DStem: 452 739 275 191 7 0 158 0 486 943 526 869 313 805 460 805 538 191 560 739 582 0 733 0
Fore
7 0 m 1
 452 739 l 1
 560 739 l 1
 733 0 l 1
 582 0 l 1
 538 191 l 1
 275 191 l 1
 158 0 l 1
 7 0 l 1
350 323 m 1
 508 323 l 1
 470 546 l 1
 350 323 l 1
313 805 m 1
 486 943 l 1
 593 943 l 1
 712 805 l 1
 567 805 l 1
 526 869 l 1
 460 805 l 1
 313 805 l 1
EndSplineSet
KernsSLIF: 46 16 0 0 44 14 0 0 89 -86 0 0 87 -58 0 0 86 -78 0 0 85 -34 0 0 84 -47 0 0 81 -38 0 0 79 -38 0 0 71 -38 0 0 67 -39 0 0
Ligature: 0 0 'liga' A uni0302
EndChar
StartChar: Abreve
Encoding: 260 258 154
Width: 740
Flags: W
HStem: 0 21G<7 158 582 733> 191 132<350 538> 719 20G<452 560> 805 94<514 536>
DStem: 452 739 275 191 7 0 158 0 538 191 560 739 582 0 733 0
Fore
7 0 m 1
 452 739 l 1
 560 739 l 1
 733 0 l 1
 582 0 l 1
 538 191 l 1
 275 191 l 1
 158 0 l 1
 7 0 l 1
350 323 m 1
 508 323 l 1
 470 546 l 1
 350 323 l 1
372 941 m 1
 470 941 l 1
 476 913 496 899 530 899 c 0
 563 899 586 912 602 941 c 1
 701 941 l 1
 682 860 605 805 514 805 c 0
 425 805 371 849 371 922 c 0
 371 926 371 932 372 941 c 1
EndSplineSet
Ligature: 0 0 'liga' A uni0306
EndChar
StartChar: Atilde
Encoding: 261 195 155
Width: 740
Flags: W
HStem: 0 21G<7 158 582 733> 191 132<350 538> 719 20G<452 560> 806 103<558 572> 835 103<447 455>
DStem: 452 739 275 191 7 0 158 0 538 191 560 739 582 0 733 0
Fore
7 0 m 1xe0
 452 739 l 1
 560 739 l 1
 733 0 l 1
 582 0 l 1
 538 191 l 1
 275 191 l 1
 158 0 l 1
 7 0 l 1xe0
350 323 m 1
 508 323 l 1
 470 546 l 1
 350 323 l 1
394 806 m 1xf0
 356 891 l 1
 370 905 378 911 391 919 c 0
 409 928 439 938 451 938 c 0xe8
 466 938 488 932 513 922 c 0
 541 910 546 909 563 909 c 0
 587 909 602 914 629 933 c 2
 644 943 l 1
 678 861 l 1
 648 823 613 806 570 806 c 0xf0
 553 806 545 808 508 820 c 0
 479 830 460 835 449 835 c 0xe8
 434 835 422 828 394 806 c 1xf0
EndSplineSet
KernsSLIF: 46 16 0 0 44 14 0 0 89 -86 0 0 87 -58 0 0 86 -78 0 0 85 -34 0 0 84 -47 0 0 81 -38 0 0 79 -38 0 0 71 -38 0 0 67 -39 0 0
Ligature: 0 0 'liga' A tildecomb
EndChar
StartChar: Aring
Encoding: 262 197 156
Width: 740
Flags: W
HStem: 0 21G<7 158 582 733> 191 132<350 538> 719 20G<452 560> 792 67<510 524> 931 67<534 550>
VStem: 425 68<875 890> 567 68<900 915>
DStem: 452 739 275 191 7 0 158 0 538 191 560 739 582 0 733 0
Fore
7 0 m 1
 452 739 l 1
 560 739 l 1
 733 0 l 1
 582 0 l 1
 538 191 l 1
 275 191 l 1
 158 0 l 1
 7 0 l 1
350 323 m 1
 508 323 l 1
 470 546 l 1
 350 323 l 1
550 998 m 0
 598 998 635 962 635 915 c 0
 635 851 576 792 510 792 c 0
 462 792 425 828 425 875 c 0
 425 940 484 998 550 998 c 0
537 931 m 0
 515 931 493 910 493 888 c 0
 493 872 507 859 524 859 c 0
 545 859 567 880 567 901 c 0
 567 917 553 931 537 931 c 0
EndSplineSet
KernsSLIF: 121 -47 0 0 119 -43 0 0 118 -45 0 0 117 -16 0 0 116 -13 0 0 39 -79 0 0 186 -78 0 0 113 -23 0 0 46 16 0 0 111 -25 0 0 45 -24 0 0 172 -22 0 0 171 -22 0 0 103 -23 0 0 101 -25 0 0 100 -22 0 0 44 14 0 0 99 -25 0 0 98 -8 0 0 97 -22 0 0 89 -86 0 0 87 -58 0 0 86 -78 0 0 85 -34 0 0 84 -47 0 0 81 -38 0 0 79 -38 0 0 71 -38 0 0 67 -39 0 0
Ligature: 0 0 'liga' A uni030A
EndChar
StartChar: Aogonek
Encoding: 263 260 157
Width: 740
Flags: W
HStem: -204 80<649 690> -20 20G<582 663> 191 132<350 538> 719 20G<452 560>
VStem: 555 96<-122 -92>
DStem: 452 739 275 191 7 0 158 0 538 191 560 739 582 0 733 0
Fore
560 739 m 1
 733 0 l 1
 674 -34 651 -60 651 -92 c 0
 651 -113 665 -124 690 -124 c 0
 704 -124 715 -121 738 -113 c 1
 723 -190 l 1
 692 -201 675 -204 649 -204 c 0
 590 -204 555 -173 555 -122 c 0
 555 -81 575 -51 625 -21 c 0
 633 -16 633 -16 663 0 c 1
 582 0 l 1
 538 191 l 1
 275 191 l 1
 158 0 l 1
 7 0 l 1
 452 739 l 1
 560 739 l 1
350 323 m 1
 508 323 l 1
 470 546 l 1
 350 323 l 1
EndSplineSet
Ligature: 0 0 'liga' A uni0328
EndChar
StartChar: Ccedilla
Encoding: 264 199 158
Width: 780
Flags: W
HStem: -251 56<363 370> -106 55<385 400> -13 132<415 451> 620 132<523 550>
VStem: 92 140<304 329> 416 60<-140 -127>
DStem: 346 -6 394 -12 293 -107 369 -58
Fore
394 -12 m 1
 369 -58 l 1
 383 -53 390 -51 400 -51 c 0
 443 -51 476 -84 476 -127 c 0
 476 -154 466 -185 449 -209 c 0
 429 -238 402 -251 365 -251 c 0
 308 -251 273 -219 274 -166 c 1
 334 -166 l 1
 336 -172 l 2
 341 -188 351 -195 368 -195 c 0
 393 -195 416 -167 416 -137 c 0
 416 -120 402 -106 385 -106 c 0
 368 -106 355 -114 341 -133 c 1
 293 -107 l 1
 346 -6 l 1
 289 4 249 21 204 56 c 0
 135 111 92 206 92 304 c 0
 92 535 313 752 548 752 c 0
 638 752 720 722 779 667 c 0
 820 629 840 593 858 527 c 1
 704 527 l 1
 687 556 677 568 661 581 c 0
 630 605 580 620 528 620 c 0
 434 620 349 575 290 495 c 0
 253 445 232 383 232 327 c 0
 232 206 318 119 437 119 c 0
 509 119 562 142 637 206 c 1
 798 206 l 1
 721 78 566 -13 425 -13 c 0
 418 -13 408 -13 394 -12 c 1
EndSplineSet
KernsSLIF: 65 -24 0 0
Ligature: 0 0 'liga' C uni0327
EndChar
StartChar: Cacute
Encoding: 265 262 159
Width: 780
Flags: W
HStem: -13 132<415 439> 620 132<523 550>
VStem: 92 140<303 329>
Fore
637 206 m 1
 798 206 l 1
 718 73 567 -13 415 -13 c 0
 314 -13 229 22 171 88 c 0
 122 143 92 225 92 303 c 0
 92 535 313 752 548 752 c 0
 638 752 720 722 779 667 c 0
 820 629 840 593 858 527 c 1
 704 527 l 1
 687 556 677 568 661 581 c 0
 630 605 580 620 528 620 c 0
 434 620 349 575 290 495 c 0
 253 445 232 383 232 327 c 0
 232 206 318 119 437 119 c 0
 509 119 562 142 637 206 c 1
485 792 m 1
 445 880 l 1
 681 1007 l 1
 728 908 l 1
 485 792 l 1
EndSplineSet
Ligature: 0 0 'liga' C acutecomb
EndChar
StartChar: Ccaron
Encoding: 266 268 160
Width: 780
Flags: W
HStem: -13 132<415 439> 620 132<520 550> 805 138<374 602>
VStem: 92 140<303 329>
Fore
637 206 m 1
 798 206 l 1
 718 73 567 -13 415 -13 c 0
 314 -13 229 22 171 88 c 0
 122 143 92 225 92 303 c 0
 92 535 313 752 548 752 c 0
 638 752 720 722 779 667 c 0
 820 629 840 593 858 527 c 1
 704 527 l 1
 687 556 677 568 661 581 c 0
 630 605 580 620 528 620 c 0
 434 620 349 575 290 495 c 0
 253 445 232 383 232 327 c 0
 232 206 318 119 437 119 c 0
 509 119 562 142 637 206 c 1
374 943 m 1
 521 943 l 1
 563 879 l 1
 628 943 l 1
 773 943 l 1
 602 805 l 1
 495 805 l 1
 374 943 l 1
EndSplineSet
Ligature: 0 0 'liga' C uni030C
EndChar
StartChar: Dcaron
Encoding: 267 270 161
Width: 700
Flags: W
HStem: 0 21G<68 240> 608 131<205 389> 805 138<294 522>
VStem: 594 140<421 452>
DStem: 205 739 318 608 68 0 229 131
Fore
68 0 m 1
 205 739 l 1
 374 739 l 2
 487 739 572 721 624 686 c 0
 694 639 734 554 734 452 c 0
 734 304 658 153 545 74 c 0
 469 21 382 0 240 0 c 2
 68 0 l 1
229 131 m 1
 259 131 l 2
 382 131 453 154 509 212 c 0
 564 269 594 343 594 421 c 0
 594 493 566 548 515 578 c 0
 477 600 432 608 345 608 c 2
 318 608 l 1
 229 131 l 1
294 943 m 1
 441 943 l 1
 483 879 l 1
 548 943 l 1
 693 943 l 1
 522 805 l 1
 415 805 l 1
 294 943 l 1
EndSplineSet
Ligature: 0 0 'liga' D uni030C
EndChar
StartChar: Edieresis
Encoding: 268 203 162
Width: 520
Flags: W
HStem: 0 132<229 465> 303 132<285 510> 607 132<205 578> 805 132<267 376 468 577>
DStem: 205 739 318 607 68 0 285 435 205 739 261 303 68 0 229 132 268 937 401 937 243 805 376 805 469 937 602 937 444 805 577 805
Fore
68 0 m 1
 205 739 l 1
 602 739 l 1
 578 607 l 1
 318 607 l 1
 285 435 l 1
 534 435 l 1
 510 303 l 1
 261 303 l 1
 229 132 l 1
 489 132 l 1
 465 0 l 1
 68 0 l 1
243 805 m 1
 268 937 l 1
 401 937 l 1
 376 805 l 1
 243 805 l 1
444 805 m 1
 469 937 l 1
 602 937 l 1
 577 805 l 1
 444 805 l 1
EndSplineSet
Ligature: 0 0 'liga' E uni0308
EndChar
StartChar: Eacute
Encoding: 269 201 163
Width: 520
Flags: W
HStem: 0 132<229 465> 303 132<285 510> 607 132<205 578>
DStem: 205 739 318 607 68 0 285 435 205 739 261 303 68 0 229 132
Fore
68 0 m 1
 205 739 l 1
 602 739 l 1
 578 607 l 1
 318 607 l 1
 285 435 l 1
 534 435 l 1
 510 303 l 1
 261 303 l 1
 229 132 l 1
 489 132 l 1
 465 0 l 1
 68 0 l 1
359 792 m 1
 319 880 l 1
 555 1007 l 1
 602 908 l 1
 359 792 l 1
EndSplineSet
Ligature: 0 0 'liga' E acutecomb
EndChar
StartChar: Egrave
Encoding: 270 200 164
Width: 520
Flags: W
HStem: 0 132<229 465> 303 132<285 510> 607 132<205 578>
DStem: 205 739 318 607 68 0 285 435 205 739 261 303 68 0 229 132 252 916 322 1007 458 792 525 877
Fore
68 0 m 1
 205 739 l 1
 602 739 l 1
 578 607 l 1
 318 607 l 1
 285 435 l 1
 534 435 l 1
 510 303 l 1
 261 303 l 1
 229 132 l 1
 489 132 l 1
 465 0 l 1
 68 0 l 1
252 916 m 1
 322 1007 l 1
 525 877 l 1
 458 792 l 1
 252 916 l 1
EndSplineSet
Ligature: 0 0 'liga' E gravecomb
EndChar
StartChar: Ecircumflex
Encoding: 271 202 165
Width: 520
Flags: W
HStem: 0 132<229 465> 303 132<285 510> 607 132<205 578> 805 138<386 612>
DStem: 205 739 318 607 68 0 285 435 205 739 261 303 68 0 229 132 386 943 426 869 213 805 360 805
Fore
68 0 m 1
 205 739 l 1
 602 739 l 1
 578 607 l 1
 318 607 l 1
 285 435 l 1
 534 435 l 1
 510 303 l 1
 261 303 l 1
 229 132 l 1
 489 132 l 1
 465 0 l 1
 68 0 l 1
213 805 m 1
 386 943 l 1
 493 943 l 1
 612 805 l 1
 467 805 l 1
 426 869 l 1
 360 805 l 1
 213 805 l 1
EndSplineSet
Ligature: 0 0 'liga' E uni0302
EndChar
StartChar: Ecaron
Encoding: 272 282 166
Width: 520
Flags: W
HStem: 0 132<229 465> 303 132<285 510> 607 132<205 578> 805 138<234 462>
DStem: 205 739 318 607 68 0 285 435 205 739 261 303 68 0 229 132
Fore
68 0 m 1
 205 739 l 1
 602 739 l 1
 578 607 l 1
 318 607 l 1
 285 435 l 1
 534 435 l 1
 510 303 l 1
 261 303 l 1
 229 132 l 1
 489 132 l 1
 465 0 l 1
 68 0 l 1
234 943 m 1
 381 943 l 1
 423 879 l 1
 488 943 l 1
 633 943 l 1
 462 805 l 1
 355 805 l 1
 234 943 l 1
EndSplineSet
Ligature: 0 0 'liga' E uni030C
EndChar
StartChar: Edotaccent
Encoding: 273 278 167
Width: 520
Flags: W
HStem: 0 132<229 465> 303 132<285 510> 607 132<205 578>
DStem: 205 739 318 607 68 0 285 435 205 739 261 303 68 0 229 132 374 937 507 937 349 805 482 805
Fore
68 0 m 1
 205 739 l 1
 602 739 l 1
 578 607 l 1
 318 607 l 1
 285 435 l 1
 534 435 l 1
 510 303 l 1
 261 303 l 1
 229 132 l 1
 489 132 l 1
 465 0 l 1
 68 0 l 1
349 805 m 1
 374 937 l 1
 507 937 l 1
 482 805 l 1
 349 805 l 1
EndSplineSet
Ligature: 0 0 'liga' E uni0307
EndChar
StartChar: Eogonek
Encoding: 274 280 168
Width: 520
Flags: W
HStem: -204 80<381 422> 0 132<229 395> 303 132<285 510> 607 132<205 578>
VStem: 287 96<-122 -92>
DStem: 205 739 318 607 68 0 285 435 205 739 261 303 68 0 229 132
Fore
602 739 m 1
 578 607 l 1
 318 607 l 1
 285 435 l 1
 534 435 l 1
 510 303 l 1
 261 303 l 1
 229 132 l 1
 489 132 l 1
 465 0 l 1
 406 -34 383 -60 383 -92 c 0
 383 -113 397 -124 422 -124 c 0
 436 -124 447 -121 470 -113 c 1
 455 -190 l 1
 424 -201 407 -204 381 -204 c 0
 322 -204 287 -173 287 -122 c 0
 287 -81 307 -51 357 -21 c 0
 365 -16 365 -16 395 0 c 1
 68 0 l 1
 205 739 l 1
 602 739 l 1
EndSplineSet
Ligature: 0 0 'liga' E uni0328
EndChar
StartChar: Gbreve
Encoding: 275 286 169
Width: 840
Flags: W
HStem: -13 132<426 460> 249 128<405 688> 620 132<535 561> 805 94<557 575>
VStem: 91 140<300 326>
Fore
382 249 m 1
 406 377 l 1
 888 377 l 1
 880 299 842 219 778 147 c 0
 687 44 564 -13 430 -13 c 0
 231 -13 91 117 91 300 c 0
 91 537 314 752 559 752 c 0
 658 752 748 716 808 653 c 0
 848 611 870 569 878 522 c 1
 717 522 l 1
 695 558 681 572 654 588 c 0
 617 610 582 620 537 620 c 0
 437 620 350 577 293 499 c 0
 254 446 231 380 231 324 c 0
 231 270 254 213 289 177 c 0
 327 139 382 119 448 119 c 0
 544 119 634 168 688 249 c 1
 382 249 l 1
415 941 m 1
 513 941 l 1
 519 913 539 899 573 899 c 0
 606 899 629 912 645 941 c 1
 744 941 l 1
 725 860 648 805 557 805 c 0
 468 805 414 849 414 922 c 0
 414 926 414 932 415 941 c 1
EndSplineSet
Ligature: 0 0 'liga' G uni0306
EndChar
StartChar: Idieresis
Encoding: 276 207 170
Width: 280
Flags: W
HStem: 0 21G<68 205> 719 20G<205 342> 805 132<137 246 347 456>
DStem: 138 937 271 937 113 805 246 805 205 739 342 739 68 0 205 0 348 937 481 937 323 805 456 805
Fore
68 0 m 1
 205 739 l 1
 342 739 l 1
 205 0 l 1
 68 0 l 1
113 805 m 1
 138 937 l 1
 271 937 l 1
 246 805 l 1
 113 805 l 1
323 805 m 1
 348 937 l 1
 481 937 l 1
 456 805 l 1
 323 805 l 1
EndSplineSet
Ligature: 0 0 'liga' I uni0308
EndChar
StartChar: Iacute
Encoding: 277 205 171
Width: 280
Flags: W
HStem: 0 21G<68 205> 719 20G<205 342>
DStem: 205 739 342 739 68 0 205 0
Fore
68 0 m 1
 205 739 l 1
 342 739 l 1
 205 0 l 1
 68 0 l 1
175 792 m 1
 135 880 l 1
 371 1007 l 1
 418 908 l 1
 175 792 l 1
EndSplineSet
Ligature: 0 0 'liga' I acutecomb
EndChar
StartChar: Igrave
Encoding: 278 204 172
Width: 280
Flags: W
HStem: 0 21G<68 205> 719 20G<205 342>
DStem: 175 916 245 1007 381 792 448 877 205 739 342 739 68 0 205 0
Fore
68 0 m 1
 205 739 l 1
 342 739 l 1
 205 0 l 1
 68 0 l 1
175 916 m 1
 245 1007 l 1
 448 877 l 1
 381 792 l 1
 175 916 l 1
EndSplineSet
Ligature: 0 0 'liga' I gravecomb
EndChar
StartChar: Icircumflex
Encoding: 279 206 173
Width: 280
Flags: W
HStem: 0 21G<68 205> 719 20G<205 342> 805 138<266 492>
DStem: 205 739 342 739 68 0 205 0 266 943 306 869 93 805 240 805
Fore
68 0 m 1
 205 739 l 1
 342 739 l 1
 205 0 l 1
 68 0 l 1
93 805 m 1
 266 943 l 1
 373 943 l 1
 492 805 l 1
 347 805 l 1
 306 869 l 1
 240 805 l 1
 93 805 l 1
EndSplineSet
Ligature: 0 0 'liga' I uni0302
EndChar
StartChar: Idotaccent
Encoding: 280 304 174
Width: 280
Flags: W
HStem: 0 21G<68 205> 719 20G<205 342>
DStem: 205 739 342 739 68 0 205 0 244 937 377 937 219 805 352 805
Fore
68 0 m 1
 205 739 l 1
 342 739 l 1
 205 0 l 1
 68 0 l 1
219 805 m 1
 244 937 l 1
 377 937 l 1
 352 805 l 1
 219 805 l 1
EndSplineSet
Ligature: 0 0 'liga' I uni0307
EndChar
StartChar: Lacute
Encoding: 281 313 175
Width: 440
Flags: W
HStem: 0 132<229 432> 719 20G<205 342>
DStem: 205 739 342 739 68 0 229 132
Fore
68 0 m 1
 205 739 l 1
 342 739 l 1
 229 132 l 1
 456 132 l 1
 432 0 l 1
 68 0 l 1
255 792 m 1
 215 880 l 1
 451 1007 l 1
 498 908 l 1
 255 792 l 1
EndSplineSet
Ligature: 0 0 'liga' L acutecomb
EndChar
StartChar: Lcaron
Encoding: 282 317 176
Width: 440
Flags: W
HStem: 0 132<229 432> 719 20G<205 342 426 531>
DStem: 205 739 342 739 68 0 229 132 426 739 531 739 333 547 437 547
Fore
68 0 m 1
 205 739 l 1
 342 739 l 1
 229 132 l 1
 456 132 l 1
 432 0 l 1
 68 0 l 1
333 547 m 1
 426 739 l 1
 531 739 l 1
 437 547 l 1
 333 547 l 1
EndSplineSet
Ligature: 0 0 'liga' L uni030C
EndChar
StartChar: Nacute
Encoding: 283 323 177
Width: 740
Flags: W
HStem: 0 21G<68 205 514 667> 719 20G<205 361 667 804>
DStem: 205 739 305 537 68 0 205 0 305 537 361 739 514 0 567 201 667 739 804 739 567 201 667 0
Fore
68 0 m 1
 205 739 l 1
 361 739 l 1
 567 201 l 1
 667 739 l 1
 804 739 l 1
 667 0 l 1
 514 0 l 1
 305 537 l 1
 205 0 l 1
 68 0 l 1
425 792 m 1
 385 880 l 1
 621 1007 l 1
 668 908 l 1
 425 792 l 1
EndSplineSet
Ligature: 0 0 'liga' N acutecomb
EndChar
StartChar: Ncaron
Encoding: 284 327 178
Width: 740
Flags: W
HStem: 0 21G<68 205 514 667> 719 20G<205 361 667 804> 805 138<334 562>
DStem: 205 739 305 537 68 0 205 0 305 537 361 739 514 0 567 201 667 739 804 739 567 201 667 0
Fore
68 0 m 1
 205 739 l 1
 361 739 l 1
 567 201 l 1
 667 739 l 1
 804 739 l 1
 667 0 l 1
 514 0 l 1
 305 537 l 1
 205 0 l 1
 68 0 l 1
334 943 m 1
 481 943 l 1
 523 879 l 1
 588 943 l 1
 733 943 l 1
 562 805 l 1
 455 805 l 1
 334 943 l 1
EndSplineSet
Ligature: 0 0 'liga' N uni030C
EndChar
StartChar: Ntilde
Encoding: 285 209 179
Width: 740
Flags: W
HStem: 0 21G<68 205 514 667> 719 20G<205 361 667 804> 806 103<566 584> 835 103<459 469>
DStem: 205 739 305 537 68 0 205 0 305 537 361 739 514 0 567 201 667 739 804 739 567 201 667 0
Fore
68 0 m 1xc0
 205 739 l 1
 361 739 l 1
 567 201 l 1
 667 739 l 1
 804 739 l 1
 667 0 l 1
 514 0 l 1
 305 537 l 1
 205 0 l 1
 68 0 l 1xc0
406 806 m 1xe0
 368 891 l 1
 382 905 390 911 403 919 c 0
 421 928 451 938 463 938 c 0xd0
 478 938 500 932 525 922 c 0
 553 910 558 909 575 909 c 0
 599 909 614 914 641 933 c 2
 656 943 l 1
 690 861 l 1
 660 823 625 806 582 806 c 0xe0
 565 806 557 808 520 820 c 0
 491 830 472 835 461 835 c 0xd0
 446 835 434 828 406 806 c 1xe0
EndSplineSet
Ligature: 0 0 'liga' N tildecomb
EndChar
StartChar: Odieresis
Encoding: 286 214 180
Width: 840
Flags: W
HStem: -13 132<416 444> 620 132<528 559> 805 132<421 530 631 740>
VStem: 91 140<300 325> 735 140<417 441>
DStem: 422 937 555 937 397 805 530 805 632 937 765 937 607 805 740 805
Fore
559 752 m 0
 743 752 875 622 875 439 c 0
 875 201 658 -13 416 -13 c 0
 227 -13 91 118 91 300 c 0
 91 401 137 513 212 595 c 0
 305 696 429 752 559 752 c 0
532 620 m 0
 439 620 356 578 297 501 c 0
 256 448 231 381 231 323 c 0
 231 204 318 119 440 119 c 0
 531 119 615 162 672 238 c 0
 711 290 735 359 735 419 c 0
 735 536 650 620 532 620 c 0
397 805 m 1
 422 937 l 1
 555 937 l 1
 530 805 l 1
 397 805 l 1
607 805 m 1
 632 937 l 1
 765 937 l 1
 740 805 l 1
 607 805 l 1
EndSplineSet
KernsSLIF: 89 -54 0 0 88 -39 0 0 87 -23 0 0 86 -42 0 0 84 -30 0 0 65 -44 0 0
Ligature: 0 0 'liga' O uni0308
EndChar
StartChar: Oacute
Encoding: 287 211 181
Width: 840
Flags: W
HStem: -13 132<416 444> 620 132<530 559>
VStem: 91 140<300 325> 735 140<417 441>
Fore
559 752 m 0
 743 752 875 622 875 439 c 0
 875 201 658 -13 416 -13 c 0
 227 -13 91 118 91 300 c 0
 91 401 137 513 212 595 c 0
 305 696 429 752 559 752 c 0
532 620 m 0
 439 620 356 578 297 501 c 0
 256 448 231 381 231 323 c 0
 231 204 318 119 440 119 c 0
 531 119 615 162 672 238 c 0
 711 290 735 359 735 419 c 0
 735 536 650 620 532 620 c 0
522 792 m 1
 482 880 l 1
 718 1007 l 1
 765 908 l 1
 522 792 l 1
EndSplineSet
KernsSLIF: 89 -54 0 0 87 -23 0 0 86 -42 0 0 84 -30 0 0 65 -44 0 0
Ligature: 0 0 'liga' O acutecomb
EndChar
StartChar: Ograve
Encoding: 288 210 182
Width: 840
Flags: W
HStem: -13 132<416 444> 620 132<530 559>
VStem: 91 140<300 325> 735 140<417 441>
DStem: 410 916 480 1007 616 792 683 877
Fore
559 752 m 0
 743 752 875 622 875 439 c 0
 875 201 658 -13 416 -13 c 0
 227 -13 91 118 91 300 c 0
 91 401 137 513 212 595 c 0
 305 696 429 752 559 752 c 0
532 620 m 0
 439 620 356 578 297 501 c 0
 256 448 231 381 231 323 c 0
 231 204 318 119 440 119 c 0
 531 119 615 162 672 238 c 0
 711 290 735 359 735 419 c 0
 735 536 650 620 532 620 c 0
410 916 m 1
 480 1007 l 1
 683 877 l 1
 616 792 l 1
 410 916 l 1
EndSplineSet
KernsSLIF: 89 -54 0 0 86 -42 0 0 84 -30 0 0
Ligature: 0 0 'liga' O gravecomb
EndChar
StartChar: Ocircumflex
Encoding: 289 212 183
Width: 840
Flags: W
HStem: -13 132<416 444> 620 132<530 559> 805 138<545 771>
VStem: 91 140<300 325> 735 140<417 441>
DStem: 545 943 585 869 372 805 519 805
Fore
559 752 m 0
 743 752 875 622 875 439 c 0
 875 201 658 -13 416 -13 c 0
 227 -13 91 118 91 300 c 0
 91 401 137 513 212 595 c 0
 305 696 429 752 559 752 c 0
532 620 m 0
 439 620 356 578 297 501 c 0
 256 448 231 381 231 323 c 0
 231 204 318 119 440 119 c 0
 531 119 615 162 672 238 c 0
 711 290 735 359 735 419 c 0
 735 536 650 620 532 620 c 0
372 805 m 1
 545 943 l 1
 652 943 l 1
 771 805 l 1
 626 805 l 1
 585 869 l 1
 519 805 l 1
 372 805 l 1
EndSplineSet
KernsSLIF: 89 -54 0 0 86 -42 0 0 84 -30 0 0
Ligature: 0 0 'liga' O uni0302
EndChar
StartChar: Otilde
Encoding: 290 213 184
Width: 840
Flags: W
HStem: -13 132<416 444> 620 132<530 559> 806 103<627 638> 835 103<513 524>
VStem: 91 140<300 325> 735 140<417 441>
Fore
559 752 m 0xcc
 743 752 875 622 875 439 c 0
 875 201 658 -13 416 -13 c 0
 227 -13 91 118 91 300 c 0
 91 401 137 513 212 595 c 0
 305 696 429 752 559 752 c 0xcc
532 620 m 0
 439 620 356 578 297 501 c 0
 256 448 231 381 231 323 c 0
 231 204 318 119 440 119 c 0
 531 119 615 162 672 238 c 0
 711 290 735 359 735 419 c 0
 735 536 650 620 532 620 c 0
460 806 m 1xec
 422 891 l 1
 436 905 444 911 457 919 c 0
 475 928 505 938 517 938 c 0xdc
 532 938 554 932 579 922 c 0
 607 910 612 909 629 909 c 0
 653 909 668 914 695 933 c 2
 710 943 l 1
 744 861 l 1
 714 823 679 806 636 806 c 0xec
 619 806 611 808 574 820 c 0
 545 830 526 835 515 835 c 0xdc
 500 835 488 828 460 806 c 1xec
EndSplineSet
KernsSLIF: 89 -54 0 0 86 -42 0 0 84 -30 0 0
Ligature: 0 0 'liga' O tildecomb
EndChar
StartChar: Ohungarumlaut
Encoding: 291 336 185
Width: 840
Flags: W
HStem: -13 132<416 444> 620 132<530 559>
VStem: 91 140<300 325> 735 140<417 441>
Fore
559 752 m 0
 743 752 875 622 875 439 c 0
 875 201 658 -13 416 -13 c 0
 227 -13 91 118 91 300 c 0
 91 401 137 513 212 595 c 0
 305 696 429 752 559 752 c 0
532 620 m 0
 439 620 356 578 297 501 c 0
 256 448 231 381 231 323 c 0
 231 204 318 119 440 119 c 0
 531 119 615 162 672 238 c 0
 711 290 735 359 735 419 c 0
 735 536 650 620 532 620 c 0
274 871 m 1
 504 1013 l 1
 556 924 l 1
 312 792 l 1
 274 871 l 1
556 871 m 1
 787 1013 l 1
 838 924 l 1
 595 792 l 1
 556 871 l 1
EndSplineSet
Ligature: 0 0 'liga' O uni030B
EndChar
StartChar: Racute
Encoding: 292 340 186
Width: 580
Flags: W
HStem: 0 21G<68 205 399 568> 607 132<205 405>
VStem: 517 140<521 553>
DStem: 205 739 318 607 68 0 277 386 205 739 257 283 68 0 205 0
Fore
68 0 m 1
 205 739 l 1
 418 739 l 2
 517 739 570 724 608 683 c 0
 641 649 657 605 657 553 c 0
 657 480 629 409 581 359 c 0
 540 316 493 291 419 273 c 1
 568 0 l 1
 399 0 l 1
 257 283 l 1
 205 0 l 1
 68 0 l 1
277 386 m 1
 344 386 l 2
 419 386 455 398 483 431 c 0
 503 454 517 491 517 521 c 0
 517 551 504 577 483 590 c 0
 464 601 430 607 379 607 c 2
 318 607 l 1
 277 386 l 1
325 792 m 1
 285 880 l 1
 521 1007 l 1
 568 908 l 1
 325 792 l 1
EndSplineSet
Ligature: 0 0 'liga' R acutecomb
EndChar
StartChar: Rcaron
Encoding: 293 344 187
Width: 580
Flags: W
HStem: 0 21G<68 205 399 568> 607 132<205 405> 805 138<234 462>
VStem: 517 140<521 553>
DStem: 205 739 318 607 68 0 277 386 205 739 257 283 68 0 205 0
Fore
68 0 m 1
 205 739 l 1
 418 739 l 2
 517 739 570 724 608 683 c 0
 641 649 657 605 657 553 c 0
 657 480 629 409 581 359 c 0
 540 316 493 291 419 273 c 1
 568 0 l 1
 399 0 l 1
 257 283 l 1
 205 0 l 1
 68 0 l 1
277 386 m 1
 344 386 l 2
 419 386 455 398 483 431 c 0
 503 454 517 491 517 521 c 0
 517 551 504 577 483 590 c 0
 464 601 430 607 379 607 c 2
 318 607 l 1
 277 386 l 1
234 943 m 1
 381 943 l 1
 423 879 l 1
 488 943 l 1
 633 943 l 1
 462 805 l 1
 355 805 l 1
 234 943 l 1
EndSplineSet
Ligature: 0 0 'liga' R uni030C
EndChar
StartChar: Sacute
Encoding: 294 346 188
Width: 520
Flags: W
HStem: -13 132<256 278> 620 132<368 392>
VStem: 49 144<171 196> 137 140<506 529> 398 140<227 265> 434 145<542 589>
Fore
51 211 m 1xe8
 194 211 l 1
 193 203 193 196 193 190 c 0
 193 146 225 119 278 119 c 0
 344 119 398 167 398 227 c 0xe8
 398 250 390 271 376 284 c 0
 357 300 352 303 258 341 c 0
 175 374 137 426 137 506 c 0
 137 635 258 752 392 752 c 0
 499 752 579 682 579 589 c 0
 579 577 578 561 575 542 c 1
 434 542 l 1
 434 573 433 579 427 591 c 0
 418 609 395 620 368 620 c 0
 318 620 277 579 277 529 c 0xd4
 277 511 289 491 307 478 c 0
 320 469 326 466 383 445 c 0
 493 404 538 352 538 265 c 0
 538 120 403 -13 256 -13 c 0
 199 -13 139 7 105 38 c 0
 71 69 49 122 49 171 c 0
 49 182 50 195 51 211 c 1xe8
295 792 m 1
 255 880 l 1
 491 1007 l 1
 538 908 l 1
 295 792 l 1
EndSplineSet
Ligature: 0 0 'liga' S acutecomb
EndChar
StartChar: Scaron
Encoding: 295 352 189
Width: 520
Flags: W
HStem: -13 132<256 278> 620 132<368 392> 805 138<239 467>
VStem: 49 144<171 196> 137 140<506 529> 398 140<227 265> 434 145<542 589>
Fore
51 211 m 1xf4
 194 211 l 1
 193 203 193 196 193 190 c 0
 193 146 225 119 278 119 c 0
 344 119 398 167 398 227 c 0xf4
 398 250 390 271 376 284 c 0
 357 300 352 303 258 341 c 0
 175 374 137 426 137 506 c 0
 137 635 258 752 392 752 c 0
 499 752 579 682 579 589 c 0
 579 577 578 561 575 542 c 1
 434 542 l 1
 434 573 433 579 427 591 c 0
 418 609 395 620 368 620 c 0
 318 620 277 579 277 529 c 0xea
 277 511 289 491 307 478 c 0
 320 469 326 466 383 445 c 0
 493 404 538 352 538 265 c 0
 538 120 403 -13 256 -13 c 0
 199 -13 139 7 105 38 c 0
 71 69 49 122 49 171 c 0
 49 182 50 195 51 211 c 1xf4
239 943 m 1
 386 943 l 1
 428 879 l 1
 493 943 l 1
 638 943 l 1
 467 805 l 1
 360 805 l 1
 239 943 l 1
EndSplineSet
Ligature: 0 0 'liga' S uni030C
EndChar
StartChar: Scedilla
Encoding: 296 350 190
Width: 520
Flags: W
HStem: -251 56<221 228> -106 55<243 258> -13 132<252 278> 620 132<368 392>
VStem: 49 144<171 192> 137 140<506 529> 274 60<-140 -127> 398 140<227 265> 434 145<542 589>
DStem: 203 -8 252 -13 151 -107 227 -58
Fore
252 -13 m 1xf5
 227 -58 l 1
 241 -53 248 -51 258 -51 c 0
 302 -51 334 -84 334 -127 c 0
 334 -154 324 -185 307 -209 c 0
 287 -238 261 -251 223 -251 c 0
 166 -251 131 -219 132 -166 c 1
 192 -166 l 1
 194 -172 l 2
 199 -188 209 -195 226 -195 c 0
 250 -195 274 -167 274 -137 c 0
 274 -119 261 -106 243 -106 c 0
 226 -106 213 -114 199 -133 c 1
 151 -107 l 1
 203 -8 l 1
 172 -1 149 8 127 22 c 0
 80 50 49 110 49 171 c 0
 49 182 50 195 51 211 c 1
 194 211 l 1
 193 203 193 196 193 190 c 0
 193 146 225 119 278 119 c 0
 344 119 398 167 398 227 c 0xfb
 398 250 390 271 376 284 c 0
 357 300 352 303 258 341 c 0
 175 374 137 426 137 506 c 0
 137 635 258 752 392 752 c 0
 499 752 579 682 579 589 c 0
 579 577 578 561 575 542 c 1
 434 542 l 1xf480
 434 573 433 579 427 591 c 0
 418 609 395 620 368 620 c 0
 318 620 277 579 277 529 c 0
 277 511 289 490 307 478 c 0
 319 469 326 466 383 445 c 0
 493 404 538 352 538 265 c 0
 538 191 500 113 437 58 c 0
 381 10 324 -13 252 -13 c 1xf5
EndSplineSet
Ligature: 0 0 'liga' S uni0327
EndChar
StartChar: Tcaron
Encoding: 297 356 191
Width: 420
Flags: W
HStem: 0 21G<142 279> 607 132<142 255 143 531> 805 138<174 402>
DStem: 255 607 392 607 142 0 279 0
Fore
142 0 m 1
 255 607 l 1
 119 607 l 1
 143 739 l 1
 555 739 l 1
 531 607 l 1
 392 607 l 1
 279 0 l 1
 142 0 l 1
174 943 m 1
 321 943 l 1
 363 879 l 1
 428 943 l 1
 573 943 l 1
 402 805 l 1
 295 805 l 1
 174 943 l 1
EndSplineSet
Ligature: 0 0 'liga' T uni030C
EndChar
StartChar: Udieresis
Encoding: 298 220 192
Width: 640
Flags: W
HStem: -13 132<315 339> 719 20G<205 342 567 704> 805 132<317 426 527 636>
VStem: 109 138<176 203>
DStem: 205 739 342 739 119 271 256 271 318 937 451 937 293 805 426 805 528 937 661 937 503 805 636 805 567 739 704 739 481 271 618 271
Fore
205 739 m 1
 342 739 l 1
 256 271 l 2
 250 239 247 215 247 201 c 0
 247 156 289 119 339 119 c 0
 379 119 418 138 443 169 c 0
 461 192 472 220 481 271 c 1
 567 739 l 1
 704 739 l 1
 618 271 l 1
 603 188 576 128 533 82 c 0
 478 24 394 -13 315 -13 c 0
 196 -13 109 67 109 176 c 0
 109 203 112 235 119 271 c 1
 205 739 l 1
293 805 m 1
 318 937 l 1
 451 937 l 1
 426 805 l 1
 293 805 l 1
503 805 m 1
 528 937 l 1
 661 937 l 1
 636 805 l 1
 503 805 l 1
EndSplineSet
KernsSLIF: 114 2 0 0 46 -12 0 0 112 1 0 0 110 2 0 0 109 2 0 0 44 -15 0 0 98 1 0 0 65 -37 0 0
Ligature: 0 0 'liga' U uni0308
EndChar
StartChar: Uacute
Encoding: 299 218 193
Width: 640
Flags: W
HStem: -13 132<315 339> 719 20G<205 342 567 704>
VStem: 109 138<176 203>
DStem: 205 739 342 739 119 271 256 271 567 739 704 739 481 271 618 271
Fore
205 739 m 1
 342 739 l 1
 256 271 l 2
 250 239 247 215 247 201 c 0
 247 156 289 119 339 119 c 0
 379 119 418 138 443 169 c 0
 461 192 472 220 481 271 c 1
 567 739 l 1
 704 739 l 1
 618 271 l 1
 603 188 576 128 533 82 c 0
 478 24 394 -13 315 -13 c 0
 196 -13 109 67 109 176 c 0
 109 203 112 235 119 271 c 1
 205 739 l 1
425 792 m 1
 385 880 l 1
 621 1007 l 1
 668 908 l 1
 425 792 l 1
EndSplineSet
KernsSLIF: 114 2 0 0 46 -12 0 0 112 1 0 0 110 2 0 0 109 2 0 0 44 -15 0 0 65 -37 0 0
Ligature: 0 0 'liga' U acutecomb
EndChar
StartChar: Ugrave
Encoding: 300 217 194
Width: 640
Flags: W
HStem: -13 132<315 339> 719 20G<205 342 567 704>
VStem: 109 138<176 203>
DStem: 205 739 342 739 119 271 256 271 293 916 363 1007 499 792 566 877 567 739 704 739 481 271 618 271
Fore
205 739 m 1
 342 739 l 1
 256 271 l 2
 250 239 247 215 247 201 c 0
 247 156 289 119 339 119 c 0
 379 119 418 138 443 169 c 0
 461 192 472 220 481 271 c 1
 567 739 l 1
 704 739 l 1
 618 271 l 1
 603 188 576 128 533 82 c 0
 478 24 394 -13 315 -13 c 0
 196 -13 109 67 109 176 c 0
 109 203 112 235 119 271 c 1
 205 739 l 1
293 916 m 1
 363 1007 l 1
 566 877 l 1
 499 792 l 1
 293 916 l 1
EndSplineSet
KernsSLIF: 65 -37 0 0
Ligature: 0 0 'liga' U gravecomb
EndChar
StartChar: Ucircumflex
Encoding: 301 219 195
Width: 640
Flags: W
HStem: -13 132<315 339> 719 20G<205 342 567 704> 805 138<441 667>
VStem: 109 138<176 203>
DStem: 205 739 342 739 119 271 256 271 441 943 481 869 268 805 415 805 567 739 704 739 481 271 618 271
Fore
205 739 m 1
 342 739 l 1
 256 271 l 2
 250 239 247 215 247 201 c 0
 247 156 289 119 339 119 c 0
 379 119 418 138 443 169 c 0
 461 192 472 220 481 271 c 1
 567 739 l 1
 704 739 l 1
 618 271 l 1
 603 188 576 128 533 82 c 0
 478 24 394 -13 315 -13 c 0
 196 -13 109 67 109 176 c 0
 109 203 112 235 119 271 c 1
 205 739 l 1
268 805 m 1
 441 943 l 1
 548 943 l 1
 667 805 l 1
 522 805 l 1
 481 869 l 1
 415 805 l 1
 268 805 l 1
EndSplineSet
KernsSLIF: 65 -37 0 0
Ligature: 0 0 'liga' U uni0302
EndChar
StartChar: Uring
Encoding: 302 366 196
Width: 640
Flags: W
HStem: -13 132<315 339> 719 20G<205 342 567 704> 792 67<461 475> 931 67<486 501>
VStem: 109 138<176 203> 376 68<875 890> 518 68<900 915>
DStem: 205 739 342 739 119 271 256 271 567 739 704 739 481 271 618 271
Fore
205 739 m 1
 342 739 l 1
 256 271 l 2
 250 239 247 215 247 201 c 0
 247 156 289 119 339 119 c 0
 379 119 418 138 443 169 c 0
 461 192 472 220 481 271 c 1
 567 739 l 1
 704 739 l 1
 618 271 l 1
 603 188 576 128 533 82 c 0
 478 24 394 -13 315 -13 c 0
 196 -13 109 67 109 176 c 0
 109 203 112 235 119 271 c 1
 205 739 l 1
501 998 m 0
 549 998 586 962 586 915 c 0
 586 851 527 792 461 792 c 0
 413 792 376 828 376 875 c 0
 376 940 435 998 501 998 c 0
488 931 m 0
 466 931 444 910 444 888 c 0
 444 872 458 859 475 859 c 0
 496 859 518 880 518 901 c 0
 518 917 504 931 488 931 c 0
EndSplineSet
Ligature: 0 0 'liga' U uni030A
EndChar
StartChar: Uhungarumlaut
Encoding: 303 368 197
Width: 640
Flags: W
HStem: -13 132<315 339> 719 20G<205 342 567 704>
VStem: 109 138<176 203>
DStem: 205 739 342 739 119 271 256 271 567 739 704 739 481 271 618 271
Fore
205 739 m 1
 342 739 l 1
 256 271 l 2
 250 239 247 215 247 201 c 0
 247 156 289 119 339 119 c 0
 379 119 418 138 443 169 c 0
 461 192 472 220 481 271 c 1
 567 739 l 1
 704 739 l 1
 618 271 l 1
 603 188 576 128 533 82 c 0
 478 24 394 -13 315 -13 c 0
 196 -13 109 67 109 176 c 0
 109 203 112 235 119 271 c 1
 205 739 l 1
254 871 m 1
 484 1013 l 1
 536 924 l 1
 292 792 l 1
 254 871 l 1
536 871 m 1
 767 1013 l 1
 818 924 l 1
 575 792 l 1
 536 871 l 1
EndSplineSet
Ligature: 0 0 'liga' U uni030B
EndChar
StartChar: Yacute
Encoding: 304 221 198
Width: 620
Flags: W
HStem: 0 21G<246 383> 719 20G<140 288 615 763>
DStem: 297 273 434 273 246 0 383 0
Fore
246 0 m 1
 297 273 l 1
 140 739 l 1
 288 739 l 1
 388 399 l 1
 615 739 l 1
 763 739 l 1
 434 273 l 1
 383 0 l 1
 246 0 l 1
417 792 m 1
 377 880 l 1
 613 1007 l 1
 660 908 l 1
 417 792 l 1
EndSplineSet
MinimumDistance: x2,6 
Ligature: 0 0 'liga' Y acutecomb
EndChar
StartChar: Zacute
Encoding: 305 377 199
Width: 500
Flags: W
HStem: 0 132<207 480> 607 132<169 411>
DStem: 411 607 575 615 39 117 207 132
Fore
39 117 m 1
 411 607 l 1
 146 607 l 1
 170 739 l 1
 598 739 l 1
 575 615 l 1
 207 132 l 1
 504 132 l 1
 480 0 l 1
 18 0 l 1
 39 117 l 1
305 792 m 1
 265 880 l 1
 501 1007 l 1
 548 908 l 1
 305 792 l 1
EndSplineSet
Ligature: 0 0 'liga' Z acutecomb
EndChar
StartChar: Zcaron
Encoding: 306 381 200
Width: 500
Flags: W
HStem: 0 132<207 480> 607 132<169 411> 805 138<219 447>
DStem: 411 607 575 615 39 117 207 132
Fore
39 117 m 1
 411 607 l 1
 146 607 l 1
 170 739 l 1
 598 739 l 1
 575 615 l 1
 207 132 l 1
 504 132 l 1
 480 0 l 1
 18 0 l 1
 39 117 l 1
219 943 m 1
 366 943 l 1
 408 879 l 1
 473 943 l 1
 618 943 l 1
 447 805 l 1
 340 805 l 1
 219 943 l 1
EndSplineSet
Ligature: 0 0 'liga' Z uni030C
EndChar
StartChar: Zdotaccent
Encoding: 307 379 201
Width: 500
Flags: W
HStem: 0 132<207 480> 607 132<169 411>
DStem: 344 937 477 937 319 805 452 805 411 607 575 615 39 117 207 132
Fore
39 117 m 1
 411 607 l 1
 146 607 l 1
 170 739 l 1
 598 739 l 1
 575 615 l 1
 207 132 l 1
 504 132 l 1
 480 0 l 1
 18 0 l 1
 39 117 l 1
319 805 m 1
 344 937 l 1
 477 937 l 1
 452 805 l 1
 319 805 l 1
EndSplineSet
Ligature: 0 0 'liga' Z uni0307
EndChar
StartChar: Amacron
Encoding: 308 256 202
Width: 740
Flags: W
HStem: 0 21G<7 158 582 733> 191 132<350 538> 719 20G<452 560> 825 99<385 648>
DStem: 452 739 275 191 7 0 158 0 538 191 560 739 582 0 733 0
Fore
7 0 m 1
 452 739 l 1
 560 739 l 1
 733 0 l 1
 582 0 l 1
 538 191 l 1
 275 191 l 1
 158 0 l 1
 7 0 l 1
350 323 m 1
 508 323 l 1
 470 546 l 1
 350 323 l 1
369 825 m 1
 386 924 l 1
 666 924 l 1
 648 825 l 1
 369 825 l 1
EndSplineSet
Ligature: 0 0 'liga' A uni0304
EndChar
StartChar: Tcommaaccent
Encoding: 309 354 203
Width: 420
Flags: W
HStem: 0 21G<142 279> 607 132<142 255 143 531>
DStem: 176 -53 281 -53 83 -245 187 -245 255 607 392 607 142 0 279 0
Fore
142 0 m 1
 255 607 l 1
 119 607 l 1
 143 739 l 1
 555 739 l 1
 531 607 l 1
 392 607 l 1
 279 0 l 1
 142 0 l 1
83 -245 m 1
 176 -53 l 1
 281 -53 l 1
 187 -245 l 1
 83 -245 l 1
EndSplineSet
Ligature: 0 0 'liga' T uni0327
EndChar
StartChar: Ydieresis
Encoding: 310 376 204
Width: 620
Flags: W
HStem: 0 21G<246 383> 719 20G<140 288 615 763> 805 132<314 423 524 633>
DStem: 297 273 434 273 246 0 383 0 315 937 448 937 290 805 423 805 525 937 658 937 500 805 633 805
Fore
246 0 m 1
 297 273 l 1
 140 739 l 1
 288 739 l 1
 388 399 l 1
 615 739 l 1
 763 739 l 1
 434 273 l 1
 383 0 l 1
 246 0 l 1
290 805 m 1
 315 937 l 1
 448 937 l 1
 423 805 l 1
 290 805 l 1
500 805 m 1
 525 937 l 1
 658 937 l 1
 633 805 l 1
 500 805 l 1
EndSplineSet
MinimumDistance: x2,6 
Ligature: 0 0 'liga' Y uni0308
EndChar
StartChar: Emacron
Encoding: 311 274 205
Width: 520
Flags: W
HStem: 0 132<229 465> 303 132<285 510> 607 132<205 578> 825 99<295 558>
DStem: 205 739 318 607 68 0 285 435 205 739 261 303 68 0 229 132
Fore
68 0 m 1
 205 739 l 1
 602 739 l 1
 578 607 l 1
 318 607 l 1
 285 435 l 1
 534 435 l 1
 510 303 l 1
 261 303 l 1
 229 132 l 1
 489 132 l 1
 465 0 l 1
 68 0 l 1
279 825 m 1
 296 924 l 1
 576 924 l 1
 558 825 l 1
 279 825 l 1
EndSplineSet
Ligature: 0 0 'liga' E uni0304
EndChar
StartChar: Imacron
Encoding: 312 298 206
Width: 280
Flags: W
HStem: 0 21G<68 205> 719 20G<205 342> 825 99<155 418>
DStem: 205 739 342 739 68 0 205 0
Fore
68 0 m 1
 205 739 l 1
 342 739 l 1
 205 0 l 1
 68 0 l 1
139 825 m 1
 156 924 l 1
 436 924 l 1
 418 825 l 1
 139 825 l 1
EndSplineSet
Ligature: 0 0 'liga' I uni0304
EndChar
StartChar: Iogonek
Encoding: 313 302 207
Width: 280
Flags: W
HStem: -204 80<121 162> -20 20G<68 135> 719 20G<205 342>
VStem: 27 96<-122 -92>
DStem: 205 739 342 739 68 0 205 0
Fore
342 739 m 1
 205 0 l 1
 146 -34 123 -60 123 -92 c 0
 123 -113 137 -124 162 -124 c 0
 176 -124 187 -121 210 -113 c 1
 195 -190 l 1
 164 -201 147 -204 121 -204 c 0
 62 -204 27 -173 27 -122 c 0
 27 -81 47 -51 97 -21 c 0
 105 -16 105 -16 135 0 c 1
 68 0 l 1
 205 739 l 1
 342 739 l 1
EndSplineSet
Ligature: 0 0 'liga' I uni0328
EndChar
StartChar: Kcommaaccent
Encoding: 314 310 208
Width: 620
Flags: W
HStem: 0 21G<68 205 435 599> 719 20G<205 342 572 736>
DStem: 205 739 342 739 68 0 283 420 205 739 265 325 68 0 205 0 276 -53 381 -53 183 -245 287 -245
Fore
68 0 m 1
 205 739 l 1
 342 739 l 1
 283 420 l 1
 572 739 l 1
 736 739 l 1
 392 376 l 1
 599 0 l 1
 435 0 l 1
 265 325 l 1
 205 0 l 1
 68 0 l 1
183 -245 m 1
 276 -53 l 1
 381 -53 l 1
 287 -245 l 1
 183 -245 l 1
EndSplineSet
Ligature: 0 0 'liga' K uni0327
EndChar
StartChar: Lcommaaccent
Encoding: 315 315 209
Width: 440
Flags: W
HStem: 0 132<229 432> 719 20G<205 342>
DStem: 186 -53 291 -53 93 -245 197 -245 205 739 342 739 68 0 229 132
Fore
68 0 m 1
 205 739 l 1
 342 739 l 1
 229 132 l 1
 456 132 l 1
 432 0 l 1
 68 0 l 1
93 -245 m 1
 186 -53 l 1
 291 -53 l 1
 197 -245 l 1
 93 -245 l 1
EndSplineSet
Ligature: 0 0 'liga' L uni0327
EndChar
StartChar: Ncommaaccent
Encoding: 316 325 210
Width: 740
Flags: W
HStem: 0 21G<68 205 514 667> 719 20G<205 361 667 804>
DStem: 205 739 305 537 68 0 205 0 305 537 361 739 514 0 567 201 336 -53 441 -53 243 -245 347 -245 667 739 804 739 567 201 667 0
Fore
68 0 m 1
 205 739 l 1
 361 739 l 1
 567 201 l 1
 667 739 l 1
 804 739 l 1
 667 0 l 1
 514 0 l 1
 305 537 l 1
 205 0 l 1
 68 0 l 1
243 -245 m 1
 336 -53 l 1
 441 -53 l 1
 347 -245 l 1
 243 -245 l 1
EndSplineSet
Ligature: 0 0 'liga' N uni0327
EndChar
StartChar: Omacron
Encoding: 317 332 211
Width: 840
Flags: W
HStem: -13 132<416 444> 620 132<530 559> 825 99<425 688>
VStem: 91 140<300 325> 735 140<417 441>
Fore
559 752 m 0
 743 752 875 622 875 439 c 0
 875 201 658 -13 416 -13 c 0
 227 -13 91 118 91 300 c 0
 91 401 137 513 212 595 c 0
 305 696 429 752 559 752 c 0
532 620 m 0
 439 620 356 578 297 501 c 0
 256 448 231 381 231 323 c 0
 231 204 318 119 440 119 c 0
 531 119 615 162 672 238 c 0
 711 290 735 359 735 419 c 0
 735 536 650 620 532 620 c 0
409 825 m 1
 426 924 l 1
 706 924 l 1
 688 825 l 1
 409 825 l 1
EndSplineSet
Ligature: 0 0 'liga' O uni0304
EndChar
StartChar: Rcommaaccent
Encoding: 318 342 212
Width: 580
Flags: W
HStem: 0 21G<68 205 399 568> 607 132<205 405>
VStem: 517 140<521 553>
DStem: 205 739 318 607 68 0 277 386 205 739 257 283 68 0 205 0 256 -53 361 -53 163 -245 267 -245
Fore
68 0 m 1
 205 739 l 1
 418 739 l 2
 517 739 570 724 608 683 c 0
 641 649 657 605 657 553 c 0
 657 480 629 409 581 359 c 0
 540 316 493 291 419 273 c 1
 568 0 l 1
 399 0 l 1
 257 283 l 1
 205 0 l 1
 68 0 l 1
277 386 m 1
 344 386 l 2
 419 386 455 398 483 431 c 0
 503 454 517 491 517 521 c 0
 517 551 504 577 483 590 c 0
 464 601 430 607 379 607 c 2
 318 607 l 1
 277 386 l 1
163 -245 m 1
 256 -53 l 1
 361 -53 l 1
 267 -245 l 1
 163 -245 l 1
EndSplineSet
Ligature: 0 0 'liga' R uni0327
EndChar
StartChar: Gcommaaccent
Encoding: 319 290 213
Width: 840
Flags: W
HStem: -13 132<426 460> 249 128<405 688> 620 132<535 561>
VStem: 91 140<300 326>
DStem: 386 -53 491 -53 293 -245 397 -245
Fore
382 249 m 1
 406 377 l 1
 888 377 l 1
 880 299 842 219 778 147 c 0
 687 44 564 -13 430 -13 c 0
 231 -13 91 117 91 300 c 0
 91 537 314 752 559 752 c 0
 658 752 748 716 808 653 c 0
 848 611 870 569 878 522 c 1
 717 522 l 1
 695 558 681 572 654 588 c 0
 617 610 582 620 537 620 c 0
 437 620 350 577 293 499 c 0
 254 446 231 380 231 324 c 0
 231 270 254 213 289 177 c 0
 327 139 382 119 448 119 c 0
 544 119 634 168 688 249 c 1
 382 249 l 1
293 -245 m 1
 386 -53 l 1
 491 -53 l 1
 397 -245 l 1
 293 -245 l 1
EndSplineSet
Ligature: 0 0 'liga' G uni0327
EndChar
StartChar: Umacron
Encoding: 320 362 214
Width: 640
Flags: W
HStem: -13 132<315 339> 719 20G<205 342 567 704> 825 99<335 598>
VStem: 109 138<176 203>
DStem: 205 739 342 739 119 271 256 271 567 739 704 739 481 271 618 271
Fore
205 739 m 1
 342 739 l 1
 256 271 l 2
 250 239 247 215 247 201 c 0
 247 156 289 119 339 119 c 0
 379 119 418 138 443 169 c 0
 461 192 472 220 481 271 c 1
 567 739 l 1
 704 739 l 1
 618 271 l 1
 603 188 576 128 533 82 c 0
 478 24 394 -13 315 -13 c 0
 196 -13 109 67 109 176 c 0
 109 203 112 235 119 271 c 1
 205 739 l 1
319 825 m 1
 336 924 l 1
 616 924 l 1
 598 825 l 1
 319 825 l 1
EndSplineSet
Ligature: 0 0 'liga' U uni0304
EndChar
StartChar: Uogonek
Encoding: 321 370 215
Width: 640
Flags: W
HStem: -204 80<376 417> -13 132<315 339> 719 20G<205 342 567 704>
VStem: 109 138<176 203> 282 96<-122 -92>
DStem: 205 739 342 739 119 271 256 271 567 739 704 739 481 271 618 271
Fore
567 739 m 1
 704 739 l 1
 618 271 l 1
 589 136 571 109 417 -28 c 1
 387 -56 378 -70 378 -92 c 0
 378 -113 392 -124 417 -124 c 0
 431 -124 442 -121 465 -113 c 1
 450 -190 l 1
 419 -201 402 -204 376 -204 c 0
 317 -204 282 -173 282 -122 c 0
 282 -73 304 -47 381 -5 c 1
 352 -11 337 -13 315 -13 c 0
 196 -13 109 67 109 176 c 0
 109 203 112 235 119 271 c 1
 205 739 l 1
 342 739 l 1
 256 271 l 2
 250 239 247 215 247 201 c 0
 247 156 289 119 339 119 c 0
 379 119 418 138 443 169 c 0
 461 192 472 220 481 271 c 1
 567 739 l 1
EndSplineSet
Ligature: 0 0 'liga' U uni0328
EndChar
StartChar: adieresis
Encoding: 322 228 216
Width: 660
Flags: W
HStem: -13 122<307 347> 445 122<394 429> 630 132<318 427 528 637>
VStem: 75 137<213 240>
DStem: 319 762 452 762 294 630 427 630 529 762 662 762 504 630 637 630
Fore
718 554 m 1
 616 0 l 1
 494 0 l 1
 507 72 l 1
 445 13 385 -13 307 -13 c 0
 167 -13 75 77 75 213 c 0
 75 406 232 567 420 567 c 0
 498 567 551 539 583 480 c 1
 596 554 l 1
 718 554 l 1
410 445 m 0
 304 445 212 350 212 240 c 0
 212 160 265 109 347 109 c 0
 416 109 469 137 507 191 c 0
 530 226 544 271 544 313 c 0
 544 394 492 445 410 445 c 0
294 630 m 1
 319 762 l 1
 452 762 l 1
 427 630 l 1
 294 630 l 1
504 630 m 1
 529 762 l 1
 662 762 l 1
 637 630 l 1
 504 630 l 1
EndSplineSet
KernsSLIF: 121 -7 0 0 119 -5 0 0 118 -4 0 0
Ligature: 0 0 'liga' a uni0308
EndChar
StartChar: aacute
Encoding: 323 225 217
Width: 660
Flags: W
HStem: -13 122<307 347> 445 122<394 428>
VStem: 75 137<213 240>
Fore
718 554 m 1
 616 0 l 1
 494 0 l 1
 507 72 l 1
 445 13 385 -13 307 -13 c 0
 167 -13 75 77 75 213 c 0
 75 406 232 567 420 567 c 0
 498 567 551 539 583 480 c 1
 596 554 l 1
 718 554 l 1
410 445 m 0
 304 445 212 350 212 240 c 0
 212 160 265 109 347 109 c 0
 416 109 469 137 507 191 c 0
 530 226 544 271 544 313 c 0
 544 394 492 445 410 445 c 0
415 617 m 1
 375 705 l 1
 611 832 l 1
 658 733 l 1
 415 617 l 1
EndSplineSet
KernsSLIF: 121 -7 0 0 119 -5 0 0 118 -4 0 0
Ligature: 0 0 'liga' a acutecomb
EndChar
StartChar: agrave
Encoding: 324 224 218
Width: 660
Flags: W
HStem: -13 122<307 347> 445 122<394 428>
VStem: 75 137<213 240>
DStem: 287 741 357 832 493 617 560 702
Fore
718 554 m 1
 616 0 l 1
 494 0 l 1
 507 72 l 1
 445 13 385 -13 307 -13 c 0
 167 -13 75 77 75 213 c 0
 75 406 232 567 420 567 c 0
 498 567 551 539 583 480 c 1
 596 554 l 1
 718 554 l 1
410 445 m 0
 304 445 212 350 212 240 c 0
 212 160 265 109 347 109 c 0
 416 109 469 137 507 191 c 0
 530 226 544 271 544 313 c 0
 544 394 492 445 410 445 c 0
287 741 m 1
 357 832 l 1
 560 702 l 1
 493 617 l 1
 287 741 l 1
EndSplineSet
KernsSLIF: 121 -7 0 0 119 -5 0 0 118 -4 0 0
Ligature: 0 0 'liga' a gravecomb
EndChar
StartChar: acircumflex
Encoding: 325 226 219
Width: 660
Flags: W
HStem: -13 122<307 347> 445 122<394 428> 630 138<439 665>
VStem: 75 137<213 240>
DStem: 439 768 479 694 266 630 413 630
Fore
718 554 m 1
 616 0 l 1
 494 0 l 1
 507 72 l 1
 445 13 385 -13 307 -13 c 0
 167 -13 75 77 75 213 c 0
 75 406 232 567 420 567 c 0
 498 567 551 539 583 480 c 1
 596 554 l 1
 718 554 l 1
410 445 m 0
 304 445 212 350 212 240 c 0
 212 160 265 109 347 109 c 0
 416 109 469 137 507 191 c 0
 530 226 544 271 544 313 c 0
 544 394 492 445 410 445 c 0
266 630 m 1
 439 768 l 1
 546 768 l 1
 665 630 l 1
 520 630 l 1
 479 694 l 1
 413 630 l 1
 266 630 l 1
EndSplineSet
Ligature: 0 0 'liga' a uni0302
EndChar
StartChar: abreve
Encoding: 326 259 220
Width: 660
Flags: W
HStem: -13 122<307 347> 445 122<394 428> 630 94<447 466>
VStem: 75 137<213 240>
Fore
718 554 m 1
 616 0 l 1
 494 0 l 1
 507 72 l 1
 445 13 385 -13 307 -13 c 0
 167 -13 75 77 75 213 c 0
 75 406 232 567 420 567 c 0
 498 567 551 539 583 480 c 1
 596 554 l 1
 718 554 l 1
410 445 m 0
 304 445 212 350 212 240 c 0
 212 160 265 109 347 109 c 0
 416 109 469 137 507 191 c 0
 530 226 544 271 544 313 c 0
 544 394 492 445 410 445 c 0
305 766 m 1
 403 766 l 1
 409 738 429 724 464 724 c 0
 496 724 519 738 535 766 c 1
 634 766 l 1
 615 685 538 630 447 630 c 0
 358 630 304 674 304 747 c 0
 304 751 304 758 305 766 c 1
EndSplineSet
Ligature: 0 0 'liga' a uni0306
EndChar
StartChar: atilde
Encoding: 327 227 221
Width: 660
Flags: W
HStem: -13 122<307 347> 445 122<394 428> 631 103<521 540> 662 103<407 415>
VStem: 75 137<213 240>
Fore
718 554 m 1xc8
 616 0 l 1
 494 0 l 1
 507 72 l 1
 445 13 385 -13 307 -13 c 0
 167 -13 75 77 75 213 c 0
 75 406 232 567 420 567 c 0
 498 567 551 539 583 480 c 1
 596 554 l 1
 718 554 l 1xc8
410 445 m 0
 304 445 212 350 212 240 c 0
 212 160 265 109 347 109 c 0
 416 109 469 137 507 191 c 0
 530 226 544 271 544 313 c 0
 544 394 492 445 410 445 c 0
354 632 m 1
 316 717 l 1
 343 745 383 765 413 765 c 0xd8
 426 765 449 758 473 748 c 0
 500 736 506 734 523 734 c 0
 551 734 558 737 604 769 c 1
 638 687 l 1
 607 648 574 631 530 631 c 0xe8
 513 631 504 633 468 646 c 0
 438 657 420 662 409 662 c 0xd8
 394 662 381 655 354 632 c 1
EndSplineSet
Ligature: 0 0 'liga' a tildecomb
EndChar
StartChar: aring
Encoding: 328 229 222
Width: 660
Flags: W
HStem: -13 122<307 347> 445 122<394 428> 617 67<461 477> 756 67<486 501>
VStem: 75 137<213 240> 376 68<700 714> 518 68<725 740>
Fore
718 554 m 1
 616 0 l 1
 494 0 l 1
 507 72 l 1
 445 13 385 -13 307 -13 c 0
 167 -13 75 77 75 213 c 0
 75 406 232 567 420 567 c 0
 498 567 551 539 583 480 c 1
 596 554 l 1
 718 554 l 1
410 445 m 0
 304 445 212 350 212 240 c 0
 212 160 265 109 347 109 c 0
 416 109 469 137 507 191 c 0
 530 226 544 271 544 313 c 0
 544 394 492 445 410 445 c 0
501 823 m 0
 549 823 586 787 586 740 c 0
 586 675 527 617 461 617 c 0
 412 617 376 652 376 700 c 0
 376 765 435 823 501 823 c 0
488 756 m 0
 465 756 444 735 444 712 c 0
 444 697 458 684 475 684 c 0
 497 684 518 705 518 726 c 0
 518 742 504 756 488 756 c 0
EndSplineSet
KernsSLIF: 121 -7 0 0 119 -5 0 0 118 -4 0 0
Ligature: 0 0 'liga' a uni030A
EndChar
StartChar: aogonek
Encoding: 329 261 223
Width: 660
Flags: W
HStem: -204 80<532 572> -13 122<307 347> 445 122<394 428>
VStem: 75 137<213 240> 438 96<-122 -92>
Fore
718 554 m 1
 616 0 l 1
 557 -34 534 -60 534 -92 c 0
 534 -112 548 -124 572 -124 c 0
 587 -124 598 -122 621 -113 c 1
 606 -190 l 1
 574 -201 557 -204 532 -204 c 0
 474 -204 438 -172 438 -122 c 0
 438 -71 462 -45 546 0 c 1
 494 0 l 1
 507 72 l 1
 445 13 385 -13 307 -13 c 0
 167 -13 75 77 75 213 c 0
 75 406 232 567 420 567 c 0
 498 567 551 539 583 480 c 1
 596 554 l 1
 718 554 l 1
410 445 m 0
 304 445 212 350 212 240 c 0
 212 160 265 109 347 109 c 0
 416 109 469 137 507 191 c 0
 530 226 544 271 544 313 c 0
 544 394 492 445 410 445 c 0
EndSplineSet
Ligature: 0 0 'liga' a uni0328
EndChar
StartChar: cacute
Encoding: 330 263 224
Width: 640
Flags: W
HStem: -13 122<324 350> 445 122<405 427>
VStem: 77 137<223 247>
Fore
485 182 m 1
 635 182 l 1
 564 57 453 -13 324 -13 c 0
 182 -13 77 88 77 223 c 0
 77 404 243 567 427 567 c 0
 502 567 572 538 617 489 c 0
 647 457 660 428 670 369 c 1
 520 369 l 1
 505 418 465 445 407 445 c 0
 302 445 214 354 214 245 c 0
 214 163 266 109 345 109 c 0
 399 109 451 136 485 182 c 1
355 617 m 1
 315 705 l 1
 551 832 l 1
 598 733 l 1
 355 617 l 1
EndSplineSet
Ligature: 0 0 'liga' c acutecomb
EndChar
StartChar: ccaron
Encoding: 331 269 225
Width: 640
Flags: W
HStem: -13 122<324 350> 445 122<405 427> 630 138<264 492>
VStem: 77 137<223 247>
Fore
485 182 m 1
 635 182 l 1
 564 57 453 -13 324 -13 c 0
 182 -13 77 88 77 223 c 0
 77 404 243 567 427 567 c 0
 502 567 572 538 617 489 c 0
 647 457 660 428 670 369 c 1
 520 369 l 1
 505 418 465 445 407 445 c 0
 302 445 214 354 214 245 c 0
 214 163 266 109 345 109 c 0
 399 109 451 136 485 182 c 1
264 768 m 1
 411 768 l 1
 453 704 l 1
 518 768 l 1
 663 768 l 1
 492 630 l 1
 385 630 l 1
 264 768 l 1
EndSplineSet
Ligature: 0 0 'liga' c uni030C
EndChar
StartChar: ccedilla
Encoding: 332 231 226
Width: 640
Flags: W
HStem: -251 56<282 289> -106 55<304 319> -13 122<326 350> 445 122<405 427>
VStem: 77 137<223 247> 335 60<-140 -127>
DStem: 264 -7 312 -13 212 -107 288 -58
Fore
312 -13 m 1
 288 -58 l 1
 302 -53 309 -51 319 -51 c 0
 362 -51 395 -84 395 -127 c 0
 395 -154 385 -185 368 -209 c 0
 348 -238 321 -251 284 -251 c 0
 229 -251 192 -219 192 -172 c 0
 192 -171 192 -169 193 -166 c 1
 253 -166 l 1
 255 -172 l 2
 260 -188 270 -195 287 -195 c 0
 312 -195 335 -167 335 -137 c 0
 335 -119 321 -106 304 -106 c 0
 287 -106 274 -114 260 -133 c 1
 212 -107 l 1
 264 -7 l 1
 149 21 77 109 77 223 c 0
 77 404 243 567 427 567 c 0
 502 567 572 538 617 489 c 0
 647 457 660 428 670 369 c 1
 520 369 l 1
 505 418 465 445 407 445 c 0
 302 445 214 354 214 245 c 0
 214 163 266 109 345 109 c 0
 399 109 451 136 485 182 c 1
 635 182 l 1
 565 58 453 -13 326 -13 c 2
 312 -13 l 1
EndSplineSet
Ligature: 0 0 'liga' c uni0327
EndChar
StartChar: dcaron
Encoding: 333 271 227
Width: 752
Flags: W
HStem: -13 122<306 351> 452 122<395 429> 719 20G<617 750 827 932>
VStem: 76 137<220 248>
DStem: 617 739 750 739 574 505 613 0 827 739 932 739 734 547 838 547
Fore
750 739 m 1
 613 0 l 1
 491 0 l 1
 505 72 l 1
 443 14 380 -13 306 -13 c 0
 168 -13 76 80 76 220 c 0
 76 408 236 574 416 574 c 0
 484 574 544 548 574 505 c 1
 617 739 l 1
 750 739 l 1
413 452 m 0
 305 452 213 358 213 248 c 0
 213 166 269 109 351 109 c 0
 453 109 546 207 546 314 c 0
 546 397 493 452 413 452 c 0
734 547 m 1
 827 739 l 1
 932 739 l 1
 838 547 l 1
 734 547 l 1
EndSplineSet
Ligature: 0 0 'liga' d uni030C
EndChar
StartChar: edieresis
Encoding: 334 235 228
Width: 640
Flags: W
HStem: -13 122<326 348> 218 118<234 645> 445 122<403 430> 630 132<296 405 506 615>
VStem: 76 140<210 223>
DStem: 297 762 430 762 272 630 405 630 507 762 640 762 482 630 615 630
Fore
645 218 m 1
 216 218 l 1
 216 154 270 109 346 109 c 0
 402 109 443 126 481 164 c 1
 626 164 l 1
 566 54 452 -13 327 -13 c 0
 179 -13 76 84 76 223 c 0
 76 404 243 567 428 567 c 0
 567 567 665 474 665 342 c 0
 665 294 658 249 645 218 c 1
234 336 m 1
 541 336 l 1
 537 408 492 445 407 445 c 0
 330 445 260 401 234 336 c 1
272 630 m 1
 297 762 l 1
 430 762 l 1
 405 630 l 1
 272 630 l 1
482 630 m 1
 507 762 l 1
 640 762 l 1
 615 630 l 1
 482 630 l 1
EndSplineSet
Ligature: 0 0 'liga' e uni0308
EndChar
StartChar: eacute
Encoding: 335 233 229
Width: 640
Flags: W
HStem: -13 122<326 354> 218 118<234 645> 445 122<405 430>
VStem: 76 140<210 223>
CounterMasks: 1 00
Fore
645 218 m 1
 216 218 l 1
 216 154 270 109 346 109 c 0
 402 109 443 126 481 164 c 1
 626 164 l 1
 566 54 452 -13 327 -13 c 0
 179 -13 76 84 76 223 c 0
 76 404 243 567 428 567 c 0
 567 567 665 474 665 342 c 0
 665 294 658 249 645 218 c 1
234 336 m 1
 541 336 l 1
 537 408 492 445 407 445 c 0
 330 445 260 401 234 336 c 1
392 617 m 1
 352 705 l 1
 588 832 l 1
 635 733 l 1
 392 617 l 1
EndSplineSet
KernsSLIF: 121 -30 0 0 119 -24 0 0 118 -25 0 0
Ligature: 0 0 'liga' e acutecomb
EndChar
StartChar: egrave
Encoding: 336 232 230
Width: 640
Flags: W
HStem: -13 122<326 353> 218 118<234 645> 445 122<405 430>
VStem: 76 140<210 223>
DStem: 281 741 351 832 487 617 554 702
CounterMasks: 1 00
Fore
645 218 m 1
 216 218 l 1
 216 154 270 109 346 109 c 0
 402 109 443 126 481 164 c 1
 626 164 l 1
 566 54 452 -13 327 -13 c 0
 179 -13 76 84 76 223 c 0
 76 404 243 567 428 567 c 0
 567 567 665 474 665 342 c 0
 665 294 658 249 645 218 c 1
234 336 m 1
 541 336 l 1
 537 408 492 445 407 445 c 0
 330 445 260 401 234 336 c 1
281 741 m 1
 351 832 l 1
 554 702 l 1
 487 617 l 1
 281 741 l 1
EndSplineSet
Ligature: 0 0 'liga' e gravecomb
EndChar
StartChar: ecircumflex
Encoding: 337 234 231
Width: 640
Flags: W
HStem: -13 122<326 348> 218 118<234 645> 445 122<405 430> 630 138<419 645>
VStem: 76 140<210 223>
DStem: 419 768 459 694 246 630 393 630
Fore
645 218 m 1
 216 218 l 1
 216 154 270 109 346 109 c 0
 402 109 443 126 481 164 c 1
 626 164 l 1
 566 54 452 -13 327 -13 c 0
 179 -13 76 84 76 223 c 0
 76 404 243 567 428 567 c 0
 567 567 665 474 665 342 c 0
 665 294 658 249 645 218 c 1
234 336 m 1
 541 336 l 1
 537 408 492 445 407 445 c 0
 330 445 260 401 234 336 c 1
246 630 m 1
 419 768 l 1
 526 768 l 1
 645 630 l 1
 500 630 l 1
 459 694 l 1
 393 630 l 1
 246 630 l 1
EndSplineSet
KernsSLIF: 121 -30 0 0 119 -24 0 0 118 -25 0 0
Ligature: 0 0 'liga' e uni0302
EndChar
StartChar: ecaron
Encoding: 338 283 232
Width: 640
Flags: W
HStem: -13 122<326 348> 218 118<234 645> 445 122<405 430> 630 138<264 492>
VStem: 76 140<210 223>
Fore
645 218 m 1
 216 218 l 1
 216 154 270 109 346 109 c 0
 402 109 443 126 481 164 c 1
 626 164 l 1
 566 54 452 -13 327 -13 c 0
 179 -13 76 84 76 223 c 0
 76 404 243 567 428 567 c 0
 567 567 665 474 665 342 c 0
 665 294 658 249 645 218 c 1
234 336 m 1
 541 336 l 1
 537 408 492 445 407 445 c 0
 330 445 260 401 234 336 c 1
264 768 m 1
 411 768 l 1
 453 704 l 1
 518 768 l 1
 663 768 l 1
 492 630 l 1
 385 630 l 1
 264 768 l 1
EndSplineSet
Ligature: 0 0 'liga' e uni030C
EndChar
StartChar: edotaccent
Encoding: 339 279 233
Width: 640
Flags: W
HStem: -13 122<326 348> 218 118<234 645> 445 122<405 430>
VStem: 76 140<210 223>
DStem: 394 762 527 762 369 630 502 630
CounterMasks: 1 00
Fore
645 218 m 1
 216 218 l 1
 216 154 270 109 346 109 c 0
 402 109 443 126 481 164 c 1
 626 164 l 1
 566 54 452 -13 327 -13 c 0
 179 -13 76 84 76 223 c 0
 76 404 243 567 428 567 c 0
 567 567 665 474 665 342 c 0
 665 294 658 249 645 218 c 1
234 336 m 1
 541 336 l 1
 537 408 492 445 407 445 c 0
 330 445 260 401 234 336 c 1
369 630 m 1
 394 762 l 1
 527 762 l 1
 502 630 l 1
 369 630 l 1
EndSplineSet
Ligature: 0 0 'liga' e uni0307
EndChar
StartChar: eogonek
Encoding: 340 281 234
Width: 640
Flags: W
HStem: -204 80<396 436> -13 122<326 348> 218 118<234 645> 445 122<405 430>
VStem: 76 140<211 223> 302 96<-122 -92>
Fore
645 218 m 1
 216 218 l 1
 216 154 270 109 346 109 c 0
 402 109 443 126 481 164 c 1
 626 164 l 1
 600 117 564 78 480 8 c 0
 405 -55 398 -63 398 -92 c 0
 398 -112 412 -124 436 -124 c 0
 451 -124 462 -122 485 -113 c 1
 470 -190 l 1
 438 -201 421 -204 396 -204 c 0
 338 -204 302 -172 302 -122 c 0
 302 -74 326 -45 400 -6 c 1
 371 -11 352 -13 328 -13 c 0
 179 -13 76 84 76 223 c 0
 76 404 243 567 428 567 c 0
 567 567 665 474 665 342 c 0
 665 294 658 249 645 218 c 1
234 336 m 1
 541 336 l 1
 537 408 492 445 407 445 c 0
 330 445 260 401 234 336 c 1
EndSplineSet
Ligature: 0 0 'liga' e uni0328
EndChar
StartChar: gbreve
Encoding: 341 287 235
Width: 660
Flags: W
HStem: -221 117<282 312> -13 122<301 341> 445 122<397 415> 630 94<447 466>
VStem: 76 137<215 244>
Fore
587 554 m 1
 714 554 l 1
 631 105 l 1
 612 0 582 -68 532 -120 c 0
 467 -187 384 -221 282 -221 c 0
 146 -221 62 -162 30 -45 c 1
 181 -45 l 1
 211 -87 247 -104 310 -104 c 0
 373 -104 424 -78 458 -28 c 0
 476 -2 485 21 498 73 c 1
 434 11 379 -13 301 -13 c 0
 164 -13 76 77 76 217 c 0
 76 407 229 567 411 567 c 0
 488 567 536 543 574 484 c 1
 587 554 l 1
403 445 m 0
 293 445 213 356 213 233 c 0
 213 156 261 109 341 109 c 0
 403 109 458 137 492 185 c 0
 517 221 534 273 534 315 c 0
 534 393 482 445 403 445 c 0
305 766 m 1
 403 766 l 1
 409 738 429 724 464 724 c 0
 496 724 519 738 535 766 c 1
 634 766 l 1
 615 685 538 630 447 630 c 0
 358 630 304 674 304 747 c 0
 304 751 304 758 305 766 c 1
EndSplineSet
Ligature: 0 0 'liga' g uni0306
EndChar
StartChar: idieresis
Encoding: 342 239 236
Width: 240
Flags: W
HStem: 0 21G<54 187> 534 20G<157 290> 630 132<83 192 293 402>
DStem: 84 762 217 762 59 630 192 630 157 554 290 554 54 0 187 0 294 762 427 762 269 630 402 630
Fore
54 0 m 1
 157 554 l 1
 290 554 l 1
 187 0 l 1
 54 0 l 1
59 630 m 1
 84 762 l 1
 217 762 l 1
 192 630 l 1
 59 630 l 1
269 630 m 1
 294 762 l 1
 427 762 l 1
 402 630 l 1
 269 630 l 1
EndSplineSet
Ligature: 0 0 'liga' i uni0308
EndChar
StartChar: iacute
Encoding: 343 237 237
Width: 240
Flags: W
HStem: 0 21G<54 187> 534 20G<157 290>
DStem: 157 554 290 554 54 0 187 0
Fore
54 0 m 1
 157 554 l 1
 290 554 l 1
 187 0 l 1
 54 0 l 1
155 617 m 1
 115 705 l 1
 351 832 l 1
 398 733 l 1
 155 617 l 1
EndSplineSet
Ligature: 0 0 'liga' i acutecomb
EndChar
StartChar: igrave
Encoding: 344 236 238
Width: 240
Flags: W
HStem: 0 21G<54 187> 534 20G<157 290>
DStem: 121 741 191 832 327 617 394 702 157 554 290 554 54 0 187 0
Fore
54 0 m 1
 157 554 l 1
 290 554 l 1
 187 0 l 1
 54 0 l 1
121 741 m 1
 191 832 l 1
 394 702 l 1
 327 617 l 1
 121 741 l 1
EndSplineSet
Ligature: 0 0 'liga' i gravecomb
EndChar
StartChar: icircumflex
Encoding: 345 238 239
Width: 240
Flags: W
HStem: 0 21G<54 187> 534 20G<157 290> 630 138<212 438>
DStem: 157 554 290 554 54 0 187 0 212 768 252 694 39 630 186 630
Fore
54 0 m 1
 157 554 l 1
 290 554 l 1
 187 0 l 1
 54 0 l 1
39 630 m 1
 212 768 l 1
 319 768 l 1
 438 630 l 1
 293 630 l 1
 252 694 l 1
 186 630 l 1
 39 630 l 1
EndSplineSet
Ligature: 0 0 'liga' i uni0302
EndChar
StartChar: lacute
Encoding: 346 314 240
Width: 240
Flags: W
HStem: 0 21G<54 187> 719 20G<191 324>
DStem: 191 739 324 739 54 0 187 0
Fore
54 0 m 1
 191 739 l 1
 324 739 l 1
 187 0 l 1
 54 0 l 1
155 792 m 1
 115 880 l 1
 351 1007 l 1
 398 908 l 1
 155 792 l 1
EndSplineSet
Ligature: 0 0 'liga' l acutecomb
EndChar
StartChar: lcaron
Encoding: 347 318 241
Width: 326
Flags: W
HStem: 0 21G<54 187> 719 20G<191 324 401 506>
DStem: 191 739 324 739 54 0 187 0 401 739 506 739 308 547 412 547
Fore
54 0 m 1
 191 739 l 1
 324 739 l 1
 187 0 l 1
 54 0 l 1
308 547 m 1
 401 739 l 1
 506 739 l 1
 412 547 l 1
 308 547 l 1
EndSplineSet
Ligature: 0 0 'liga' l uni030C
EndChar
StartChar: nacute
Encoding: 348 324 242
Width: 600
Flags: W
HStem: 0 21G<54 187 413 546> 445 122<388 435>
VStem: 472 141<363 403>
DStem: 157 554 235 261 54 0 187 0 463 271 601 297 413 0 546 0
Fore
54 0 m 1
 157 554 l 1
 280 554 l 1
 270 501 l 1
 331 550 374 567 435 567 c 0
 549 567 613 509 613 403 c 0
 613 375 609 341 601 297 c 2
 546 0 l 1
 413 0 l 1
 463 271 l 2
 469 304 472 334 472 363 c 0
 472 417 443 445 388 445 c 0
 347 445 311 428 282 394 c 0
 261 368 248 333 235 261 c 1
 187 0 l 1
 54 0 l 1
335 617 m 1
 295 705 l 1
 531 832 l 1
 578 733 l 1
 335 617 l 1
EndSplineSet
Ligature: 0 0 'liga' n acutecomb
EndChar
StartChar: ncaron
Encoding: 349 328 243
Width: 600
Flags: W
HStem: 0 21G<54 187 413 546> 445 122<388 435> 630 138<244 472>
VStem: 472 141<363 403>
DStem: 157 554 235 261 54 0 187 0 463 271 601 297 413 0 546 0
Fore
54 0 m 1
 157 554 l 1
 280 554 l 1
 270 501 l 1
 331 550 374 567 435 567 c 0
 549 567 613 509 613 403 c 0
 613 375 609 341 601 297 c 2
 546 0 l 1
 413 0 l 1
 463 271 l 2
 469 304 472 334 472 363 c 0
 472 417 443 445 388 445 c 0
 347 445 311 428 282 394 c 0
 261 368 248 333 235 261 c 1
 187 0 l 1
 54 0 l 1
244 768 m 1
 391 768 l 1
 433 704 l 1
 498 768 l 1
 643 768 l 1
 472 630 l 1
 365 630 l 1
 244 768 l 1
EndSplineSet
Ligature: 0 0 'liga' n uni030C
EndChar
StartChar: ntilde
Encoding: 350 241 244
Width: 600
Flags: W
HStem: 0 21G<54 187 413 546> 445 122<388 435> 631 103<453 475> 662 103<341 352>
VStem: 472 141<363 403>
DStem: 157 554 235 261 54 0 187 0 463 271 601 297 413 0 546 0
Fore
54 0 m 1xc8
 157 554 l 1
 280 554 l 1
 270 501 l 1
 331 550 374 567 435 567 c 0
 549 567 613 509 613 403 c 0
 613 375 609 341 601 297 c 2
 546 0 l 1
 413 0 l 1
 463 271 l 2
 469 304 472 334 472 363 c 0
 472 417 443 445 388 445 c 0
 347 445 311 428 282 394 c 0
 261 368 248 333 235 261 c 1
 187 0 l 1
 54 0 l 1xc8
291 632 m 1
 253 717 l 1
 280 745 320 765 350 765 c 0xd8
 363 765 386 758 410 748 c 0
 437 736 443 734 460 734 c 0
 488 734 495 737 541 769 c 1
 575 687 l 1
 544 648 511 631 467 631 c 0xe8
 450 631 441 633 405 646 c 0
 375 657 357 662 346 662 c 0xd8
 331 662 318 655 291 632 c 1
EndSplineSet
Ligature: 0 0 'liga' n tildecomb
EndChar
StartChar: odieresis
Encoding: 351 246 245
Width: 640
Flags: W
HStem: -13 122<318 345> 445 122<405 431> 630 132<296 405 506 615>
VStem: 76 137<221 246> 538 137<306 327>
DStem: 297 762 430 762 272 630 405 630 507 762 640 762 482 630 615 630
Fore
431 567 m 0
 573 567 675 466 675 327 c 0
 675 148 506 -13 318 -13 c 0
 181 -13 76 88 76 221 c 0
 76 404 243 567 431 567 c 0
408 445 m 0
 306 445 213 349 213 244 c 0
 213 166 269 109 345 109 c 0
 445 109 538 206 538 309 c 0
 538 387 483 445 408 445 c 0
272 630 m 1
 297 762 l 1
 430 762 l 1
 405 630 l 1
 272 630 l 1
482 630 m 1
 507 762 l 1
 640 762 l 1
 615 630 l 1
 482 630 l 1
EndSplineSet
KernsSLIF: 121 -27 0 0 120 -24 0 0 119 -20 0 0 118 -22 0 0 116 1 0 0
Ligature: 0 0 'liga' o uni0308
EndChar
StartChar: oacute
Encoding: 352 243 246
Width: 640
Flags: W
HStem: -13 122<318 345> 445 122<406 431>
VStem: 76 137<221 246> 538 137<306 327>
Fore
431 567 m 0
 573 567 675 466 675 327 c 0
 675 148 506 -13 318 -13 c 0
 181 -13 76 88 76 221 c 0
 76 404 243 567 431 567 c 0
408 445 m 0
 306 445 213 349 213 244 c 0
 213 166 269 109 345 109 c 0
 445 109 538 206 538 309 c 0
 538 387 483 445 408 445 c 0
397 617 m 1
 357 705 l 1
 593 832 l 1
 640 733 l 1
 397 617 l 1
EndSplineSet
KernsSLIF: 121 -27 0 0 119 -20 0 0 118 -22 0 0
Ligature: 0 0 'liga' o acutecomb
EndChar
StartChar: ograve
Encoding: 353 242 247
Width: 640
Flags: W
HStem: -13 122<318 345> 445 122<406 431>
VStem: 76 137<221 246> 538 137<306 327>
DStem: 279 741 349 832 485 617 552 702
Fore
431 567 m 0
 573 567 675 466 675 327 c 0
 675 148 506 -13 318 -13 c 0
 181 -13 76 88 76 221 c 0
 76 404 243 567 431 567 c 0
408 445 m 0
 306 445 213 349 213 244 c 0
 213 166 269 109 345 109 c 0
 445 109 538 206 538 309 c 0
 538 387 483 445 408 445 c 0
279 741 m 1
 349 832 l 1
 552 702 l 1
 485 617 l 1
 279 741 l 1
EndSplineSet
KernsSLIF: 121 -27 0 0 119 -20 0 0 118 -22 0 0
Ligature: 0 0 'liga' o gravecomb
EndChar
StartChar: ocircumflex
Encoding: 354 244 248
Width: 640
Flags: W
HStem: -13 122<318 345> 445 122<406 431> 630 138<419 645>
VStem: 76 137<221 246> 538 137<306 327>
DStem: 419 768 459 694 246 630 393 630
Fore
431 567 m 0
 573 567 675 466 675 327 c 0
 675 148 506 -13 318 -13 c 0
 181 -13 76 88 76 221 c 0
 76 404 243 567 431 567 c 0
408 445 m 0
 306 445 213 349 213 244 c 0
 213 166 269 109 345 109 c 0
 445 109 538 206 538 309 c 0
 538 387 483 445 408 445 c 0
246 630 m 1
 419 768 l 1
 526 768 l 1
 645 630 l 1
 500 630 l 1
 459 694 l 1
 393 630 l 1
 246 630 l 1
EndSplineSet
KernsSLIF: 116 1 0 0
Ligature: 0 0 'liga' o uni0302
EndChar
StartChar: otilde
Encoding: 355 245 249
Width: 640
Flags: W
HStem: -13 122<318 345> 445 122<406 431> 631 103<500 511> 662 103<379 397>
VStem: 76 137<221 246> 538 137<306 327>
Fore
431 567 m 0xcc
 573 567 675 466 675 327 c 0
 675 148 506 -13 318 -13 c 0
 181 -13 76 88 76 221 c 0
 76 404 243 567 431 567 c 0xcc
408 445 m 0
 306 445 213 349 213 244 c 0
 213 166 269 109 345 109 c 0
 445 109 538 206 538 309 c 0
 538 387 483 445 408 445 c 0
333 632 m 1
 295 717 l 1
 322 745 362 765 392 765 c 0xdc
 405 765 428 758 452 748 c 0
 479 736 485 734 502 734 c 0
 530 734 537 737 583 769 c 1
 617 687 l 1
 586 648 553 631 509 631 c 0xec
 492 631 483 633 447 646 c 0
 417 657 399 662 388 662 c 0xdc
 373 662 360 655 333 632 c 1
EndSplineSet
Ligature: 0 0 'liga' o tildecomb
EndChar
StartChar: ohungarumlaut
Encoding: 356 337 250
Width: 640
Flags: W
HStem: -13 122<318 345> 445 122<405 431>
VStem: 76 137<221 246> 538 137<306 327>
Fore
431 567 m 0
 573 567 675 466 675 327 c 0
 675 148 506 -13 318 -13 c 0
 181 -13 76 88 76 221 c 0
 76 404 243 567 431 567 c 0
408 445 m 0
 306 445 213 349 213 244 c 0
 213 166 269 109 345 109 c 0
 445 109 538 206 538 309 c 0
 538 387 483 445 408 445 c 0
174 696 m 1
 404 838 l 1
 456 749 l 1
 212 617 l 1
 174 696 l 1
456 696 m 1
 687 838 l 1
 738 749 l 1
 495 617 l 1
 456 696 l 1
EndSplineSet
Ligature: 0 0 'liga' o uni030B
EndChar
StartChar: racute
Encoding: 357 341 251
Width: 320
Flags: W
HStem: 0 21G<54 187> 534 20G<157 279>
DStem: 157 554 244 308 54 0 187 0
Fore
54 0 m 1
 157 554 l 1
 279 554 l 1
 269 500 l 1
 312 552 347 569 412 567 c 1
 388 439 l 1
 310 438 255 388 244 308 c 1
 187 0 l 1
 54 0 l 1
195 617 m 1
 155 705 l 1
 391 832 l 1
 438 733 l 1
 195 617 l 1
EndSplineSet
Ligature: 0 0 'liga' r acutecomb
EndChar
StartChar: sacute
Encoding: 358 347 252
Width: 440
Flags: W
HStem: -13 122<218 247> 445 122<305 330>
VStem: 49 136<137 176> 110 137<370 390> 318 137<173 209>
Fore
51 176 m 1xe8
 185 176 l 1xe8
 186 132 208 109 247 109 c 0
 285 109 318 138 318 173 c 0
 318 199 304 210 236 234 c 0
 139 268 110 300 110 370 c 0
 110 476 211 567 330 567 c 0
 412 567 482 508 482 439 c 0
 482 429 481 416 479 401 c 1
 349 401 l 1
 348 430 333 445 305 445 c 0
 274 445 247 419 247 390 c 0xd8
 247 379 255 368 267 361 c 0
 279 354 279 354 329 338 c 0
 424 307 455 275 455 209 c 0
 455 92 343 -13 218 -13 c 0
 118 -13 49 48 49 137 c 0
 49 148 50 161 51 176 c 1xe8
255 617 m 1
 215 705 l 1
 451 832 l 1
 498 733 l 1
 255 617 l 1
EndSplineSet
Ligature: 0 0 'liga' s acutecomb
EndChar
StartChar: scaron
Encoding: 359 353 253
Width: 440
Flags: W
HStem: -13 122<218 247> 445 122<305 330> 630 138<164 392>
VStem: 49 136<137 176> 110 137<370 390> 318 137<173 209>
Fore
51 176 m 1xf4
 185 176 l 1xf4
 186 132 208 109 247 109 c 0
 285 109 318 138 318 173 c 0
 318 199 304 210 236 234 c 0
 139 268 110 300 110 370 c 0
 110 476 211 567 330 567 c 0
 412 567 482 508 482 439 c 0
 482 429 481 416 479 401 c 1
 349 401 l 1
 348 430 333 445 305 445 c 0
 274 445 247 419 247 390 c 0xec
 247 379 255 368 267 361 c 0
 279 354 279 354 329 338 c 0
 424 307 455 275 455 209 c 0
 455 92 343 -13 218 -13 c 0
 118 -13 49 48 49 137 c 0
 49 148 50 161 51 176 c 1xf4
164 768 m 1
 311 768 l 1
 353 704 l 1
 418 768 l 1
 563 768 l 1
 392 630 l 1
 285 630 l 1
 164 768 l 1
EndSplineSet
Ligature: 0 0 'liga' s uni030C
EndChar
StartChar: scommaaccent
Encoding: 360 537 254
Width: 440
Flags: W
HStem: -13 122<218 247> 445 122<305 330>
VStem: 49 136<137 176> 110 137<370 390> 318 137<173 209>
DStem: 150 -53 255 -53 57 -245 161 -245
Fore
51 176 m 1xe8
 185 176 l 1xe8
 186 132 208 109 247 109 c 0
 285 109 318 138 318 173 c 0
 318 199 304 210 236 234 c 0
 139 268 110 300 110 370 c 0
 110 476 211 567 330 567 c 0
 412 567 482 508 482 439 c 0
 482 429 481 416 479 401 c 1
 349 401 l 1
 348 430 333 445 305 445 c 0
 274 445 247 419 247 390 c 0xd8
 247 379 255 368 267 361 c 0
 279 354 279 354 329 338 c 0
 424 307 455 275 455 209 c 0
 455 92 343 -13 218 -13 c 0
 118 -13 49 48 49 137 c 0
 49 148 50 161 51 176 c 1xe8
57 -245 m 1
 150 -53 l 1
 255 -53 l 1
 161 -245 l 1
 57 -245 l 1
EndSplineSet
Ligature: 0 0 'liga' s uni0326
EndChar
StartChar: tcaron
Encoding: 361 357 255
Width: 364
Flags: W
HStem: 0 21G<74 207> 534 20G<112 177> 719 20G<211 344 440 544>
DStem: 154 433 287 433 74 0 207 0 211 739 344 739 177 554 310 554 440 739 544 739 360 577 464 577
Fore
74 0 m 1
 154 433 l 1
 89 433 l 1
 112 554 l 1
 177 554 l 1
 211 739 l 1
 344 739 l 1
 310 554 l 1
 390 554 l 1
 367 433 l 1
 287 433 l 1
 207 0 l 1
 74 0 l 1
360 577 m 1
 440 739 l 1
 544 739 l 1
 464 577 l 1
 360 577 l 1
EndSplineSet
Ligature: 0 0 'liga' t uni030C
EndChar
StartChar: udieresis
Encoding: 362 252 256
Width: 600
Flags: W
HStem: -13 122<260 310> 534 20G<155 288 517 650> 630 132<266 375 476 585>
VStem: 88 140<152 187>
DStem: 155 554 288 554 100 257 238 283 267 762 400 762 242 630 375 630 477 762 610 762 452 630 585 630 517 554 650 554 469 293 547 0
Fore
650 554 m 1
 547 0 l 1
 424 0 l 1
 434 53 l 1
 377 6 328 -13 260 -13 c 0
 207 -13 163 3 135 31 c 0
 108 59 88 109 88 152 c 0
 88 178 92 214 100 257 c 2
 155 554 l 1
 288 554 l 1
 238 283 l 1
 231 248 228 214 228 187 c 0
 228 138 259 109 310 109 c 0
 356 109 397 127 423 160 c 0
 443 184 456 224 469 293 c 1
 517 554 l 1
 650 554 l 1
242 630 m 1
 267 762 l 1
 400 762 l 1
 375 630 l 1
 242 630 l 1
452 630 m 1
 477 762 l 1
 610 762 l 1
 585 630 l 1
 452 630 l 1
EndSplineSet
Ligature: 0 0 'liga' u uni0308
EndChar
StartChar: uacute
Encoding: 363 250 257
Width: 600
Flags: W
HStem: -13 122<260 310> 534 20G<155 288 517 650>
VStem: 88 140<152 187>
DStem: 155 554 288 554 100 257 238 283 517 554 650 554 469 293 547 0
Fore
650 554 m 1
 547 0 l 1
 424 0 l 1
 434 53 l 1
 377 6 328 -13 260 -13 c 0
 207 -13 163 3 135 31 c 0
 108 59 88 109 88 152 c 0
 88 178 92 214 100 257 c 2
 155 554 l 1
 288 554 l 1
 238 283 l 1
 231 248 228 214 228 187 c 0
 228 138 259 109 310 109 c 0
 356 109 397 127 423 160 c 0
 443 184 456 224 469 293 c 1
 517 554 l 1
 650 554 l 1
371 617 m 1
 331 705 l 1
 567 832 l 1
 614 733 l 1
 371 617 l 1
EndSplineSet
Ligature: 0 0 'liga' u acutecomb
EndChar
StartChar: ugrave
Encoding: 364 249 258
Width: 600
Flags: W
HStem: -13 122<260 310> 534 20G<155 288 517 650>
VStem: 88 140<152 187>
DStem: 155 554 288 554 100 257 238 283 249 741 319 832 455 617 522 702 517 554 650 554 469 293 547 0
Fore
650 554 m 1
 547 0 l 1
 424 0 l 1
 434 53 l 1
 377 6 328 -13 260 -13 c 0
 207 -13 163 3 135 31 c 0
 108 59 88 109 88 152 c 0
 88 178 92 214 100 257 c 2
 155 554 l 1
 288 554 l 1
 238 283 l 1
 231 248 228 214 228 187 c 0
 228 138 259 109 310 109 c 0
 356 109 397 127 423 160 c 0
 443 184 456 224 469 293 c 1
 517 554 l 1
 650 554 l 1
249 741 m 1
 319 832 l 1
 522 702 l 1
 455 617 l 1
 249 741 l 1
EndSplineSet
Ligature: 0 0 'liga' u gravecomb
EndChar
StartChar: ucircumflex
Encoding: 365 251 259
Width: 600
Flags: W
HStem: -13 122<260 310> 534 20G<155 288 517 650> 630 138<389 615>
VStem: 88 140<152 187>
DStem: 155 554 288 554 100 257 238 283 389 768 429 694 216 630 363 630 517 554 650 554 469 293 547 0
Fore
650 554 m 1
 547 0 l 1
 424 0 l 1
 434 53 l 1
 377 6 328 -13 260 -13 c 0
 207 -13 163 3 135 31 c 0
 108 59 88 109 88 152 c 0
 88 178 92 214 100 257 c 2
 155 554 l 1
 288 554 l 1
 238 283 l 1
 231 248 228 214 228 187 c 0
 228 138 259 109 310 109 c 0
 356 109 397 127 423 160 c 0
 443 184 456 224 469 293 c 1
 517 554 l 1
 650 554 l 1
216 630 m 1
 389 768 l 1
 496 768 l 1
 615 630 l 1
 470 630 l 1
 429 694 l 1
 363 630 l 1
 216 630 l 1
EndSplineSet
Ligature: 0 0 'liga' u uni0302
EndChar
StartChar: uring
Encoding: 366 367 260
Width: 600
Flags: W
HStem: -13 122<260 310> 534 20G<155 288 517 650> 617 67<411 427> 756 67<435 451>
VStem: 88 140<152 187> 326 68<700 714> 468 68<725 740>
DStem: 155 554 288 554 100 257 238 283 517 554 650 554 469 293 547 0
Fore
650 554 m 1
 547 0 l 1
 424 0 l 1
 434 53 l 1
 377 6 328 -13 260 -13 c 0
 207 -13 163 3 135 31 c 0
 108 59 88 109 88 152 c 0
 88 178 92 214 100 257 c 2
 155 554 l 1
 288 554 l 1
 238 283 l 1
 231 248 228 214 228 187 c 0
 228 138 259 109 310 109 c 0
 356 109 397 127 423 160 c 0
 443 184 456 224 469 293 c 1
 517 554 l 1
 650 554 l 1
451 823 m 0
 499 823 536 787 536 740 c 0
 536 675 477 617 411 617 c 0
 362 617 326 652 326 700 c 0
 326 765 385 823 451 823 c 0
438 756 m 0
 415 756 394 735 394 712 c 0
 394 697 408 684 425 684 c 0
 447 684 468 705 468 726 c 0
 468 742 454 756 438 756 c 0
EndSplineSet
Ligature: 0 0 'liga' u uni030A
EndChar
StartChar: uhungarumlaut
Encoding: 367 369 261
Width: 600
Flags: W
HStem: -13 122<260 310> 534 20G<155 288 517 650>
VStem: 88 140<152 187>
DStem: 155 554 288 554 100 257 238 283 517 554 650 554 469 293 547 0
Fore
650 554 m 1
 547 0 l 1
 424 0 l 1
 434 53 l 1
 377 6 328 -13 260 -13 c 0
 207 -13 163 3 135 31 c 0
 108 59 88 109 88 152 c 0
 88 178 92 214 100 257 c 2
 155 554 l 1
 288 554 l 1
 238 283 l 1
 231 248 228 214 228 187 c 0
 228 138 259 109 310 109 c 0
 356 109 397 127 423 160 c 0
 443 184 456 224 469 293 c 1
 517 554 l 1
 650 554 l 1
154 696 m 1
 384 838 l 1
 436 749 l 1
 192 617 l 1
 154 696 l 1
436 696 m 1
 667 838 l 1
 718 749 l 1
 475 617 l 1
 436 696 l 1
EndSplineSet
Ligature: 0 0 'liga' u uni030B
EndChar
StartChar: yacute
Encoding: 368 253 262
Width: 580
Flags: W
HStem: 534 20G<109 261 518 671>
DStem: 219 52 671 554 73 -185 216 -185
Fore
73 -185 m 1
 219 52 l 1
 109 554 l 1
 261 554 l 1
 317 195 l 1
 518 554 l 1
 671 554 l 1
 216 -185 l 1
 73 -185 l 1
325 617 m 1
 285 705 l 1
 521 832 l 1
 568 733 l 1
 325 617 l 1
EndSplineSet
Ligature: 0 0 'liga' y acutecomb
EndChar
StartChar: zacute
Encoding: 369 378 263
Width: 460
Flags: W
HStem: 0 118<202 443> 436 118<151 347>
DStem: 347 436 506 436 42 118 202 118
Fore
20 0 m 1
 42 118 l 1
 347 436 l 1
 130 436 l 1
 152 554 l 1
 528 554 l 1
 506 436 l 1
 202 118 l 1
 465 118 l 1
 443 0 l 1
 20 0 l 1
265 617 m 1
 225 705 l 1
 461 832 l 1
 508 733 l 1
 265 617 l 1
EndSplineSet
Ligature: 0 0 'liga' z acutecomb
EndChar
StartChar: zcaron
Encoding: 370 382 264
Width: 460
Flags: W
HStem: 0 118<202 443> 436 118<151 347> 630 138<174 402>
DStem: 347 436 506 436 42 118 202 118
Fore
20 0 m 1
 42 118 l 1
 347 436 l 1
 130 436 l 1
 152 554 l 1
 528 554 l 1
 506 436 l 1
 202 118 l 1
 465 118 l 1
 443 0 l 1
 20 0 l 1
174 768 m 1
 321 768 l 1
 363 704 l 1
 428 768 l 1
 573 768 l 1
 402 630 l 1
 295 630 l 1
 174 768 l 1
EndSplineSet
Ligature: 0 0 'liga' z uni030C
EndChar
StartChar: zdotaccent
Encoding: 371 380 265
Width: 460
Flags: W
HStem: 0 118<202 443> 436 118<151 347>
DStem: 304 762 437 762 279 630 412 630 347 436 506 436 42 118 202 118
Fore
20 0 m 1
 42 118 l 1
 347 436 l 1
 130 436 l 1
 152 554 l 1
 528 554 l 1
 506 436 l 1
 202 118 l 1
 465 118 l 1
 443 0 l 1
 20 0 l 1
279 630 m 1
 304 762 l 1
 437 762 l 1
 412 630 l 1
 279 630 l 1
EndSplineSet
Ligature: 0 0 'liga' z uni0307
EndChar
StartChar: ydieresis
Encoding: 372 255 266
Width: 580
Flags: W
HStem: 534 20G<109 261 518 671> 630 132<252 361 462 571>
DStem: 219 52 671 554 73 -185 216 -185 253 762 386 762 228 630 361 630 463 762 596 762 438 630 571 630
Fore
73 -185 m 1
 219 52 l 1
 109 554 l 1
 261 554 l 1
 317 195 l 1
 518 554 l 1
 671 554 l 1
 216 -185 l 1
 73 -185 l 1
228 630 m 1
 253 762 l 1
 386 762 l 1
 361 630 l 1
 228 630 l 1
438 630 m 1
 463 762 l 1
 596 762 l 1
 571 630 l 1
 438 630 l 1
EndSplineSet
Ligature: 0 0 'liga' y uni0308
EndChar
StartChar: tcommaaccent
Encoding: 373 355 267
Width: 300
Flags: W
HStem: 0 21G<74 207> 534 20G<112 177> 719 20G<211 344>
DStem: 116 -53 221 -53 23 -245 127 -245 154 433 287 433 74 0 207 0 211 739 344 739 177 554 310 554
Fore
74 0 m 1
 154 433 l 1
 89 433 l 1
 112 554 l 1
 177 554 l 1
 211 739 l 1
 344 739 l 1
 310 554 l 1
 390 554 l 1
 367 433 l 1
 287 433 l 1
 207 0 l 1
 74 0 l 1
23 -245 m 1
 116 -53 l 1
 221 -53 l 1
 127 -245 l 1
 23 -245 l 1
EndSplineSet
Ligature: 0 0 'liga' t uni0327
EndChar
StartChar: amacron
Encoding: 374 257 268
Width: 660
Flags: W
HStem: -13 122<307 347> 445 122<394 428> 650 99<325 588>
VStem: 75 137<213 240>
Fore
718 554 m 1
 616 0 l 1
 494 0 l 1
 507 72 l 1
 445 13 385 -13 307 -13 c 0
 167 -13 75 77 75 213 c 0
 75 406 232 567 420 567 c 0
 498 567 551 539 583 480 c 1
 596 554 l 1
 718 554 l 1
410 445 m 0
 304 445 212 350 212 240 c 0
 212 160 265 109 347 109 c 0
 416 109 469 137 507 191 c 0
 530 226 544 271 544 313 c 0
 544 394 492 445 410 445 c 0
309 650 m 1
 326 749 l 1
 606 749 l 1
 588 650 l 1
 309 650 l 1
EndSplineSet
Ligature: 0 0 'liga' a uni0304
EndChar
StartChar: emacron
Encoding: 375 275 269
Width: 640
Flags: W
HStem: -13 122<326 348> 218 118<234 645> 445 122<405 430> 650 99<315 578>
VStem: 76 140<210 223>
Fore
645 218 m 1
 216 218 l 1
 216 154 270 109 346 109 c 0
 402 109 443 126 481 164 c 1
 626 164 l 1
 566 54 452 -13 327 -13 c 0
 179 -13 76 84 76 223 c 0
 76 404 243 567 428 567 c 0
 567 567 665 474 665 342 c 0
 665 294 658 249 645 218 c 1
234 336 m 1
 541 336 l 1
 537 408 492 445 407 445 c 0
 330 445 260 401 234 336 c 1
299 650 m 1
 316 749 l 1
 596 749 l 1
 578 650 l 1
 299 650 l 1
EndSplineSet
Ligature: 0 0 'liga' e uni0304
EndChar
StartChar: imacron
Encoding: 376 299 270
Width: 240
Flags: W
HStem: 0 21G<54 187> 534 20G<157 290> 650 99<115 378>
DStem: 157 554 290 554 54 0 187 0
Fore
54 0 m 1
 157 554 l 1
 290 554 l 1
 187 0 l 1
 54 0 l 1
99 650 m 1
 116 749 l 1
 396 749 l 1
 378 650 l 1
 99 650 l 1
EndSplineSet
Ligature: 0 0 'liga' i uni0304
EndChar
StartChar: kcommaaccent
Encoding: 377 311 271
Width: 580
Flags: W
HStem: 0 21G<54 187 376 555> 534 20G<466 625> 719 20G<191 324>
DStem: 191 739 324 739 54 0 241 293 191 739 235 259 54 0 187 0 236 -53 341 -53 143 -245 247 -245
Fore
54 0 m 1
 191 739 l 1
 324 739 l 1
 241 293 l 1
 466 554 l 1
 625 554 l 1
 377 283 l 1
 555 0 l 1
 376 0 l 1
 235 259 l 1
 187 0 l 1
 54 0 l 1
143 -245 m 1
 236 -53 l 1
 341 -53 l 1
 247 -245 l 1
 143 -245 l 1
EndSplineSet
Ligature: 0 0 'liga' k uni0327
EndChar
StartChar: lcommaaccent
Encoding: 378 316 272
Width: 240
Flags: W
HStem: 0 21G<54 187> 719 20G<191 324>
DStem: 86 -53 191 -53 -7 -245 97 -245 191 739 324 739 54 0 187 0
Fore
54 0 m 1
 191 739 l 1
 324 739 l 1
 187 0 l 1
 54 0 l 1
-7 -245 m 1
 86 -53 l 1
 191 -53 l 1
 97 -245 l 1
 -7 -245 l 1
EndSplineSet
Ligature: 0 0 'liga' l uni0327
EndChar
StartChar: ncommaaccent
Encoding: 379 326 273
Width: 600
Flags: W
HStem: 0 21G<54 187 413 546> 445 122<388 435>
VStem: 472 141<363 403>
DStem: 157 554 235 261 54 0 187 0 266 -53 371 -53 173 -245 277 -245 463 271 601 297 413 0 546 0
Fore
54 0 m 1
 157 554 l 1
 280 554 l 1
 270 501 l 1
 331 550 374 567 435 567 c 0
 549 567 613 509 613 403 c 0
 613 375 609 341 601 297 c 2
 546 0 l 1
 413 0 l 1
 463 271 l 2
 469 304 472 334 472 363 c 0
 472 417 443 445 388 445 c 0
 347 445 311 428 282 394 c 0
 261 368 248 333 235 261 c 1
 187 0 l 1
 54 0 l 1
173 -245 m 1
 266 -53 l 1
 371 -53 l 1
 277 -245 l 1
 173 -245 l 1
EndSplineSet
Ligature: 0 0 'liga' n uni0327
EndChar
StartChar: omacron
Encoding: 380 333 274
Width: 640
Flags: W
HStem: -13 122<318 345> 445 122<406 431> 650 99<315 578>
VStem: 76 137<221 246> 538 137<306 327>
Fore
431 567 m 0
 573 567 675 466 675 327 c 0
 675 148 506 -13 318 -13 c 0
 181 -13 76 88 76 221 c 0
 76 404 243 567 431 567 c 0
408 445 m 0
 306 445 213 349 213 244 c 0
 213 166 269 109 345 109 c 0
 445 109 538 206 538 309 c 0
 538 387 483 445 408 445 c 0
299 650 m 1
 316 749 l 1
 596 749 l 1
 578 650 l 1
 299 650 l 1
EndSplineSet
Ligature: 0 0 'liga' o uni0304
EndChar
StartChar: rcommaaccent
Encoding: 381 343 275
Width: 320
Flags: W
HStem: 0 21G<54 187> 534 20G<157 279>
DStem: 126 -53 231 -53 33 -245 137 -245 157 554 244 308 54 0 187 0
Fore
54 0 m 1
 157 554 l 1
 279 554 l 1
 269 500 l 1
 312 552 347 569 412 567 c 1
 388 439 l 1
 310 438 255 388 244 308 c 1
 187 0 l 1
 54 0 l 1
33 -245 m 1
 126 -53 l 1
 231 -53 l 1
 137 -245 l 1
 33 -245 l 1
EndSplineSet
Ligature: 0 0 'liga' r uni0327
EndChar
StartChar: umacron
Encoding: 382 363 276
Width: 600
Flags: W
HStem: -13 122<260 310> 534 20G<155 288 517 650> 650 99<295 558>
VStem: 88 140<152 187>
DStem: 155 554 288 554 100 257 238 283 517 554 650 554 469 293 547 0
Fore
650 554 m 1
 547 0 l 1
 424 0 l 1
 434 53 l 1
 377 6 328 -13 260 -13 c 0
 207 -13 163 3 135 31 c 0
 108 59 88 109 88 152 c 0
 88 178 92 214 100 257 c 2
 155 554 l 1
 288 554 l 1
 238 283 l 1
 231 248 228 214 228 187 c 0
 228 138 259 109 310 109 c 0
 356 109 397 127 423 160 c 0
 443 184 456 224 469 293 c 1
 517 554 l 1
 650 554 l 1
279 650 m 1
 296 749 l 1
 576 749 l 1
 558 650 l 1
 279 650 l 1
EndSplineSet
Ligature: 0 0 'liga' u uni0304
EndChar
StartChar: uogonek
Encoding: 383 371 277
Width: 600
Flags: W
HStem: -204 80<463 503> -13 122<260 310> 534 20G<155 288 517 650>
VStem: 88 140<152 187> 369 96<-122 -92>
DStem: 155 554 288 554 100 257 238 283 517 554 650 554 469 293 547 0
Fore
650 554 m 1
 547 0 l 1
 488 -34 465 -60 465 -92 c 0
 465 -112 479 -124 503 -124 c 0
 518 -124 529 -122 552 -113 c 1
 537 -190 l 1
 505 -201 488 -204 463 -204 c 0
 405 -204 369 -172 369 -122 c 0
 369 -71 393 -45 477 0 c 1
 424 0 l 1
 434 53 l 1
 377 6 328 -13 260 -13 c 0
 207 -13 163 3 135 31 c 0
 108 59 88 109 88 152 c 0
 88 178 92 214 100 257 c 2
 155 554 l 1
 288 554 l 1
 238 283 l 1
 231 248 228 214 228 187 c 0
 228 138 259 109 310 109 c 0
 356 109 397 127 423 160 c 0
 443 184 456 224 469 293 c 1
 517 554 l 1
 650 554 l 1
EndSplineSet
Ligature: 0 0 'liga' u uni0328
EndChar
StartChar: rcaron
Encoding: 384 345 278
Width: 320
Flags: W
HStem: 0 21G<54 187> 534 20G<157 279> 630 138<104 332>
DStem: 157 554 244 308 54 0 187 0
Fore
54 0 m 1
 157 554 l 1
 279 554 l 1
 269 500 l 1
 312 552 347 569 412 567 c 1
 388 439 l 1
 310 438 255 388 244 308 c 1
 187 0 l 1
 54 0 l 1
104 768 m 1
 251 768 l 1
 293 704 l 1
 358 768 l 1
 503 768 l 1
 332 630 l 1
 225 630 l 1
 104 768 l 1
EndSplineSet
Ligature: 0 0 'liga' r uni030C
EndChar
StartChar: scedilla
Encoding: 385 351 279
Width: 440
Flags: W
HStem: -251 56<176 194> -106 55<203 218> -13 122<219 247> 445 122<305 330>
VStem: 49 136<137 176> 110 137<370 390> 234 60<-140 -127> 318 137<173 209>
DStem: 164 -6 212 -13 111 -107 187 -58
Fore
212 -13 m 1xf5
 187 -58 l 1
 201 -53 208 -51 218 -51 c 0
 261 -51 294 -84 294 -127 c 0
 294 -154 284 -185 267 -209 c 0
 247 -238 220 -251 183 -251 c 0
 129 -251 92 -219 92 -172 c 2
 92 -166 l 1
 152 -166 l 1
 154 -172 l 2
 159 -188 169 -195 186 -195 c 0
 211 -195 234 -167 234 -137 c 0
 234 -120 220 -106 203 -106 c 0
 186 -106 173 -114 159 -133 c 1
 111 -107 l 1
 164 -6 l 1
 91 13 49 65 49 137 c 0
 49 148 50 161 51 176 c 1
 185 176 l 1xfb
 186 132 208 109 247 109 c 0
 285 109 318 138 318 173 c 0
 318 199 304 210 236 234 c 0
 139 268 110 300 110 370 c 0
 110 476 211 567 330 567 c 0
 412 567 482 508 482 439 c 0
 482 429 481 416 479 401 c 1
 349 401 l 1
 348 430 333 445 305 445 c 0
 274 445 247 419 247 390 c 0
 247 379 255 368 267 361 c 0
 279 354 279 354 329 338 c 0
 424 307 455 275 455 209 c 0
 455 92 343 -13 219 -13 c 2
 212 -13 l 1xf5
EndSplineSet
Ligature: 0 0 'liga' s uni0327
EndChar
StartChar: gcommaaccent
Encoding: 386 291 280
Width: 660
Flags: W
HStem: -221 117<282 312> -13 122<301 341> 445 122<397 415>
VStem: 76 137<215 244>
DStem: 450 799 555 799 357 607 461 607
Fore
587 554 m 1
 714 554 l 1
 631 105 l 1
 612 0 582 -68 532 -120 c 0
 467 -187 384 -221 282 -221 c 0
 146 -221 62 -162 30 -45 c 1
 181 -45 l 1
 211 -87 247 -104 310 -104 c 0
 373 -104 424 -78 458 -28 c 0
 476 -2 485 21 498 73 c 1
 434 11 379 -13 301 -13 c 0
 164 -13 76 77 76 217 c 0
 76 407 229 567 411 567 c 0
 488 567 536 543 574 484 c 1
 587 554 l 1
403 445 m 0
 293 445 213 356 213 233 c 0
 213 156 261 109 341 109 c 0
 403 109 458 137 492 185 c 0
 517 221 534 273 534 315 c 0
 534 393 482 445 403 445 c 0
357 607 m 1
 450 799 l 1
 555 799 l 1
 461 607 l 1
 357 607 l 1
EndSplineSet
Ligature: 0 0 'liga' g uni0327
EndChar
StartChar: iogonek
Encoding: 387 303 281
Width: 240
Flags: W
HStem: -204 80<103 143> -20 20G<54 117> 534 20G<157 290> 719 20G<191 324>
VStem: 9 96<-122 -92>
DStem: 157 554 290 554 54 0 187 0
Fore
290 554 m 1
 187 0 l 1
 128 -34 105 -60 105 -92 c 0
 105 -112 119 -124 143 -124 c 0
 158 -124 169 -122 192 -113 c 1
 177 -190 l 1
 145 -201 128 -204 103 -204 c 0
 45 -204 9 -172 9 -122 c 0
 9 -71 33 -45 117 0 c 1
 54 0 l 1
 157 554 l 1
 290 554 l 1
168 614 m 1
 191 739 l 1
 324 739 l 1
 301 614 l 1
 168 614 l 1
EndSplineSet
Ligature: 0 0 'liga' i uni0328
EndChar
StartChar: Scommaaccent
Encoding: 388 536 282
Width: 520
Flags: W
HStem: -13 132<256 278> 620 132<368 392>
VStem: 49 144<171 192> 137 140<506 529> 398 140<227 265> 434 145<542 589>
DStem: 216 -53 321 -53 123 -245 227 -245
Fore
51 211 m 1xe8
 194 211 l 1
 193 203 193 196 193 190 c 0
 193 146 225 119 278 119 c 0
 344 119 398 167 398 227 c 0xe8
 398 250 390 271 376 284 c 0
 357 300 352 303 258 341 c 0
 175 374 137 426 137 506 c 0
 137 635 258 752 392 752 c 0
 499 752 579 682 579 589 c 0
 579 577 578 561 575 542 c 1
 434 542 l 1
 434 573 433 579 427 591 c 0
 418 609 395 620 368 620 c 0
 318 620 277 579 277 529 c 0xd4
 277 511 289 491 307 478 c 0
 320 469 326 466 383 445 c 0
 493 404 538 352 538 265 c 0
 538 120 403 -13 256 -13 c 0
 199 -13 139 7 105 38 c 0
 71 69 49 122 49 171 c 0
 49 182 50 195 51 211 c 1xe8
123 -245 m 1
 216 -53 l 1
 321 -53 l 1
 227 -245 l 1
 123 -245 l 1
EndSplineSet
Ligature: 0 0 'liga' S uni0326
EndChar
StartChar: Eth
Encoding: 389 208 283
Width: 742
Flags: W
HStem: 0 21G<108 280> 321 107<92 167 324 453> 608 131<245 426>
VStem: 636 140<424 456>
DStem: 167 321 304 321 108 0 269 131 245 739 357 608 187 428 324 428
Fore
108 0 m 1
 167 321 l 1
 73 321 l 1
 93 428 l 1
 187 428 l 1
 245 739 l 1
 414 739 l 2
 528 739 613 721 665 686 c 0
 737 638 776 558 776 456 c 0
 776 300 704 155 585 74 c 0
 507 21 422 0 280 0 c 2
 108 0 l 1
269 131 m 1
 299 131 l 2
 422 131 496 155 551 212 c 0
 603 265 636 347 636 424 c 0
 636 493 607 549 556 578 c 0
 517 600 472 608 384 608 c 2
 357 608 l 1
 324 428 l 1
 473 428 l 1
 453 321 l 1
 304 321 l 1
 269 131 l 1
EndSplineSet
EndChar
StartChar: Dcroat
Encoding: 390 272 284
Width: 742
Flags: W
HStem: 0 21G<108 280> 321 107<92 167 324 453> 608 131<245 426>
VStem: 636 140<424 456>
DStem: 167 321 304 321 108 0 269 131 245 739 357 608 187 428 324 428
Fore
108 0 m 1
 167 321 l 1
 73 321 l 1
 93 428 l 1
 187 428 l 1
 245 739 l 1
 414 739 l 2
 528 739 613 721 665 686 c 0
 737 638 776 558 776 456 c 0
 776 300 704 155 585 74 c 0
 507 21 422 0 280 0 c 2
 108 0 l 1
269 131 m 1
 299 131 l 2
 422 131 496 155 551 212 c 0
 603 265 636 347 636 424 c 0
 636 493 607 549 556 578 c 0
 517 600 472 608 384 608 c 2
 357 608 l 1
 324 428 l 1
 473 428 l 1
 453 321 l 1
 304 321 l 1
 269 131 l 1
EndSplineSet
EndChar
StartChar: Thorn
Encoding: 391 222 285
Width: 560
Flags: W
HStem: 0 21G<68 205> 719 20G<205 342>
VStem: 473 140<389 422>
DStem: 205 739 342 739 68 0 316 599 205 739 292 467 68 0 255 272 205 739 231 141 68 0 205 0
Fore
316 599 m 1
 362 599 l 2
 458 599 509 590 544 565 c 0
 589 534 613 484 613 422 c 0
 613 346 578 263 525 212 c 0
 486 175 440 154 381 145 c 0
 358 142 331 141 275 141 c 2
 231 141 l 1
 205 0 l 1
 68 0 l 1
 205 739 l 1
 342 739 l 1
 316 599 l 1
255 272 m 1
 295 272 l 2
 332 272 368 276 392 282 c 0
 440 295 473 338 473 389 c 0
 473 422 460 445 433 457 c 0
 416 464 387 467 338 467 c 2
 292 467 l 1
 255 272 l 1
EndSplineSet
EndChar
StartChar: dcroat
Encoding: 392 273 286
Width: 660
Flags: W
HStem: -13 122<306 351> 452 122<396 430> 602 87<494 592 741 785> 602 137<617 785>
VStem: 77 137<220 248>
Fore
725 602 m 1xd8
 613 0 l 1
 491 0 l 1
 505 72 l 1
 442 13 380 -13 306 -13 c 0
 169 -13 77 80 77 220 c 0
 77 407 236 574 415 574 c 0
 483 574 543 548 573 505 c 1
 592 602 l 1xe8
 479 602 l 1xd8
 495 689 l 1
 608 689 l 1xe8
 617 739 l 1
 750 739 l 1xd8
 741 689 l 1
 801 689 l 1
 785 602 l 1xe8
 725 602 l 1xd8
413 452 m 0
 305 452 214 359 214 248 c 0
 214 165 270 109 351 109 c 0
 453 109 546 207 546 314 c 0
 546 396 493 452 413 452 c 0
EndSplineSet
EndChar
StartChar: eth
Encoding: 393 240 287
Width: 640
Flags: W
HStem: -13 122<324 350> 445 111<395 413>
VStem: 76 137<226 245> 543 137<309 343>
Fore
305 709 m 1
 398 757 l 1
 441 725 443 723 465 702 c 1
 557 739 l 1
 599 695 l 1
 512 659 l 1
 620 566 680 453 680 343 c 0
 680 155 512 -13 324 -13 c 0
 179 -13 76 88 76 229 c 0
 76 399 236 556 410 556 c 0
 432 556 448 552 480 540 c 1
 448 578 434 593 405 618 c 1
 320 585 l 1
 286 633 l 1
 361 663 l 1
 345 678 l 2
 343 679 334 686 321 696 c 1
 320 698 313 703 305 709 c 1
411 445 m 0
 307 445 213 349 213 243 c 0
 213 166 270 109 348 109 c 0
 449 109 543 206 543 309 c 0
 543 387 487 445 411 445 c 0
EndSplineSet
EndChar
StartChar: thorn
Encoding: 394 254 288
Width: 660
Flags: W
HStem: -13 122<353 373> 445 122<423 462> 719 20G<191 313>
VStem: 554 137<309 344>
DStem: 191 739 313 739 20 -185 267 489 191 739 197 52 20 -185 153 -185
Fore
20 -185 m 1
 191 739 l 1
 313 739 l 1
 267 489 l 1
 314 538 388 567 462 567 c 0
 544 567 603 541 647 484 c 0
 678 443 691 402 691 344 c 0
 691 148 540 -13 355 -13 c 0
 287 -13 238 7 197 52 c 1
 153 -185 l 1
 20 -185 l 1
423 445 m 0
 318 445 227 350 227 241 c 0
 227 165 284 109 363 109 c 0
 419 109 477 140 513 190 c 0
 536 224 554 274 554 309 c 0
 554 338 541 379 524 401 c 0
 504 427 462 445 423 445 c 0
EndSplineSet
EndChar
StartChar: Euro
Encoding: 395 8364 289
Width: 560
Flags: W
HStem: -11 116<314 348> 260 88<7 68 210 432> 393 88<30 85 242 507> 640 111<443 466>
Fore
-9 393 m 1
 31 481 l 1
 110 481 l 1
 141 556 161 591 191 626 c 0
 261 708 355 751 466 751 c 0
 547 751 599 734 673 684 c 1
 614 581 l 1
 554 621 500 640 445 640 c 0
 394 640 338 617 304 582 c 0
 280 558 267 535 242 481 c 1
 557 481 l 1
 507 393 l 1
 219 393 l 1
 210 348 l 1
 482 348 l 1
 432 260 l 1
 199 260 l 1
 202 224 206 203 218 178 c 0
 240 134 291 105 348 105 c 0
 385 105 423 115 503 145 c 1
 480 22 l 1
 417 -2 372 -11 314 -11 c 0
 257 -11 201 6 158 35 c 0
 97 77 72 139 68 260 c 1
 -33 260 l 1
 8 348 l 1
 76 348 l 1
 80 370 80 373 85 393 c 1
 -9 393 l 1
EndSplineSet
EndChar
StartChar: onesuperior
Encoding: 396 185 290
Width: 336
Flags: W
HStem: 719 20G<224 378>
DStem: 276 657 378 739 209 296 296 296
Fore
209 296 m 1
 276 657 l 1
 209 657 l 1
 224 739 l 1
 378 739 l 1
 296 296 l 1
 209 296 l 1
EndSplineSet
EndChar
StartChar: twosuperior
Encoding: 397 178 291
Width: 336
Flags: W
HStem: 296 82<216 379> 666 80<293 310>
VStem: 348 92<613 630>
DStem: 278 518 320 451 85 371 216 378
Fore
70 296 m 1
 85 371 l 1
 278 518 l 2
 328 556 348 584 348 615 c 0
 348 647 328 666 295 666 c 0
 252 666 224 639 209 581 c 1
 120 581 l 1
 130 630 140 654 164 681 c 0
 200 723 252 746 310 746 c 0
 386 746 440 698 440 630 c 0
 440 564 403 509 320 451 c 2
 216 378 l 1
 394 378 l 1
 379 296 l 1
 70 296 l 1
EndSplineSet
EndChar
StartChar: threesuperior
Encoding: 398 179 292
Width: 336
Flags: W
HStem: 288 80<218 239> 505 84<223 262.23> 666 80<287 302>
VStem: 82 93<411 428> 321 92<447 465 635 645>
Fore
223 505 m 1
 239 589 l 1
 276 589 284 590 296 597 c 0
 312 606 323 623 323 637 c 0
 323 655 310 666 289 666 c 0
 266 666 251 652 246 627 c 1
 154 627 l 1
 172 700 228 746 302 746 c 0
 368 746 415 704 415 645 c 0
 415 606 398 577 359 551 c 1
 397 531 413 505 413 465 c 0
 413 370 323 288 218 288 c 0
 139 288 82 340 82 411 c 0
 82 416 83 425 84 436 c 1
 175 436 l 1
 175 428 l 2
 175 392 198 368 233 368 c 0
 280 368 321 406 321 449 c 0
 321 472 305 493 281 500 c 0
 270 504 258 505 223 505 c 1
EndSplineSet
EndChar
StartChar: degree
Encoding: 399 176 293
Width: 400
Flags: W
HStem: 386 57<309 318> 629 57<300 318>
VStem: 157 57<537 547> 405 57<536 547>
Fore
312 686 m 0
 394 686 462 618 462 536 c 0
 462 453 394 386 309 386 c 0
 225 386 157 453 157 537 c 0
 157 620 226 686 312 686 c 0
311 629 m 0
 257 629 214 588 214 537 c 0
 214 485 257 443 309 443 c 0
 362 443 405 485 405 536 c 0
 405 586 362 629 311 629 c 0
EndSplineSet
EndChar
StartChar: minus
Encoding: 400 8722 294
Width: 600
Flags: W
HStem: 312 118<120 603>
Fore
625 430 m 1
 603 312 l 1
 99 312 l 1
 121 430 l 1
 625 430 l 1
EndSplineSet
EndChar
StartChar: multiply
Encoding: 401 215 295
Width: 600
Flags: W
DStem: 139 542 234 622 277 372 372 452 277 372 351 282 78 204 152 114 351 282 446 362 489 112 584 192 571 620 645 530 372 452 446 362
Fore
584 192 m 1
 489 112 l 1
 351 282 l 1
 152 114 l 1
 78 204 l 1
 277 372 l 1
 139 542 l 1
 234 622 l 1
 372 452 l 1
 571 620 l 1
 645 530 l 1
 446 362 l 1
 584 192 l 1
EndSplineSet
EndChar
StartChar: divide
Encoding: 402 247 296
Width: 600
Flags: W
HStem: 312 118<121 603>
DStem: 264 204 399 204 240 73 375 73 350 669 485 669 326 538 461 538
Fore
461 538 m 1
 326 538 l 1
 350 669 l 1
 485 669 l 1
 461 538 l 1
375 73 m 1
 240 73 l 1
 264 204 l 1
 399 204 l 1
 375 73 l 1
625 430 m 1
 603 312 l 1
 100 312 l 1
 122 430 l 1
 625 430 l 1
EndSplineSet
EndChar
StartChar: trademark
Encoding: 403 8482 297
Width: 1000
Flags: W
HStem: 662 77<207 330 208 548>
DStem: 330 662 411 662 271 345 352 345 591 739 652 632 518 345 599 345 652 632 711 739 727 345 778 482 948 739 965 632 778 482 780 345 965 632 1066 739 912 345 993 345
Fore
1066 739 m 1
 993 345 l 1
 912 345 l 1
 965 632 l 1
 780 345 l 1
 727 345 l 1
 652 632 l 1
 599 345 l 1
 518 345 l 1
 591 739 l 1
 711 739 l 1
 778 482 l 1
 948 739 l 1
 1066 739 l 1
562 739 m 1
 548 662 l 1
 411 662 l 1
 352 345 l 1
 271 345 l 1
 330 662 l 1
 194 662 l 1
 208 739 l 1
 562 739 l 1
EndSplineSet
Ligature: 0 1 'liga' T M
EndChar
StartChar: plusminus
Encoding: 404 177 298
Width: 600
Flags: W
HStem: 0 118<72 555> 314 118<130 301 443 613>
DStem: 301 314 421 314 273 164 393 164 359 627 479 627 323 432 443 432
Fore
323 432 m 1
 359 627 l 1
 479 627 l 1
 443 432 l 1
 635 432 l 1
 613 314 l 1
 421 314 l 1
 393 164 l 1
 273 164 l 1
 301 314 l 1
 109 314 l 1
 131 432 l 1
 323 432 l 1
577 118 m 1
 555 0 l 1
 51 0 l 1
 73 118 l 1
 577 118 l 1
EndSplineSet
EndChar
StartChar: onehalf
Encoding: 405 189 299
Width: 840
Flags: W
HStem: 0 82<665 828> 370 80<741 759> 719 20G<229 383 648 743>
VStem: 797 92<317 334>
DStem: 281 657 383 739 214 296 301 296 648 739 743 739 205 0 300 0 727 222 769 155 534 75 665 82
Fore
205 0 m 1
 648 739 l 1
 743 739 l 1
 300 0 l 1
 205 0 l 1
519 0 m 1
 534 75 l 1
 727 222 l 2
 777 260 797 288 797 319 c 0
 797 351 777 370 744 370 c 0
 701 370 673 343 658 285 c 1
 569 285 l 1
 579 334 589 358 613 385 c 0
 649 427 701 450 759 450 c 0
 835 450 889 402 889 334 c 0
 889 268 852 213 769 155 c 2
 665 82 l 1
 843 82 l 1
 828 0 l 1
 519 0 l 1
214 296 m 1
 281 657 l 1
 214 657 l 1
 229 739 l 1
 383 739 l 1
 301 296 l 1
 214 296 l 1
EndSplineSet
Ligature: 0 1 'frac' one slash two
Ligature: 0 1 'frac' one fraction two
EndChar
StartChar: onequarter
Encoding: 406 188 300
Width: 840
Flags: W
HStem: 0 142<618 785> 65 77<618 706 811 845> 719 20G<224 378 652 747>
DStem: 276 657 378 739 209 296 296 296 652 739 747 739 209 0 304 0 748 294 867 443 720 142 811 142 791 443 748 294 521 133 618 142
Fore
521 133 m 1x60
 791 443 l 1
 867 443 l 1
 811 142 l 1
 859 142 l 1
 845 65 l 1
 797 65 l 1x60
 785 0 l 1
 694 0 l 1xa0
 706 65 l 1
 508 65 l 1
 521 133 l 1x60
720 142 m 1xa0
 748 294 l 1
 618 142 l 1
 720 142 l 1xa0
209 0 m 1
 652 739 l 1
 747 739 l 1
 304 0 l 1
 209 0 l 1
209 296 m 1
 276 657 l 1
 209 657 l 1
 224 739 l 1
 378 739 l 1
 296 296 l 1
 209 296 l 1
EndSplineSet
Ligature: 0 1 'frac' one slash four
Ligature: 0 1 'frac' one fraction four
EndChar
StartChar: threequarters
Encoding: 407 190 301
Width: 840
Flags: W
HStem: 0 142<618 785> 65 77<618 706 811 845> 288 80<218 239> 505 84<223 262.23> 666 80<287 302>
VStem: 82 93<411 428> 321 92<447 465 635 645>
DStem: 684 739 779 739 241 0 336 0 748 294 867 443 720 142 811 142 791 443 748 294 521 133 618 142
Fore
521 133 m 1x7e
 791 443 l 1
 867 443 l 1
 811 142 l 1
 859 142 l 1
 845 65 l 1
 797 65 l 1x7e
 785 0 l 1
 694 0 l 1xbe
 706 65 l 1
 508 65 l 1
 521 133 l 1x7e
720 142 m 1xbe
 748 294 l 1
 618 142 l 1
 720 142 l 1xbe
241 0 m 1
 684 739 l 1
 779 739 l 1
 336 0 l 1
 241 0 l 1
223 505 m 1
 239 589 l 1
 276 589 284 590 296 597 c 0
 312 606 323 623 323 637 c 0
 323 655 310 666 289 666 c 0
 266 666 251 652 246 627 c 1
 154 627 l 1
 172 700 228 746 302 746 c 0
 368 746 415 704 415 645 c 0
 415 606 398 577 359 551 c 1
 397 531 413 505 413 465 c 0
 413 370 323 288 218 288 c 0
 139 288 82 340 82 411 c 0
 82 416 83 425 84 436 c 1
 175 436 l 1
 175 428 l 2
 175 392 198 368 233 368 c 0
 280 368 321 406 321 449 c 0
 321 472 305 493 281 500 c 0
 270 504 258 505 223 505 c 1
EndSplineSet
Ligature: 0 1 'frac' three slash four
Ligature: 0 1 'frac' three fraction four
EndChar
StartChar: commaaccent
Encoding: 408 63171 302
Width: 280
Flags: W
DStem: 106 -53 211 -53 13 -245 117 -245
Fore
13 -245 m 1
 106 -53 l 1
 211 -53 l 1
 117 -245 l 1
 13 -245 l 1
EndSplineSet
EndChar
StartChar: copyright
Encoding: 409 169 303
Width: 740
Flags: W
HStem: -13 80<365 387> 157 93<408 426> 494 93<465 486> 675 77<484 515>
VStem: 50 81<298 324> 226 108<331 350> 753 81<418 441>
Fore
537 320 m 1
 647 320 l 1
 605 222 509 157 408 157 c 0
 302 157 226 230 226 333 c 0
 226 467 349 587 486 587 c 0
 589 587 665 517 666 422 c 1
 555 422 l 1
 547 466 514 494 469 494 c 0
 398 494 334 425 334 348 c 0
 334 289 370 250 424 250 c 0
 468 250 506 274 537 320 c 1
513 752 m 0
 699 752 834 620 834 439 c 0
 834 202 612 -13 367 -13 c 0
 186 -13 50 121 50 300 c 0
 50 535 272 752 513 752 c 0
502 675 m 0
 307 675 131 504 131 315 c 0
 131 173 239 67 383 67 c 0
 577 67 753 237 753 426 c 0
 753 569 646 675 502 675 c 0
EndSplineSet
EndChar
StartChar: registered
Encoding: 410 174 304
Width: 740
Flags: W
HStem: -13 80<359 389> 486 93<337 471> 675 77<490 519>
VStem: 50 81<298 324> 517 104<441 465> 753 81<418 443>
DStem: 337 579 421 486 260 166 399 372 337 579 386 300 260 166 361 166
Fore
260 166 m 1
 337 579 l 1
 468 579 l 2
 536 579 565 572 589 549 c 0
 609 529 621 499 621 465 c 0
 621 387 566 319 492 307 c 1
 578 166 l 1
 458 166 l 1
 386 300 l 1
 361 166 l 1
 260 166 l 1
399 372 m 1
 437 372 l 2
 484 372 517 400 517 441 c 0
 517 471 497 486 459 486 c 2
 421 486 l 1
 399 372 l 1
513 752 m 0
 699 752 834 620 834 439 c 0
 834 202 612 -13 367 -13 c 0
 186 -13 50 121 50 300 c 0
 50 535 272 752 513 752 c 0
502 675 m 0
 308 675 131 504 131 315 c 0
 131 173 238 67 383 67 c 0
 577 67 753 237 753 426 c 0
 753 569 646 675 502 675 c 0
EndSplineSet
EndChar
StartChar: lozenge
Encoding: 411 9674 305
Width: 494
Flags: W
HStem: 0 21G<209 269> 720 20G<351 414>
DStem: 88 377 180 376 209 0 262 117 351 740 361 625 88 377 180 376 361 625 414 740 442 374 535 374 442 374 535 374 262 117 269 0
Fore
209 0 m 1
 88 377 l 1
 351 740 l 1
 414 740 l 1
 535 374 l 1
 269 0 l 1
 209 0 l 1
262 117 m 1
 442 374 l 1
 361 625 l 1
 180 376 l 1
 262 117 l 1
EndSplineSet
EndChar
StartChar: Delta
Encoding: 412 8710 306
Width: 612
Flags: W
HStem: 0 51<86 608>
DStem: 384 509 454 688 489 51 608 0 454 688 384 509 6 0 86 51
Fore
6 0 m 1
 454 688 l 1
 608 0 l 1
 6 0 l 1
86 51 m 1
 489 51 l 1
 384 509 l 1
 86 51 l 1
EndSplineSet
EndChar
StartChar: notequal
Encoding: 413 8800 307
Width: 600
Flags: W
HStem: 210 118<111 160 409 594> 405 118<147 333 582 630>
Fore
477 405 m 1
 409 328 l 1
 616 328 l 1
 594 210 l 1
 304 210 l 1
 208 101 l 1
 124 169 l 1
 160 210 l 1
 90 210 l 1
 112 328 l 1
 265 328 l 1
 333 405 l 1
 126 405 l 1
 148 523 l 1
 438 523 l 1
 534 632 l 1
 618 564 l 1
 582 523 l 1
 652 523 l 1
 630 405 l 1
 477 405 l 1
EndSplineSet
Ligature: 0 1 'liga' equal uni0338
EndChar
StartChar: radical
Encoding: 414 8730 308
Width: 549
Flags: W
DStem: 187 425 271 555 327 -35 377 212 621 917 709 904 377 212 383 -35
Fore
327 -35 m 1
 187 425 l 1
 84 378 l 1
 60 461 l 1
 271 555 l 1
 377 212 l 1
 621 917 l 1
 709 904 l 1
 383 -35 l 1
 327 -35 l 1
EndSplineSet
EndChar
StartChar: lessequal
Encoding: 415 8804 309
Width: 600
Flags: W
HStem: 0 118<66 549>
DStem: 116 385 306 431 577 150 601 280 681 711 657 581 133 476 306 431
Fore
133 476 m 1
 681 711 l 1
 657 581 l 1
 306 431 l 1
 601 280 l 1
 577 150 l 1
 116 385 l 1
 133 476 l 1
571 118 m 1
 549 0 l 1
 45 0 l 1
 67 118 l 1
 571 118 l 1
EndSplineSet
EndChar
StartChar: greaterequal
Encoding: 416 8805 310
Width: 600
Flags: W
HStem: 0 118<72 555>
DStem: 159 581 183 711 454 431 643 476 454 431 626 385 103 280 79 150
Fore
643 476 m 1
 626 385 l 1
 79 150 l 1
 103 280 l 1
 454 431 l 1
 159 581 l 1
 183 711 l 1
 643 476 l 1
577 118 m 1
 555 0 l 1
 51 0 l 1
 73 118 l 1
 577 118 l 1
EndSplineSet
EndChar
StartChar: logicalnot
Encoding: 417 172 311
Width: 600
Flags: W
HStem: 359 112<137 508>
DStem: 508 359 643 471 475 182 589 182
Fore
138 471 m 1
 643 471 l 1
 589 182 l 1
 475 182 l 1
 508 359 l 1
 117 359 l 1
 138 471 l 1
EndSplineSet
EndChar
StartChar: summation
Encoding: 418 8721 312
Width: 713
Flags: W
HStem: -123 112<161 618> 587 165<162 741> 711 41<162 600>
DStem: 162 752 308 711 309 285 427 341 309 285 427 341 -9 -123 161 -11
Fore
308 711 m 1xa0
 427 341 l 1
 161 -11 l 1
 489 -11 l 2
 605 -11 638 5 685 87 c 1
 711 87 l 1
 618 -123 l 1
 -9 -123 l 1
 309 285 l 1
 162 752 l 1xc0
 761 752 l 1xa0
 741 587 l 1
 715 587 l 1xc0
 715 600 l 2
 715 688 686 711 575 711 c 2
 308 711 l 1xa0
EndSplineSet
EndChar
StartChar: partialdiff
Encoding: 419 8706 313
Width: 494
Flags: W
HStem: -10 31<198 217> 367 45<297 329> 706 47<330 353>
VStem: 56 82<109 145> 471 74<496 544>
Fore
231 674 m 1
 200 725 l 1
 259 745 295 753 334 753 c 0
 458 753 545 648 545 496 c 0
 545 399 509 272 451 161 c 0
 393 53 305 -10 211 -10 c 0
 122 -10 56 56 56 145 c 0
 56 204 84 272 130 325 c 0
 181 383 237 412 297 412 c 0
 348 412 381 396 436 346 c 1
 463 438 471 484 471 544 c 0
 471 650 429 706 351 706 c 0
 315 706 281 697 231 674 c 1
423 312 m 1
 420 316 420 316 416 320 c 0
 391 352 363 367 329 367 c 0
 233 367 138 238 138 109 c 0
 138 54 162 21 204 21 c 0
 248 21 297 53 334 107 c 0
 368 158 387 201 423 312 c 1
EndSplineSet
EndChar
StartChar: brokenbar
Encoding: 420 166 314
Width: 600
Flags: W
HStem: 0 21G<243 362> 719 20G<380 499>
DStem: 299 302 418 302 243 0 362 0 380 739 499 739 324 437 443 437
Fore
499 739 m 1
 443 437 l 1
 324 437 l 1
 380 739 l 1
 499 739 l 1
418 302 m 1
 362 0 l 1
 243 0 l 1
 299 302 l 1
 418 302 l 1
EndSplineSet
EndChar
StartChar: mu
Encoding: 421 181 315
Width: 576
Flags: W
HStem: -13 122<308 339> 534 20G<157 290 517 650>
DStem: 157 554 290 554 20 -185 238 276 157 554 197 52 20 -185 153 -185 517 554 650 554 469 293 547 0
Fore
197 52 m 1
 153 -185 l 1
 20 -185 l 1
 157 554 l 1
 290 554 l 1
 238 276 l 1
 236 261 234 248 234 239 c 0
 234 163 278 109 339 109 c 0
 375 109 410 129 431 160 c 0
 448 186 452 200 469 293 c 2
 517 554 l 1
 650 554 l 1
 547 0 l 1
 424 0 l 1
 434 53 l 1
 393 6 357 -13 308 -13 c 0
 260 -13 226 7 197 52 c 1
EndSplineSet
EndChar
StartChar: afii10017
Encoding: 422 1040 316
Width: 740
Flags: W
HStem: 0 21G<7 158 582 733> 191 132<350 538> 719 20G<452 560>
DStem: 452 739 275 191 7 0 158 0 538 191 560 739 582 0 733 0
Fore
7 0 m 1
 452 739 l 1
 560 739 l 1
 733 0 l 1
 582 0 l 1
 538 191 l 1
 275 191 l 1
 158 0 l 1
 7 0 l 1
350 323 m 1
 508 323 l 1
 470 546 l 1
 350 323 l 1
EndSplineSet
EndChar
StartChar: afii10018
Encoding: 423 1041 317
Width: 761
Flags: W
HStem: 0 21G<65 312> 609 130<209 692>
VStem: 554 140<281 321>
DStem: 209 739 277 384 65 0 228 131
Back
321 609 m 5
 302 515 l 5
 412 515 l 22
 604 515 723 442 688 262 c 4
 654 85 528 0 312 0 c 6
 65 0 l 5
 209 739 l 5
 717 739 l 5
 692 609 l 5
 321 609 l 5
228 131 m 5
 344 131 l 30
 432 131 535 174 552 262 c 20
 568 343 481 384 396 384 c 30
 277 384 l 5
 228 131 l 5
EndSplineSet
Fore
321 609 m 5
 302 515 l 5
 412 515 l 22
 581 515 694 458 694 321 c 4
 694 125 542 0 312 0 c 6
 65 0 l 5
 209 739 l 5
 717 739 l 5
 692 609 l 5
 321 609 l 5
228 131 m 5
 344 131 l 30
 435 131 554 188 554 281 c 4
 554 349 474 384 396 384 c 14
 277 384 l 5
 228 131 l 5
EndSplineSet
EndChar
StartChar: afii10019
Encoding: 424 1042 318
Width: 633
Flags: W
HStem: 0 21G<65 298> 605 134<209 434>
VStem: 482 140<244 268> 498 143<547 593>
DStem: 209 739 320 605 65 0 290 454 209 739 264 320 65 0 228 131
Back
65 0 m 5xe8
 209 739 l 5
 442 739 l 6
 589 739 662 678 636 542 c 4xf0
 622 473 588 414 537 394 c 5
 581 380 639 336 617 220 c 4
 589 76 476 0 298 0 c 6
 65 0 l 5xe8
228 131 m 5
 324 131 l 6
 420 131 467 158 479 222 c 4xe8
 492 288 455 320 360 320 c 6
 264 320 l 5
 228 131 l 5
290 454 m 5
 386 454 l 6
 439 454 486 477 496 530 c 4xf0
 507 583 469 605 416 605 c 6
 320 605 l 5
 290 454 l 5
EndSplineSet
Fore
65 0 m 1xe0
 209 739 l 1
 442 739 l 2
 569 739 641 693 641 593 c 0xd0
 641 507 596 417 537 394 c 1
 574 382 622 349 622 268 c 0
 622 108 485 0 298 0 c 2
 65 0 l 1xe0
228 131 m 1
 324 131 l 2
 429 131 482 175 482 246 c 0xe0
 482 296 443 320 360 320 c 2
 264 320 l 1
 228 131 l 1
290 454 m 1
 386 454 l 2
 445 454 498 491 498 547 c 0xd0
 498 588 463 605 416 605 c 2
 320 605 l 1
 290 454 l 1
EndSplineSet
EndChar
StartChar: afii10020
Encoding: 425 1043 319
Width: 480
Flags: W
HStem: 0 21G<68 205> 607 132<205 557>
DStem: 205 739 318 607 68 0 205 0
Fore
68 0 m 1
 205 739 l 1
 581 739 l 1
 557 607 l 1
 318 607 l 1
 205 0 l 1
 68 0 l 1
EndSplineSet
EndChar
StartChar: afii10021
Encoding: 426 1044 320
Width: 912
Flags: W
HStem: 0 132<57 771> 719 20G<534 646>
DStem: 57 132 170 0 7 -140 144 -140 534 739 558 557 187 132 324 132 558 557 646 739 639 132 770 132 771 0 932 132 745 -140 882 -140
Fore
639 132 m 1
 558 557 l 5
 324 132 l 1
 639 132 l 1
771 0 m 1
 170 0 l 1
 144 -140 l 1
 7 -140 l 1
 57 132 l 1
 187 132 l 1
 534 739 l 1
 646 739 l 1
 770 132 l 1
 932 132 l 1
 882 -140 l 1
 745 -140 l 1
 771 0 l 1
EndSplineSet
EndChar
StartChar: afii10022
Encoding: 427 1045 321
Width: 520
Flags: W
HStem: 0 132<229 465> 303 132<285 510> 607 132<205 578>
DStem: 205 739 318 607 68 0 285 435 205 739 261 303 68 0 229 132
Fore
68 0 m 1
 205 739 l 1
 602 739 l 1
 578 607 l 1
 318 607 l 1
 285 435 l 1
 534 435 l 1
 510 303 l 1
 261 303 l 1
 229 132 l 1
 489 132 l 1
 465 0 l 1
 68 0 l 1
EndSplineSet
EndChar
StartChar: afii10023
Encoding: 428 1025 322
Width: 520
Flags: W
HStem: 0 132<229 465> 303 132<285 510> 607 132<205 578> 805 132<267 376 468 577>
DStem: 205 739 318 607 68 0 285 435 205 739 261 303 68 0 229 132 268 937 401 937 243 805 376 805 469 937 602 937 444 805 577 805
Fore
68 0 m 1
 205 739 l 1
 602 739 l 1
 578 607 l 1
 318 607 l 1
 285 435 l 1
 534 435 l 1
 510 303 l 1
 261 303 l 1
 229 132 l 1
 489 132 l 1
 465 0 l 1
 68 0 l 1
243 805 m 1
 268 937 l 1
 401 937 l 1
 376 805 l 1
 243 805 l 1
444 805 m 1
 469 937 l 1
 602 937 l 1
 577 805 l 1
 444 805 l 1
EndSplineSet
LCarets: 0 65535 '    ' 1 0 
Ligature: 0 1 'liga' afii10022 uni0308
EndChar
StartChar: afii10024
Encoding: 429 1046 323
Width: 951
Flags: W
HStem: 0 21G<5 167 399 536 766 929> 719 20G<142 306 536 673 907 1067>
DStem: 142 739 306 739 349 363 476 414 349 363 458 319 5 0 167 0 458 319 596 325 399 0 536 0 536 739 673 739 476 414 614 420 596 325 723 376 766 0 929 0 907 739 1067 739 614 420 723 376
Fore
458 319 m 1
 167 0 l 5
 5 0 l 1
 349 363 l 1
 142 739 l 1
 306 739 l 1
 476 414 l 1
 536 739 l 1
 673 739 l 1
 614 420 l 1
 907 739 l 1
 1067 739 l 1
 723 376 l 1
 929 0 l 1
 766 0 l 1
 596 325 l 1
 536 0 l 1
 399 0 l 1
 458 319 l 1
EndSplineSet
EndChar
StartChar: afii10025
Encoding: 430 1047 324
Width: 768
Flags: W
HStem: -13 131<346 380> 615 137<471 494>
VStem: 574 138<242 258> 591 141<549 582>
Back
59 214 m 5xd0
 195 214 l 5
 205 178 247 118 373 118 c 4
 487 118 559 157 572 225 c 4xd0
 585 291 537 319 452 319 c 6
 339 320 l 5
 367 461 l 5
 479 461 l 6
 542 461 580 487 590 540 c 4
 599 584 538 615 473 615 c 4
 360 615 317 578 288 539 c 5
 151 539 l 5
 151 539 240 752 492 752 c 4
 648 752 751 665 729 552 c 4xe0
 716 483 680 409 616 388 c 5
 687 376 726 306 708 215 c 4
 686 102 584 -13 353 -13 c 4
 86 -13 59 214 59 214 c 5xd0
EndSplineSet
Fore
59 214 m 1xe0
 195 214 l 1
 205 178 247 118 373 118 c 0
 490 118 574 166 574 245 c 0xe0
 574 297 528 319 452 319 c 2
 339 320 l 1
 367 461 l 1
 479 461 l 2
 543 461 591 498 591 549 c 0
 591 588 534 615 473 615 c 0
 360 615 317 578 288 539 c 1
 151 539 l 1
 151 539 240 752 492 752 c 0
 634 752 732 680 732 582 c 4xd0
 732 476 680 409 616 388 c 1
 675 378 712 327 712 258 c 0
 712 100 570 -13 353 -13 c 0
 86 -13 59 214 59 214 c 1xe0
EndSplineSet
EndChar
StartChar: afii10026
Encoding: 431 1048 325
Width: 740
Flags: W
HStem: 0 21G<68 224 530 667> 719 20G<205 342 651 804>
DStem: 205 739 342 739 68 0 242 201 629 537 804 739 530 0 667 0 651 739 629 537 242 201 224 0
Fore
224 0 m 1
 68 0 l 1
 205 739 l 1
 342 739 l 1
 242 201 l 1
 651 739 l 1
 804 739 l 1
 667 0 l 1
 530 0 l 1
 629 537 l 1
 224 0 l 1
EndSplineSet
EndChar
StartChar: afii10027
Encoding: 432 1049 326
Width: 740
Flags: W
HStem: 0 21G<68 224 530 667> 719 20G<205 342 651 804> 746 94<490 509>
DStem: 205 739 342 739 68 0 242 201 629 537 804 739 530 0 667 0 651 739 629 537 242 201 224 0
Fore
348 882 m 1
 446 882 l 1
 452 854 472 840 507 840 c 0
 539 840 562 854 578 882 c 1
 677 882 l 1
 658 801 581 746 490 746 c 0
 401 746 347 790 347 863 c 0
 347 867 347 874 348 882 c 1
224 0 m 1
 68 0 l 1
 205 739 l 1
 342 739 l 1
 242 201 l 1
 651 739 l 1
 804 739 l 1
 667 0 l 1
 530 0 l 1
 629 537 l 1
 224 0 l 1
EndSplineSet
LCarets: 0 65535 '    ' 1 0 
Ligature: 0 1 'liga' afii10026 uni0306
EndChar
StartChar: afii10028
Encoding: 433 1050 327
Width: 620
Flags: W
HStem: 0 21G<68 205 436 599> 719 20G<205 342 576 736>
DStem: 205 739 342 739 68 0 283 420 205 739 265 325 68 0 205 0 265 325 392 376 436 0 599 0 576 739 736 739 283 420 392 376
Fore
68 0 m 1
 205 739 l 1
 342 739 l 1
 283 420 l 1
 576 739 l 5
 736 739 l 1
 392 376 l 1
 599 0 l 1
 436 0 l 1
 265 325 l 1
 205 0 l 1
 68 0 l 1
EndSplineSet
EndChar
StartChar: afii10029
Encoding: 434 1051 328
Width: 700
Flags: W
HStem: 0 21G<7 151 562 693> 719 20G<430 542>
DStem: 430 739 457 550 7 0 151 0 457 550 542 739 562 0 693 0
Fore
542 739 m 1
 693 0 l 1
 562 0 l 5
 457 550 l 1
 151 0 l 1
 7 0 l 1
 430 739 l 1
 542 739 l 1
EndSplineSet
EndChar
StartChar: afii10030
Encoding: 435 1052 329
Width: 900
Flags: W
HStem: 0 21G<68 205 398 510 703 840> 719 20G<205 393 789 977>
DStem: 205 739 308 554 68 0 205 0 308 554 393 739 398 0 488 179 789 739 806 554 488 179 510 0 806 554 977 739 703 0 840 0
Fore
68 0 m 1
 205 739 l 1
 393 739 l 1
 488 179 l 1
 789 739 l 1
 977 739 l 1
 840 0 l 1
 703 0 l 1
 806 554 l 1
 510 0 l 1
 398 0 l 1
 308 554 l 1
 205 0 l 1
 68 0 l 1
EndSplineSet
EndChar
StartChar: afii10031
Encoding: 436 1053 330
Width: 680
Flags: W
HStem: 0 21G<68 205 469 606> 310 132<287 526> 719 20G<205 342 606 743>
DStem: 205 739 342 739 68 0 287 442 205 739 262 310 68 0 205 0 526 310 743 739 469 0 606 0 606 739 743 739 551 442 606 0
Fore
68 0 m 1
 205 739 l 1
 342 739 l 1
 287 442 l 1
 551 442 l 1
 606 739 l 1
 743 739 l 1
 606 0 l 1
 469 0 l 1
 526 310 l 1
 262 310 l 1
 205 0 l 1
 68 0 l 1
EndSplineSet
EndChar
StartChar: afii10032
Encoding: 437 1054 331
Width: 840
Flags: W
HStem: -13 132<416 444> 620 132<530 559>
VStem: 91 140<300 325> 735 140<417 441>
Fore
559 752 m 0
 743 752 875 622 875 439 c 0
 875 201 658 -13 416 -13 c 0
 227 -13 91 118 91 300 c 0
 91 401 137 513 212 595 c 0
 305 696 429 752 559 752 c 0
532 620 m 0
 439 620 356 578 297 501 c 0
 256 448 231 381 231 323 c 0
 231 204 318 119 440 119 c 0
 531 119 615 162 672 238 c 0
 711 290 735 359 735 419 c 0
 735 536 650 620 532 620 c 0
EndSplineSet
EndChar
StartChar: afii10033
Encoding: 438 1055 332
Width: 680
Flags: W
HStem: 0 21G<68 205 469 606> 607 132<205 582>
DStem: 205 739 318 607 68 0 205 0 582 607 743 739 469 0 606 0
Fore
68 0 m 1
 205 739 l 1
 743 739 l 1
 606 0 l 1
 469 0 l 1
 582 607 l 1
 318 607 l 1
 205 0 l 1
 68 0 l 1
EndSplineSet
EndChar
StartChar: afii10034
Encoding: 439 1056 333
Width: 560
Flags: W
HStem: 0 21G<68 205> 607 132<205 390>
VStem: 499 140<529 562>
DStem: 205 739 318 607 68 0 281 412 205 739 257 281 68 0 205 0
Fore
68 0 m 1
 205 739 l 1
 388 739 l 2
 484 739 535 730 570 705 c 0
 615 674 639 624 639 562 c 0
 639 395 566 281 301 281 c 2
 257 281 l 1
 205 0 l 1
 68 0 l 1
499 529 m 0
 499 597 453 607 364 607 c 2
 318 607 l 1
 281 412 l 1
 321 412 l 2
 427 412 499 441 499 529 c 0
EndSplineSet
EndChar
StartChar: afii10035
Encoding: 440 1057 334
Width: 780
Flags: W
HStem: -13 132<415 439> 620 132<523 550>
VStem: 92 140<303 329>
Fore
637 206 m 1
 798 206 l 1
 718 73 567 -13 415 -13 c 0
 314 -13 229 22 171 88 c 0
 122 143 92 225 92 303 c 0
 92 535 313 752 548 752 c 0
 638 752 720 722 779 667 c 0
 820 629 840 593 858 527 c 1
 704 527 l 1
 687 556 677 568 661 581 c 0
 630 605 580 620 528 620 c 0
 434 620 349 575 290 495 c 0
 253 445 232 383 232 327 c 0
 232 206 318 119 437 119 c 0
 509 119 562 142 637 206 c 1
EndSplineSet
EndChar
StartChar: afii10036
Encoding: 441 1058 335
Width: 420
Flags: W
HStem: 0 21G<142 279> 607 132<142 255 143 531>
DStem: 255 607 392 607 142 0 279 0
Fore
142 0 m 1
 255 607 l 1
 119 607 l 1
 143 739 l 1
 555 739 l 1
 531 607 l 1
 392 607 l 1
 279 0 l 1
 142 0 l 1
EndSplineSet
EndChar
StartChar: afii10037
Encoding: 442 1059 336
Width: 620
Flags: W
HStem: 0 21G<94 242> 719 20G<140 283 615 763>
DStem: 140 739 283 739 293 284 384 412 293 284 763 739 94 0 242 0 615 739 763 739 384 412 242 0
Fore
94 0 m 1
 293 284 l 1
 140 739 l 1
 283 739 l 1
 384 412 l 1
 615 739 l 1
 763 739 l 1
 242 0 l 1
 94 0 l 1
EndSplineSet
EndChar
StartChar: afii10038
Encoding: 443 1060 337
Width: 974
Flags: W
HStem: -45 185<426 540> 8 132<551 578> 641 132<528 555> 641 159<560 687.972>
VStem: 91 140<321 346> 869 140<434 462>
DStem: 530 641 668 641 438 140 576 140
Fore
693 773 m 1x2c
 876 772 1009 642 1009 460 c 0
 1009 223 792 9 551 8 c 1x6c
 540 -45 l 1
 403 -45 l 1x8c
 414 8 l 1
 226 9 91 140 91 321 c 0
 91 422 137 534 212 616 c 0
 305 717 426 772 555 773 c 1x6c
 560 800 l 1
 697 800 l 1x1c
 693 773 l 1x2c
576 140 m 1
 666 141 749 184 806 259 c 0
 845 311 869 380 869 440 c 0
 869 556 785 640 668 641 c 1x5c
 576 140 l 1
530 641 m 1xac
 438 641 356 599 297 522 c 0
 256 469 231 402 231 344 c 0
 231 226 317 141 438 140 c 1
 530 641 l 1xac
EndSplineSet
EndChar
StartChar: afii10039
Encoding: 444 1061 338
Width: 680
Flags: W
HStem: 0 21G<5 168 517 676> 719 20G<142 305 654 813>
DStem: 142 739 305 739 327 368 429 481 327 368 387 255 5 0 168 0 387 255 488 368 517 0 676 0 654 739 813 739 429 481 488 368
Fore
5 0 m 1
 327 368 l 1
 142 739 l 1
 305 739 l 1
 429 481 l 1
 654 739 l 1
 813 739 l 1
 488 368 l 1
 676 0 l 1
 517 0 l 1
 387 255 l 1
 168 0 l 1
 5 0 l 1
EndSplineSet
EndChar
StartChar: afii10040
Encoding: 445 1062 339
Width: 738
Flags: W
HStem: 0 132<229 598> 719 20G<205 342 606 743>
DStem: 205 739 342 739 68 0 229 132 598 0 759 132 572 -140 709 -140 606 739 743 739 493 132 631 132
Fore
68 0 m 1
 205 739 l 1
 342 739 l 1
 229 132 l 1
 493 132 l 1
 606 739 l 1
 743 739 l 1
 631 132 l 1
 759 132 l 1
 709 -140 l 1
 572 -140 l 1
 598 0 l 1
 68 0 l 1
EndSplineSet
EndChar
StartChar: afii10041
Encoding: 446 1063 340
Width: 530
Flags: W
HStem: 0 21G<342 479> 290 132<241 395> 719 20G<121 258 479 616>
DStem: 121 739 258 739 63 426 210 476 395 290 616 739 342 0 479 0 479 739 616 739 420 422 479 0
Fore
63 426 m 2
 121 739 l 1
 258 739 l 1
 210 476 l 2
 207 467 206 459 206 452 c 0
 206 432 220 423 242 422 c 2
 420 422 l 1
 479 739 l 1
 616 739 l 1
 479 0 l 1
 342 0 l 1
 395 290 l 1
 174 290 l 2
 91 290 60 332 60 391 c 0
 60 402 61 414 63 426 c 2
EndSplineSet
EndChar
StartChar: afii10042
Encoding: 447 1064 341
Width: 947
Flags: W
HStem: 0 132<229 894> 719 20G<205 342 549 686 894 1031>
DStem: 205 739 342 739 68 0 229 132 549 739 686 739 436 132 574 132 894 739 1031 739 781 132 894 0
Fore
68 0 m 1
 205 739 l 1
 342 739 l 1
 229 132 l 1
 436 132 l 1
 549 739 l 1
 686 739 l 1
 574 132 l 1
 781 132 l 1
 894 739 l 1
 1031 739 l 1
 894 0 l 1
 68 0 l 1
EndSplineSet
EndChar
StartChar: afii10043
Encoding: 448 1065 342
Width: 1026
Flags: W
HStem: 0 132<229 882> 719 20G<205 342 549 686 894 1031>
DStem: 205 739 342 739 68 0 229 132 549 739 686 739 436 132 574 132 882 0 1043 132 856 -140 993 -140 894 739 1031 739 781 132 918 132
Fore
918 132 m 1
 1043 132 l 1
 993 -140 l 1
 856 -140 l 1
 882 0 l 1
 68 0 l 1
 205 739 l 1
 342 739 l 1
 229 132 l 1
 436 132 l 1
 549 739 l 1
 686 739 l 1
 574 132 l 1
 781 132 l 1
 894 739 l 1
 1031 739 l 1
 918 132 l 1
EndSplineSet
EndChar
StartChar: afii10044
Encoding: 449 1066 343
Width: 798
Flags: W
HStem: 0 21G<167 414> 603 136<87 279>
VStem: 658 140<292 332>
DStem: 279 603 383 404 167 0 330 131
Fore
167 0 m 1
 279 603 l 1
 63 603 l 1
 88 739 l 1
 448 739 l 1
 408 535 l 1
 518 535 l 18
 687 535 798 471 798 332 c 0
 798 132 641 0 414 0 c 2
 167 0 l 1
330 131 m 1
 446 131 l 26
 539 131 658 195 658 292 c 0
 658 361 582 404 502 404 c 10
 383 404 l 1
 330 131 l 1
EndSplineSet
EndChar
StartChar: afii10045
Encoding: 450 1067 344
Width: 921
Flags: W
HStem: 0 21G<68 315> 719 20G<212 349>
VStem: 559 140<292 332>
DStem: 212 739 349 739 68 0 309 535 212 739 284 404 68 0 231 131 847 738 984 738 710 -1 847 -1
Fore
315 0 m 6
 68 0 l 5
 212 739 l 1
 349 739 l 5
 309 535 l 5
 419 535 l 22
 588 535 699 471 699 332 c 4
 699 132 542 0 315 0 c 6
231 131 m 5
 347 131 l 30
 440 131 559 195 559 292 c 4
 559 361 483 404 403 404 c 14
 284 404 l 5
 231 131 l 5
710 -1 m 1
 847 738 l 1
 984 738 l 1
 847 -1 l 1
 710 -1 l 1
EndSplineSet
EndChar
StartChar: afii10046
Encoding: 451 1068 345
Width: 699
Flags: W
HStem: 0 21G<68 315> 719 20G<212 349>
VStem: 559 140<292 332>
DStem: 212 739 349 739 68 0 309 535 212 739 284 404 68 0 231 131
Back
315 0 m 6
 68 0 l 5
 212 739 l 5
 349 739 l 5
 309 535 l 5
 419 535 l 22
 611 535 728 452 693 272 c 4
 659 95 531 0 315 0 c 6
231 131 m 5
 347 131 l 30
 437 131 540 182 557 272 c 20
 573 353 490 404 403 404 c 30
 284 404 l 5
 231 131 l 5
EndSplineSet
Fore
315 0 m 6
 68 0 l 5
 212 739 l 5
 349 739 l 5
 309 535 l 5
 419 535 l 22
 588 535 699 471 699 332 c 4
 699 132 542 0 315 0 c 6
231 131 m 5
 347 131 l 30
 440 131 559 195 559 292 c 4
 559 361 483 404 403 404 c 14
 284 404 l 5
 231 131 l 5
EndSplineSet
EndChar
StartChar: afii10047
Encoding: 452 1069 346
Width: 780
Flags: W
HStem: -13 132<395 429> 310 132<375 697> 620 132<507 535>
Fore
351 310 m 1
 376 442 l 1
 716 442 l 1
 704 547 622 620 513 620 c 0
 441 620 388 597 313 533 c 1
 152 533 l 1
 232 666 383 752 535 752 c 0
 720 752 858 615 858 436 c 0
 858 204 657 -13 402 -13 c 0
 247 -13 123 69 92 212 c 1
 246 212 l 1
 282 144 332 119 422 119 c 0
 543 119 662 194 697 310 c 1
 351 310 l 1
EndSplineSet
EndChar
StartChar: afii10048
Encoding: 453 1070 347
Width: 1076
Flags: W
HStem: -13 132<649 677> 620 132<769 798>
VStem: 327 140<296 319> 971 140<417 444>
DStem: 212 739 349 739 68 0 291 441 212 739 265 310 68 0 205 0
Back
262 310 m 1
 205 0 l 1
 68 0 l 1
 205 739 l 1
 342 739 l 1
 287 442 l 1
 400 442 l 1
 420 497 452 551 493 595 c 0
 586 696 710 752 840 752 c 0
 1024 752 1156 622 1156 439 c 0
 1156 201 939 -13 697 -13 c 1
 505 -8 368 114 372 310 c 1
 262 310 l 1
813 620 m 0
 720 620 637 578 578 501 c 0
 537 448 512 381 512 323 c 0
 512 204 599 119 721 119 c 0
 812 119 896 162 953 238 c 0
 992 290 1016 359 1016 419 c 0
 1016 536 931 620 813 620 c 0
EndSplineSet
Fore
265 310 m 5
 205 0 l 5
 68 0 l 5
 212 739 l 5
 349 739 l 5
 291 441 l 5
 354 441 l 5
 423 620 604 752 798 752 c 4
 984 752 1111 620 1111 444 c 4
 1111 179 868 -13 649 -13 c 4
 457 -13 327 119 327 296 c 4
 327 301 327 305 327 310 c 5
 265 310 l 5
771 620 m 4
 619 620 467 484 467 319 c 4
 467 204 550 119 673 119 c 4
 824 119 971 255 971 419 c 4
 971 536 891 620 771 620 c 4
EndSplineSet
EndChar
StartChar: afii10049
Encoding: 454 1071 348
Width: 619
Flags: W
HStem: 0 21G<-47 122 401 538> 204 131<330 441> 608 131<401 519>
VStem: 51 140<406 447>
DStem: 193 223 331 204 -47 0 122 0 441 204 682 739 401 0 538 0 519 608 682 739 466 335 538 0
Back
7 0 m 1
 14 8 269 288 269 288 c 1
 226 293 190 303 158 319 c 0
 92 351 70 405 70 475 c 0
 70 545 102 616 156 664 c 0
 213 715 289 739 398 739 c 2
 595 739 l 1
 458 0 l 1
 322 0 l 1
 361 212 l 1
 171 0 l 1
 7 0 l 1
434 607 m 1
 366 607 l 2
 296 607 263 597 237 567 c 0
 219 547 210 523 210 498 c 0
 210 442 247 419 334 419 c 2
 399 419 l 1
 434 607 l 1
EndSplineSet
Fore
519 608 m 5
 403 608 l 30
 310 608 191 544 191 447 c 4
 191 378 267 335 347 335 c 14
 466 335 l 5
 519 608 l 5
193 223 m 5
 104 251 51 311 51 406 c 4
 51 606 206 739 435 739 c 6
 682 739 l 5
 538 0 l 5
 401 0 l 5
 441 204 l 5
 331 204 l 21
 122 0 l 5
 -47 0 l 5
 193 223 l 5
EndSplineSet
EndChar
StartChar: afii10065
Encoding: 455 1072 349
Width: 660
Flags: W
HStem: -13 122<307 347> 445 122<394 428>
VStem: 75 137<213 240>
Fore
718 554 m 1
 616 0 l 1
 494 0 l 1
 507 72 l 1
 445 13 385 -13 307 -13 c 0
 167 -13 75 77 75 213 c 0
 75 406 232 567 420 567 c 0
 498 567 551 539 583 480 c 1
 596 554 l 1
 718 554 l 1
410 445 m 0
 304 445 212 350 212 240 c 0
 212 160 265 109 347 109 c 0
 416 109 469 137 507 191 c 0
 530 226 544 271 544 313 c 0
 544 394 492 445 410 445 c 0
EndSplineSet
EndChar
StartChar: afii10066
Encoding: 456 1073 350
Width: 640
Flags: W
HStem: -13 122<321 348> 445 121<407 432>
VStem: 78 136<220 246> 539 137<306 329>
Fore
409 445 m 0
 307 445 214 349 214 244 c 0
 214 166 270 109 346 109 c 0
 446 109 539 206 539 309 c 0
 539 387 484 445 409 445 c 0
343 622 m 1
 259 556 263 522 263 522 c 1
 307 544 346 566 432 566 c 0
 571 566 676 468 676 329 c 0
 676 162 528 -13 321 -13 c 0
 177 -13 78 90 78 220 c 0
 78 371 153 652 321 735 c 1
 441 779 525 775 623 779 c 0
 691 783 709 791 741 805 c 1
 742 695 l 1
 712 683 691 669 635 673 c 1
 533 665 443 670 343 622 c 1
EndSplineSet
EndChar
StartChar: afii10067
Encoding: 457 1074 351
Width: 615
Flags: W
HStem: 0 105<225 352> 442 105<178 382>
VStem: 418 125<407 434> 450 122<186 203>
DStem: 178 547 252 243 72 0 225 105
Back
74 0 m 1
 177 554 l 1
 316 554 l 2
 450 554 502 524 502 435 c 0
 502 396 472 322 419 303 c 1
 472 280 491 255 491 198 c 0
 491 73 386 0 234 0 c 2
 74 0 l 1
226 121 m 1
 258 121 l 2
 329 121 379 143 379 189 c 0
 379 223 332 230 282 230 c 2
 243 230 l 1
 226 121 l 1
259 331 m 1
 285 331 l 2
 346 332 386 348 386 389 c 0
 386 418 361 433 315 433 c 2
 275 433 l 1
 259 331 l 1
EndSplineSet
Fore
290 442 m 29xe0
 273 354 l 29
 354 354 l 6
 388 354 418 373 418 407 c 4
 418 430 398 442 371 442 c 6
 290 442 l 29xe0
252 243 m 29
 225 105 l 29
 350 105 l 6
 401 105 450 129 450 188 c 4xd0
 450 223 422 243 380 243 c 6
 252 243 l 29
489 322 m 5
 540 300 572 260 572 203 c 4xd0
 572 82 454 0 327 0 c 6
 72 0 l 5
 178 547 l 5
 403 547 l 6
 508 547 543 489 543 434 c 4xe0
 543 383 523 353 489 322 c 5
EndSplineSet
EndChar
StartChar: afii10068
Encoding: 458 1075 352
Width: 454
Flags: W
HStem: 0 21G<74 207> 433 121<177 499>
DStem: 177 554 287 433 74 0 207 0
Fore
74 0 m 1
 177 554 l 1
 522 554 l 5
 499 433 l 5
 287 433 l 1
 207 0 l 1
 74 0 l 1
EndSplineSet
EndChar
